<?xml version="1.0" standalone="no"?>
<!DOCTYPE svg PUBLIC "-//W3C//DTD SVG 20010904//EN"
 "http://www.w3.org/TR/2001/REC-SVG-20010904/DTD/svg10.dtd">
<svg version="1.0" xmlns="http://www.w3.org/2000/svg"
 width="900.000000pt" height="1146.000000pt" viewBox="0 0 900.000000 1146.000000"
 preserveAspectRatio="xMidYMid meet">
<metadata>
Created by potrace 1.10, written by Peter Selinger 2001-2011
</metadata>
<g transform="translate(0.000000,1146.000000) scale(0.100000,-0.100000)"
fill="#000000" stroke="none">
<path d="M3045 11101 c-22 -10 -58 -35 -80 -54 l-40 -36 55 -1 c132 -1 178
-41 256 -231 29 -68 55 -133 59 -144 4 -11 20 -55 36 -98 15 -43 39 -94 53
-112 14 -18 28 -51 32 -74 5 -33 11 -42 30 -46 13 -3 35 -7 49 -10 14 -3 33 0
44 6 10 7 25 9 34 6 21 -8 32 -69 17 -97 l-12 -22 -32 31 c-18 17 -41 31 -53
31 -13 0 -23 8 -27 22 -4 18 -8 20 -18 10 -9 -9 -7 -16 10 -32 12 -11 24 -31
28 -45 4 -15 11 -22 20 -18 8 3 24 -3 35 -13 12 -11 32 -17 50 -16 17 1 37 -4
45 -13 18 -17 50 -20 59 -5 3 6 -5 10 -19 10 -27 0 -56 23 -56 46 0 8 11 19
25 26 19 9 29 8 49 -6 35 -22 48 -20 44 7 -2 17 -10 22 -36 23 -48 0 -76 33
-68 78 4 22 14 37 26 41 23 7 87 85 70 85 -6 0 -18 -7 -27 -16 -25 -24 -57
-14 -63 21 -5 27 -10 30 -50 36 -104 15 -114 25 -185 184 -14 33 -31 68 -36
78 -6 10 -19 48 -30 84 -17 55 -19 73 -10 110 9 35 9 49 -4 74 -17 32 -58 53
-89 45 -12 -3 -28 5 -47 25 -33 35 -82 39 -144 10z m183 -83 c-3 -7 -13 -13
-23 -13 -10 0 -20 6 -22 13 -3 7 5 12 22 12 17 0 25 -5 23 -12z"/>
<path d="M4485 11070 c-11 -12 -31 -20 -51 -20 -20 0 -44 -9 -61 -24 -27 -23
-28 -28 -29 -118 -1 -100 3 -90 -98 -298 -52 -108 -56 -112 -134 -125 -61 -10
-68 -14 -77 -41 -5 -16 -10 -31 -11 -32 -5 -8 -74 20 -74 29 0 5 -7 9 -15 9
-8 0 -15 -4 -15 -8 0 -11 78 -82 90 -82 18 0 17 -65 -1 -91 -14 -20 -24 -24
-52 -21 -40 5 -52 -7 -33 -33 12 -17 15 -17 37 -2 29 21 40 21 64 3 18 -13 18
-15 2 -40 -13 -19 -26 -26 -48 -26 -18 0 -28 -4 -24 -10 9 -15 52 -12 69 6 9
8 26 14 39 12 12 -1 33 5 47 15 13 9 29 17 36 17 17 0 74 77 68 93 -3 8 1 17
9 20 9 3 18 19 22 35 3 17 15 38 27 48 21 20 51 78 67 129 15 47 46 128 71
181 12 27 28 63 35 79 53 127 78 161 146 195 34 18 54 21 96 17 32 -3 53 -2
53 4 0 15 -50 59 -92 80 -52 26 -139 26 -163 -1z m5 -57 c0 -14 -19 -38 -25
-32 -8 8 5 39 16 39 5 0 9 -3 9 -7z m-367 -723 c16 -13 28 -16 32 -10 11 18
35 11 35 -10 0 -14 -7 -20 -23 -20 -13 0 -34 -11 -47 -25 -13 -14 -29 -25 -36
-25 -23 0 -32 56 -14 91 13 24 21 24 53 -1z"/>
<path d="M3780 10761 c0 -13 -17 -31 -45 -51 -25 -17 -45 -34 -45 -39 0 -7 96
-8 104 0 11 11 9 103 -2 107 -7 2 -12 -5 -12 -17z"/>
<path d="M3860 10758 c0 -13 -3 -32 -5 -43 -9 -34 9 -47 64 -49 28 0 51 2 51
6 0 4 -20 21 -45 38 -27 19 -45 39 -45 50 0 11 -4 20 -10 20 -5 0 -10 -10 -10
-22z"/>
<path d="M3788 10543 c-14 -3 -18 -16 -19 -51 -1 -26 0 -51 1 -57 2 -5 2 -50
0 -100 -5 -121 -4 -126 3 -155 12 -43 -18 -68 -90 -76 -53 -5 -63 -4 -63 9 0
27 -45 35 -74 14 -17 -13 -14 -15 35 -31 90 -30 242 -38 409 -21 35 3 69 10
75 14 5 5 23 11 40 15 29 7 29 8 11 22 -27 19 -52 18 -74 -6 -28 -30 -106 -26
-138 9 -20 21 -23 32 -17 56 8 33 8 32 0 155 -3 47 -2 90 2 95 4 6 6 29 3 53
-3 35 -9 45 -29 53 -25 9 -45 10 -75 2z m65 -116 c13 -56 -1 -224 -19 -231
-16 -6 -19 -1 -29 59 -12 67 -13 128 -1 173 13 53 37 53 49 -1z m12 -267 c9
-15 -13 -40 -35 -40 -22 0 -44 25 -35 40 3 5 19 10 35 10 16 0 32 -5 35 -10z"/>
<path d="M3720 10295 c0 -9 5 -15 11 -13 6 2 11 8 11 13 0 5 -5 11 -11 13 -6
2 -11 -4 -11 -13z"/>
<path d="M3920 10295 c0 -8 5 -15 10 -15 6 0 10 7 10 15 0 8 -4 15 -10 15 -5
0 -10 -7 -10 -15z"/>
<path d="M3155 10234 c-12 -9 -30 -12 -44 -9 -14 4 -30 0 -41 -10 -27 -24 -87
-31 -108 -12 -17 15 -20 14 -51 -14 -33 -29 -33 -32 -27 -87 10 -81 73 -202
105 -202 6 0 11 -7 11 -15 0 -8 6 -15 14 -15 10 0 4 16 -20 52 -19 29 -34 60
-34 70 0 19 28 38 56 38 14 0 16 -7 10 -40 -7 -45 -7 -45 28 -29 31 15 39 34
20 49 -24 21 -17 40 16 40 34 0 70 -33 91 -84 12 -27 10 -31 -29 -67 -29 -27
-50 -39 -71 -39 -22 0 -44 -14 -89 -57 -33 -32 -72 -77 -86 -100 -14 -24 -49
-60 -78 -80 -28 -21 -78 -64 -110 -96 -71 -72 -73 -93 -18 -192 46 -84 140
-274 140 -286 0 -15 111 -118 166 -155 51 -34 56 -35 73 -20 24 22 31 12 31
-44 0 -41 -5 -52 -44 -93 -38 -42 -48 -47 -86 -47 -41 0 -41 1 -36 30 3 17 9
44 12 60 4 21 11 30 25 30 14 0 19 -7 19 -30 0 -50 39 -28 43 25 2 25 -1 27
-38 30 -22 1 -47 -3 -55 -10 -20 -17 -88 -40 -95 -33 -7 6 10 41 34 71 13 15
12 23 -7 61 -32 64 -48 74 -73 48 -11 -12 -26 -22 -33 -22 -7 0 -31 -9 -54
-20 -22 -11 -46 -20 -51 -20 -12 0 -61 -51 -61 -62 0 -12 48 -10 55 2 3 6 11
10 16 10 13 0 -22 -61 -38 -67 -7 -3 -13 -11 -13 -19 0 -7 -8 -19 -18 -26 -10
-7 -21 -21 -25 -30 -4 -12 -12 -15 -23 -11 -15 5 -16 1 -11 -29 6 -40 -5 -54
-56 -76 -20 -9 -27 -17 -23 -28 17 -44 15 -63 -10 -117 -14 -32 -32 -61 -40
-64 -8 -3 -14 -18 -14 -34 0 -28 -1 -29 -46 -22 -42 5 -48 4 -70 -23 -13 -17
-23 -43 -24 -62 0 -19 -6 -35 -15 -38 -18 -7 -19 -27 -3 -54 10 -15 9 -22 -3
-37 -9 -10 -19 -26 -22 -35 -7 -21 -28 -23 -46 -5 -10 10 -15 8 -27 -7 -8 -11
-14 -30 -14 -42 0 -13 -4 -26 -10 -29 -13 -8 -13 -42 0 -50 6 -4 17 -2 24 4
10 9 19 6 37 -9 l24 -20 -23 -18 c-22 -17 -22 -19 -7 -32 15 -12 19 -12 31 5
8 10 16 16 19 13 3 -2 -8 -23 -24 -45 -16 -22 -31 -49 -33 -59 -2 -12 -13 -20
-31 -22 -16 -2 -31 -11 -33 -20 -3 -9 -10 -26 -14 -37 -5 -11 -10 -29 -12 -40
-2 -13 -12 -21 -28 -23 -14 -2 -29 -8 -35 -13 -5 -5 -17 -9 -26 -9 -29 0 -34
-22 -11 -41 18 -14 20 -22 13 -42 -6 -14 -15 -28 -20 -32 -6 -3 -11 -16 -11
-27 0 -12 -7 -29 -16 -39 -25 -27 -11 -46 39 -53 39 -6 45 -10 51 -36 6 -35
26 -39 44 -10 7 11 19 20 28 20 32 0 -5 -117 -54 -170 -12 -13 -25 -40 -28
-59 -4 -20 -18 -60 -31 -89 -14 -29 -23 -62 -20 -73 3 -10 1 -22 -4 -25 -5 -3
-9 -13 -9 -23 0 -10 -9 -30 -21 -45 -16 -21 -17 -26 -5 -26 9 0 16 -11 18 -27
2 -21 9 -29 27 -31 23 -4 23 -6 16 -60 -4 -32 -7 -68 -7 -82 1 -14 -6 -43 -14
-66 -21 -56 -15 -118 11 -122 33 -6 40 -20 20 -42 -23 -26 -42 -25 -51 2 -6
19 -7 20 -16 4 -14 -26 0 -74 25 -82 12 -4 23 -2 25 5 4 11 42 16 42 5 0 -4
-12 -18 -26 -31 -20 -18 -24 -27 -15 -36 15 -15 14 -59 -3 -83 -16 -23 -20
-194 -5 -194 19 0 7 -41 -16 -56 -17 -11 -22 -20 -16 -28 5 -6 13 -26 18 -45
7 -29 14 -35 38 -36 16 0 33 -9 39 -19 6 -11 23 -32 39 -48 29 -31 36 -68 13
-68 -8 0 -16 6 -19 14 -3 7 -19 18 -36 24 l-30 11 34 -51 c20 -28 38 -62 41
-77 4 -14 18 -38 31 -52 15 -16 23 -36 21 -49 -5 -34 14 -34 48 -1 22 21 34
27 45 20 11 -7 10 -10 -8 -15 -11 -3 -24 -15 -27 -27 -3 -12 -4 -22 -3 -22 1
-1 14 -9 29 -18 34 -21 52 -21 68 -2 7 9 19 14 27 11 10 -4 12 6 7 52 -7 73
-21 110 -45 117 -73 23 -145 255 -89 285 11 6 20 18 20 27 0 10 6 14 20 10 15
-4 22 1 26 19 9 35 34 31 34 -5 0 -17 -4 -32 -8 -35 -10 -6 -7 -124 3 -156 5
-15 15 -20 40 -20 19 0 37 4 40 10 3 5 9 49 12 97 3 49 12 100 19 114 17 34 9
89 -22 157 -13 29 -24 58 -24 65 0 6 -7 21 -15 31 -8 11 -15 30 -15 43 0 13
-7 26 -16 30 -14 5 -14 8 5 22 25 19 20 47 -10 56 -27 9 -24 19 22 78 65 82
107 126 149 152 38 24 90 83 90 102 0 25 37 40 98 40 63 0 87 8 63 22 -7 5
-11 19 -9 32 2 19 8 23 27 21 15 -1 32 7 47 23 27 30 52 24 56 -13 4 -38 31
-34 44 8 15 45 31 49 59 14 l22 -28 14 22 c16 26 23 27 43 6 23 -22 21 -76 -4
-92 -11 -7 -20 -21 -20 -32 0 -11 -5 -20 -11 -20 -6 0 -9 -12 -7 -27 4 -35
-29 -46 -34 -12 -2 12 -9 24 -17 27 -24 8 -8 -98 18 -119 24 -20 28 -49 6 -49
-8 0 -15 5 -15 10 0 6 -4 10 -9 10 -5 0 -7 -9 -4 -20 4 -16 -1 -20 -36 -26
-47 -8 -51 -16 -16 -32 30 -14 31 -35 5 -85 -11 -20 -20 -50 -20 -66 0 -36
-13 -46 -40 -31 -13 7 -20 21 -20 39 0 41 -9 44 -47 15 -33 -25 -33 -25 -64
-7 -30 18 -31 18 -50 -6 -12 -14 -17 -31 -14 -42 9 -28 -20 -34 -45 -9 -23 23
-38 23 -54 -3 -15 -24 16 -56 38 -38 13 11 14 8 9 -22 -7 -43 6 -51 57 -36 50
15 60 6 37 -33 -9 -16 -15 -34 -11 -39 9 -16 50 -10 77 11 14 11 33 20 42 20
14 0 13 -5 -6 -40 -17 -30 -20 -43 -12 -51 6 -6 9 -18 6 -25 -4 -11 -8 -12
-20 -3 -10 9 -17 9 -25 1 -13 -13 -2 -32 19 -32 12 0 14 -6 8 -27 -3 -16 -13
-35 -21 -44 -8 -8 -14 -20 -14 -26 0 -6 -7 -16 -15 -23 -8 -7 -15 -25 -15 -40
0 -15 -7 -33 -14 -40 -8 -6 -22 -33 -32 -58 -9 -26 -20 -56 -24 -67 -5 -11
-11 -36 -14 -55 -12 -92 -59 -212 -95 -244 -12 -11 -21 -26 -21 -35 0 -12 3
-12 12 -3 7 7 16 12 20 12 19 0 5 -37 -30 -84 -21 -28 -42 -58 -46 -66 -8 -17
-21 -39 -59 -97 -37 -58 -35 -74 6 -71 30 3 32 1 35 -35 3 -34 -1 -42 -40 -77
-24 -22 -49 -39 -55 -40 -7 0 -13 -10 -13 -22 0 -17 -3 -19 -11 -11 -9 9 -21
5 -48 -18 l-36 -29 -8 25 c-11 33 -18 32 -45 -10 -12 -19 -46 -49 -75 -65 -28
-17 -64 -40 -79 -52 -15 -11 -64 -31 -110 -43 -46 -13 -108 -30 -138 -39 -30
-10 -72 -21 -93 -25 -21 -5 -44 -14 -50 -20 -6 -6 -22 -11 -36 -11 -36 0 -71
-11 -71 -21 0 -12 72 -11 103 0 14 6 75 13 136 17 l111 7 0 -26 c0 -20 -6 -28
-25 -33 -13 -3 -29 -12 -36 -20 -6 -8 -27 -14 -45 -14 -24 0 -34 -5 -34 -15 0
-8 8 -15 18 -15 31 0 33 -11 7 -32 -14 -11 -25 -26 -25 -34 0 -8 -10 -18 -23
-23 -13 -5 -29 -16 -36 -25 -7 -9 -19 -16 -26 -16 -14 0 -65 45 -65 58 0 5 -6
15 -14 21 -23 19 -28 -4 -6 -32 11 -14 20 -29 20 -34 0 -5 12 -24 26 -41 18
-22 36 -32 54 -32 18 0 33 -8 44 -25 9 -14 23 -25 30 -25 8 0 27 -11 43 -24
l29 -25 27 34 c15 19 27 41 27 50 0 21 29 51 57 59 13 4 29 13 35 19 7 7 34
28 59 47 25 19 56 49 70 67 13 18 28 33 33 33 5 0 1 -10 -8 -23 -9 -12 -20
-32 -25 -44 -10 -21 -134 -188 -155 -208 -6 -6 -16 -19 -22 -30 -7 -12 -24
-21 -43 -23 -27 -3 -46 -22 -21 -22 6 0 10 -11 10 -24 0 -13 7 -26 15 -30 20
-7 20 -46 0 -46 -8 0 -15 9 -15 20 0 25 -14 25 -50 0 -27 -19 -28 -21 -13 -50
8 -17 21 -30 29 -30 8 0 14 -7 14 -15 0 -8 9 -15 20 -15 10 0 24 -9 30 -20 18
-34 31 -12 24 39 -4 35 -2 50 8 59 12 10 19 8 33 -8 18 -20 114 -70 134 -70 5
0 24 -12 41 -27 23 -19 31 -32 27 -50 -4 -20 0 -23 23 -23 18 0 33 -8 44 -25
12 -19 25 -25 52 -25 55 0 77 -16 70 -51 -5 -27 -3 -29 23 -29 15 0 55 13 87
30 60 30 98 38 109 21 3 -6 -3 -14 -12 -20 -30 -16 -5 -26 32 -12 19 7 39 9
45 6 15 -9 12 -81 -4 -94 -14 -12 -56 -130 -56 -157 0 -7 9 -16 20 -19 18 -6
20 -15 20 -101 0 -66 5 -104 15 -124 16 -30 40 -40 47 -18 8 24 28 -5 28 -42
0 -39 -20 -70 -44 -70 -7 0 -21 -9 -31 -20 -15 -16 -15 -22 -5 -35 7 -8 19
-15 27 -15 21 0 8 -16 -49 -60 -30 -25 -60 -40 -77 -40 -15 0 -48 -7 -74 -16
-42 -14 -47 -19 -47 -46 0 -19 11 -43 30 -65 17 -18 30 -40 30 -48 0 -10 10
-15 28 -15 15 0 44 -11 65 -25 30 -21 41 -24 57 -15 28 15 30 6 33 -140 l2
-125 38 0 c24 0 37 -5 37 -13 0 -7 -8 -12 -19 -10 -10 2 -28 -6 -40 -16 -22
-20 -29 -56 -11 -56 6 0 10 -29 10 -67 0 -70 17 -193 27 -203 3 -3 8 1 10 8 3
6 12 12 21 12 8 0 23 7 33 16 10 9 26 14 34 10 31 -11 -7 -124 -51 -152 -13
-9 -24 -25 -24 -37 0 -18 2 -19 18 -5 17 14 52 14 52 -1 0 -12 -45 -51 -58
-51 -7 0 -12 -9 -12 -20 0 -13 -7 -20 -20 -20 -11 0 -30 -10 -41 -21 -19 -19
-25 -20 -42 -10 -24 15 -37 1 -37 -40 0 -14 -11 -43 -25 -63 -14 -20 -25 -41
-25 -47 0 -5 -7 -12 -15 -15 -10 -4 -15 -21 -15 -53 0 -41 -5 -51 -45 -93 -47
-51 -65 -57 -85 -33 -16 19 -70 20 -95 1 -21 -15 -14 -46 10 -46 8 0 15 -4 15
-10 0 -14 -35 -30 -64 -30 -16 0 -26 -6 -26 -14 0 -17 -22 -26 -62 -26 -17 0
-56 -11 -87 -24 -54 -23 -123 -48 -186 -66 -16 -5 -61 -20 -100 -33 -112 -40
-175 -57 -207 -57 -16 0 -39 -5 -51 -12 -33 -19 -147 -47 -188 -48 -23 0 -46
-9 -65 -25 l-29 -25 30 1 c17 0 54 -4 83 -11 45 -9 57 -9 77 4 14 9 43 16 65
16 22 0 57 7 77 15 19 8 43 15 52 15 9 0 33 9 54 20 20 11 42 20 49 20 6 0 19
6 27 13 20 17 81 34 146 42 28 3 64 12 80 19 62 28 132 46 178 46 51 0 64 -16
20 -26 -16 -3 -46 -12 -68 -19 -90 -29 -153 -45 -176 -45 -14 0 -34 -7 -45
-15 -10 -8 -31 -15 -46 -15 -33 0 -78 -16 -78 -28 0 -5 10 -8 21 -8 12 1 24
-4 26 -10 7 -20 -75 -44 -150 -46 -40 -1 -86 -7 -104 -15 -18 -7 -43 -13 -56
-13 -14 0 -30 -7 -37 -15 -7 -8 -25 -15 -41 -15 -15 0 -30 -4 -33 -9 -7 -11
19 -22 37 -15 7 2 21 -2 32 -11 20 -15 20 -15 0 -27 -44 -28 -176 -73 -242
-83 -23 -4 -44 -13 -47 -21 -4 -10 -23 -14 -64 -14 -33 0 -76 -7 -95 -15 -20
-8 -47 -15 -60 -15 -14 0 -30 -7 -37 -15 -7 -9 -29 -15 -51 -15 -21 0 -58 -5
-82 -12 -32 -8 -55 -8 -87 0 -44 11 -74 7 -64 -9 3 -5 16 -9 30 -9 14 0 36 -7
49 -16 17 -11 37 -14 62 -11 50 7 151 32 186 46 37 15 100 14 115 -1 9 -9 18
-6 39 14 33 30 87 41 228 43 66 1 120 8 159 20 55 18 59 18 71 1 11 -15 23
-16 90 -10 42 4 83 13 90 20 15 16 95 19 95 4 0 -5 -12 -12 -27 -15 -16 -4
-40 -13 -55 -21 -14 -8 -33 -14 -41 -14 -8 0 -20 -6 -26 -14 -6 -7 -25 -16
-41 -20 -17 -3 -30 -10 -30 -16 0 -15 56 -12 69 4 7 8 31 16 54 19 71 9 215
45 263 66 47 21 185 50 264 56 55 4 147 26 177 43 12 6 37 12 55 12 31 -1 32
-1 14 -15 -11 -8 -30 -15 -43 -15 -13 0 -23 -6 -23 -15 0 -7 -8 -18 -18 -24
-23 -13 87 -8 151 8 27 6 63 11 80 10 30 -2 92 13 129 32 10 5 29 9 43 9 32 0
34 -34 3 -51 -21 -11 -20 -13 22 -25 39 -12 47 -12 56 1 17 23 47 19 39 -5 -8
-24 10 -27 32 -4 12 12 27 14 57 9 49 -7 68 -22 40 -30 -10 -4 -34 -13 -53
-21 -45 -20 -186 -31 -195 -15 -11 17 -41 13 -61 -9 -11 -12 -31 -20 -50 -20
-40 0 -78 -36 -55 -50 20 -13 27 -12 84 5 27 8 64 15 81 15 20 0 39 8 51 21
15 17 27 20 58 16 24 -3 54 0 74 9 45 18 96 18 112 -1 7 -8 18 -15 26 -15 19
0 27 19 15 34 -15 18 42 41 133 56 36 6 77 15 91 20 15 6 74 10 133 10 59 0
139 6 177 14 165 35 242 49 280 51 22 1 42 3 45 4 6 3 34 8 99 17 43 6 44 6
37 -20 -7 -29 0 -32 48 -16 17 5 67 17 111 26 44 8 91 21 105 26 14 6 66 14
115 19 50 4 111 11 138 15 42 6 47 5 47 -13 0 -25 19 -43 46 -43 36 0 208 60
217 75 6 11 13 12 32 3 19 -9 38 -8 82 4 122 33 160 42 208 46 28 2 54 8 60
13 5 5 23 9 40 8 l30 0 -25 -11 c-14 -5 -32 -14 -40 -18 -9 -4 -36 -11 -60
-15 -25 -4 -50 -11 -55 -16 -6 -4 -29 -12 -50 -18 -45 -11 -96 -27 -140 -46
-16 -7 -38 -16 -47 -19 -10 -3 -18 -9 -18 -13 0 -14 138 -45 201 -45 58 0 59
-1 57 -25 -4 -38 18 -39 51 -3 27 30 32 32 72 24 l44 -7 -35 -9 c-19 -6 -36
-11 -38 -13 -8 -7 -11 -75 -5 -76 34 -6 133 -5 133 1 0 12 127 47 195 55 33 3
78 10 100 16 37 10 63 17 195 55 95 27 180 42 415 75 44 6 86 17 94 25 13 12
10 16 -22 29 -20 8 -42 15 -48 15 -27 0 1 11 47 19 49 9 91 22 152 47 24 10
32 20 32 38 0 32 20 42 97 49 38 3 76 13 96 26 20 12 51 21 75 21 33 0 45 5
58 25 10 16 29 27 52 31 21 3 51 10 67 14 17 5 84 16 150 25 66 9 140 23 164
31 24 8 52 12 63 8 13 -4 28 2 43 16 16 15 43 24 92 30 37 5 82 13 98 19 17 5
47 12 68 16 20 3 37 10 37 15 0 17 -144 11 -246 -11 -55 -11 -144 -26 -199
-34 -55 -8 -116 -17 -137 -21 -33 -6 -37 -4 -40 17 -2 19 -10 25 -37 27 -19 2
-53 -1 -75 -7 -84 -21 -276 -35 -310 -23 -26 10 -43 9 -81 -2 -26 -8 -73 -18
-104 -21 -31 -4 -67 -11 -81 -16 -14 -5 -50 -11 -80 -13 -30 -2 -74 -10 -98
-16 -54 -16 -89 -3 -98 37 -11 50 -13 53 -44 53 l-31 0 20 -26 c22 -28 27 -59
12 -68 -5 -3 -14 1 -21 9 -11 14 -15 14 -29 1 -18 -16 -165 -32 -206 -22 -20
5 -25 11 -20 26 6 18 2 20 -34 20 -23 0 -41 -4 -41 -9 0 -15 -81 -6 -117 12
-22 12 -33 25 -35 44 -2 23 -7 27 -28 25 -14 -2 -42 -5 -64 -7 -21 -2 -46 -11
-55 -20 -20 -18 -31 -11 -31 20 0 23 -42 70 -53 58 -11 -10 -8 -51 3 -58 6 -3
10 -17 10 -30 l0 -24 -32 30 c-18 16 -36 29 -40 29 -12 0 -10 -14 4 -28 9 -9
8 -16 -5 -30 -21 -23 -21 -31 0 -54 15 -17 15 -20 3 -28 -22 -14 -28 -12 -40
10 -9 17 -17 19 -49 14 -31 -5 -43 -2 -60 15 -12 12 -28 21 -37 21 -9 0 -18 9
-21 20 -5 20 -13 23 -43 21 -26 -2 -44 15 -35 35 4 11 7 28 6 40 -2 15 8 26
33 38 19 9 44 30 56 46 26 37 44 38 66 5 9 -14 22 -25 29 -25 16 0 29 35 20
51 -4 5 1 19 11 30 16 17 16 22 4 29 -27 17 -52 10 -113 -30 -33 -22 -65 -39
-71 -37 -6 2 -11 16 -11 30 -1 14 -4 29 -8 33 -4 4 -7 17 -7 30 0 12 -5 24
-12 26 -6 2 -12 15 -14 29 -1 13 -3 27 -3 31 -1 4 -10 10 -21 13 -26 8 -26 45
0 52 24 6 26 21 5 29 -8 4 -15 17 -15 29 0 13 -5 27 -11 30 -14 9 -59 -34 -59
-56 0 -28 -11 -49 -26 -49 -8 0 -14 10 -14 26 0 17 -7 28 -18 31 -11 3 -26 24
-36 53 -10 27 -24 54 -32 61 -16 13 -19 45 -4 54 6 3 10 17 10 31 0 17 -8 27
-26 34 -21 8 -25 15 -20 33 4 12 9 38 12 57 3 19 9 44 14 55 18 44 18 54 -1
71 -15 14 -19 26 -15 47 3 15 0 37 -7 48 -10 17 -8 22 18 43 17 13 27 27 23
31 -4 4 0 21 8 37 8 16 12 38 9 48 -4 11 1 30 9 42 9 12 16 32 16 45 0 22 19
99 38 158 6 17 13 42 16 58 7 29 26 38 26 11 0 -9 6 -14 13 -12 8 3 14 35 17
94 4 68 10 97 27 124 65 102 68 113 48 178 -6 18 -2 24 21 32 19 7 35 24 47
50 17 38 17 40 -1 77 -28 56 -34 99 -16 114 19 16 46 78 38 90 -3 5 -12 9 -20
9 -16 0 -20 65 -4 75 16 10 12 21 -15 35 -31 17 -31 21 0 53 16 15 22 28 15
32 -17 11 -11 25 16 35 22 9 25 15 23 45 -2 18 0 37 3 41 4 4 5 26 1 49 -5 39
-3 45 35 82 47 47 49 52 56 196 5 82 2 115 -8 135 -8 15 -17 59 -21 97 -4 39
-14 87 -21 109 -16 44 -19 182 -5 191 12 7 31 -57 31 -102 0 -17 4 -34 8 -37
5 -3 12 -44 15 -90 6 -89 21 -136 38 -119 10 10 6 45 -21 203 -19 108 -30 154
-40 160 -6 4 -8 29 -5 58 4 44 2 53 -15 62 -18 10 -20 19 -17 80 2 40 10 76
18 86 9 12 14 45 15 108 0 65 6 102 17 126 20 40 20 40 5 40 -35 1 -42 17 -28
59 7 23 19 41 27 41 22 0 14 20 -12 30 -14 5 -25 17 -25 28 0 10 -4 22 -10 28
-12 12 1 96 15 92 6 -2 9 -15 7 -30 -2 -14 2 -29 7 -33 17 -10 14 105 -3 124
-8 9 -17 31 -21 49 -6 29 -4 34 14 39 28 7 27 31 -1 35 -18 2 -22 9 -20 30 2
23 -2 29 -25 34 -15 4 -34 11 -40 17 -19 14 -15 61 7 90 24 30 27 92 5 105
-12 6 -16 27 -17 90 -1 58 -5 83 -15 86 -7 3 -13 16 -13 30 0 13 -7 26 -15 30
-16 6 -21 46 -6 46 5 0 12 -11 15 -25 4 -14 13 -25 21 -25 8 0 15 -9 15 -19 0
-11 5 -23 10 -26 6 -3 10 -13 10 -22 0 -28 49 -121 74 -140 13 -11 25 -28 27
-38 2 -10 10 -20 17 -23 17 -5 15 33 -3 48 -8 7 -15 19 -15 26 0 15 -95 203
-111 219 -5 5 -9 20 -9 33 0 33 -18 62 -38 62 -31 1 -112 91 -112 124 0 8 -21
31 -46 52 -54 45 -74 80 -74 132 0 22 -6 52 -14 66 -10 21 -11 36 -4 66 8 31
7 45 -4 62 -10 16 -12 32 -7 51 4 16 3 40 -2 54 -5 14 -7 28 -5 31 3 3 -2 17
-11 32 -16 28 -13 60 7 60 6 0 13 -14 17 -31 l6 -32 14 27 c18 35 53 35 53 0
0 -14 11 -39 25 -56 14 -16 25 -42 25 -58 0 -37 14 -45 51 -30 39 16 45 9 25
-31 -26 -52 -21 -67 12 -36 38 37 55 35 47 -3 -5 -25 -3 -30 12 -30 11 0 24 5
30 11 16 16 26 -7 25 -58 0 -29 4 -43 13 -43 7 0 15 5 17 12 8 22 37 -1 73
-54 19 -29 42 -62 50 -73 15 -19 17 -19 26 -2 10 18 12 18 30 1 26 -23 25 -47
-1 -39 -25 8 -25 0 -1 -31 18 -23 19 -23 24 -4 6 25 32 26 42 3 4 -12 -2 -24
-20 -39 -17 -13 -25 -28 -23 -44 2 -20 -2 -24 -22 -25 -22 0 -25 -4 -24 -38 1
-26 11 -50 32 -76 16 -20 50 -76 75 -123 25 -48 64 -116 86 -151 23 -35 41
-69 41 -74 0 -6 6 -16 14 -22 9 -7 15 -42 19 -99 4 -68 11 -98 31 -136 14 -27
26 -60 26 -72 0 -43 33 -95 68 -110 34 -14 34 -15 27 -60 -3 -26 -9 -53 -12
-60 -3 -8 13 -32 36 -54 36 -36 45 -40 83 -38 41 3 43 2 44 -27 3 -84 4 -85
29 -91 16 -4 34 0 50 10 29 19 72 21 78 4 2 -7 11 4 20 25 18 42 37 49 37 12
0 -14 0 -28 0 -32 1 -5 -9 -9 -20 -11 -25 -4 -23 -30 3 -46 14 -9 21 -7 31 7
17 23 36 22 36 -2 0 -11 4 -22 9 -26 6 -3 21 -29 36 -58 14 -28 34 -65 45 -82
11 -16 24 -39 30 -50 6 -11 24 -42 41 -70 16 -27 35 -61 42 -75 6 -14 15 -27
19 -30 4 -3 12 -17 18 -30 5 -14 19 -38 30 -55 11 -16 24 -39 30 -50 11 -21
18 -34 63 -103 15 -24 27 -45 27 -49 0 -3 13 -25 30 -50 16 -24 30 -51 30 -59
0 -7 4 -14 9 -14 5 0 14 -12 20 -27 6 -16 20 -41 31 -58 11 -16 24 -39 30 -50
6 -11 19 -33 30 -50 11 -16 24 -39 30 -50 6 -11 19 -33 30 -50 10 -16 29 -50
42 -75 12 -25 34 -61 48 -80 31 -43 48 -70 57 -90 4 -8 18 -33 32 -55 46 -73
51 -80 57 -97 3 -10 10 -18 14 -18 5 0 12 -9 15 -21 4 -11 26 -48 49 -82 23
-34 45 -69 49 -77 4 -8 16 -28 27 -45 11 -16 23 -37 27 -45 4 -8 18 -31 31
-50 13 -19 28 -44 33 -55 5 -11 18 -33 29 -50 11 -16 23 -38 26 -47 4 -10 10
-18 14 -18 5 0 12 -9 15 -20 4 -11 26 -51 51 -88 24 -37 44 -73 44 -79 0 -7 4
-13 8 -13 5 0 14 -10 21 -22 6 -13 20 -36 31 -53 11 -16 23 -37 27 -45 3 -8
19 -31 35 -51 15 -20 28 -39 28 -42 0 -3 19 -34 43 -69 23 -35 48 -73 55 -84
7 -10 15 -27 18 -36 4 -10 10 -18 14 -18 5 0 11 -9 15 -20 3 -11 39 -68 78
-128 40 -59 81 -123 91 -142 10 -19 32 -54 48 -78 15 -24 28 -45 28 -48 0 -2
11 -21 24 -42 13 -21 27 -52 31 -70 4 -18 23 -53 42 -79 55 -72 234 -273 243
-273 24 0 14 27 -48 124 -37 59 -72 114 -77 124 -10 17 -63 95 -122 182 -27
39 -89 137 -130 205 -6 11 -38 62 -70 113 -32 51 -63 101 -68 110 -6 9 -36 55
-66 102 -94 142 -131 201 -149 235 -6 11 -18 32 -28 47 -9 15 -91 149 -182
298 -91 150 -172 282 -180 295 -32 51 -687 1141 -693 1155 -4 8 -16 29 -26 45
-11 17 -28 46 -38 65 -56 103 -116 207 -129 221 -8 8 -14 18 -14 22 0 3 -13
28 -29 55 -61 104 -80 141 -79 159 0 10 -6 33 -13 51 -14 32 -13 34 29 72 32
30 42 47 42 70 0 40 -16 45 -84 27 -49 -12 -58 -12 -68 1 -18 21 -15 87 4 109
8 10 19 43 22 73 10 74 29 147 44 162 7 7 12 18 12 25 0 7 11 20 24 28 30 20
46 100 23 118 -12 10 -70 85 -154 200 -12 16 -35 43 -52 59 -34 34 -42 86 -16
108 8 7 15 23 15 36 0 18 -5 24 -23 24 -27 0 -57 -28 -57 -53 0 -9 -10 -22
-22 -28 -17 -9 -24 -9 -33 5 -22 29 -41 18 -36 -20 3 -22 -28 -23 -53 -3 -31
25 -33 45 -5 52 13 4 19 12 17 24 -3 14 -13 18 -49 18 -48 0 -79 17 -79 42 0
9 6 12 18 9 12 -4 25 1 36 13 17 18 17 20 0 29 -22 13 -13 34 22 52 16 8 39
23 51 33 26 23 53 16 53 -12 0 -11 4 -22 9 -26 5 -3 12 -18 16 -34 8 -38 50
-67 71 -50 8 6 14 18 14 26 0 12 -7 14 -30 10 -27 -6 -30 -4 -31 21 -1 15 0
37 0 49 1 11 -3 24 -8 28 -6 3 -11 18 -11 32 0 34 81 113 145 142 19 9 115 98
115 107 0 2 15 18 33 34 17 16 28 29 22 30 -5 0 -29 -18 -53 -40 -49 -45 -75
-61 -117 -70 -17 -3 -31 -14 -35 -26 -10 -39 -33 -60 -104 -100 -28 -15 -30
-15 -43 2 -22 31 -15 64 22 101 19 19 35 37 35 39 0 2 7 12 16 22 83 93 115
148 98 165 -18 17 -84 -47 -84 -82 0 -17 -93 -140 -106 -141 -17 0 -34 22 -34
46 0 12 -9 33 -20 47 -11 14 -20 32 -20 40 0 9 -16 36 -34 61 -19 24 -50 73
-68 108 -17 35 -46 83 -64 108 -17 25 -34 56 -37 70 -2 14 -14 48 -25 75 -12
28 -23 61 -26 76 -3 14 -19 45 -36 70 -18 26 -30 57 -30 77 0 18 -9 50 -20 72
-33 64 -28 83 28 106 40 17 53 29 72 68 20 43 21 52 11 88 -7 22 -29 59 -50
81 -21 23 -57 67 -80 97 -44 56 -82 81 -89 60 -3 -7 -17 -23 -33 -38 -34 -30
-36 -42 -8 -65 32 -28 18 -41 -51 -48 -58 -6 -67 -10 -90 -40 -31 -41 -72 -78
-102 -93 -13 -6 -29 -24 -36 -39 -7 -15 -17 -27 -23 -27 -18 0 -76 -65 -83
-94 -5 -22 -11 -27 -27 -23 -22 6 -75 -41 -89 -79 -5 -12 -29 -32 -53 -44 -60
-30 -85 -83 -52 -110 9 -7 13 -20 10 -28 -3 -8 -1 -20 5 -27 23 -27 -32 -107
-62 -89 -5 3 -16 -3 -24 -15 -8 -12 -24 -21 -35 -21 -20 0 -25 20 -9 36 14 14
-16 54 -40 54 -10 0 -22 -4 -25 -10 -16 -25 -21 -6 -6 23 17 33 96 110 143
140 15 10 37 35 47 56 12 23 32 43 51 51 52 21 155 130 172 181 13 40 18 44
48 45 38 0 97 56 106 102 5 24 60 72 83 72 4 0 19 13 34 28 25 26 26 29 11 50
-8 12 -22 22 -31 22 -40 0 6 16 85 30 101 17 109 29 67 89 -14 21 -25 44 -23
52 2 7 -14 22 -34 33 l-37 21 -26 -25 c-19 -17 -28 -21 -36 -13 -18 18 -2 43
25 43 18 0 30 9 41 29 8 16 25 33 37 37 29 9 98 81 98 103 0 9 7 26 15 37 14
20 13 21 -22 20 -51 -1 -64 22 -38 71 44 86 51 92 113 95 42 2 58 7 60 19 2
13 -9 16 -73 14 -41 -1 -80 -6 -86 -12 -19 -19 -59 6 -59 37 0 14 5 31 11 37
8 8 8 17 0 31 -6 11 -11 24 -11 27 0 12 355 359 428 419 40 32 91 78 115 103
66 68 70 72 105 99 34 27 42 61 17 70 -8 4 -15 12 -15 20 0 8 -10 14 -26 14
-21 0 -24 4 -19 20 5 17 2 20 -27 20 -36 0 -56 -12 -79 -46 -8 -12 -36 -40
-64 -64 -27 -23 -89 -79 -136 -124 -47 -44 -115 -107 -150 -138 -113 -100
-296 -282 -302 -300 -4 -10 -13 -18 -22 -18 -17 0 -21 35 -4 45 13 9 -28 55
-48 55 -10 0 -13 11 -11 38 l3 37 -50 -2 c-41 -1 -47 1 -34 10 22 17 29 46 21
86 -10 45 -32 53 -32 13 0 -38 -9 -64 -21 -56 -16 10 -10 76 9 90 13 9 14 16
6 24 -8 8 -14 9 -18 1 -11 -16 -36 -13 -36 4 0 27 -38 92 -66 114 -23 18 -25
23 -13 37 12 15 11 16 -9 10 -17 -6 -21 -4 -16 8 4 10 -6 30 -25 51 -17 20
-31 40 -31 46 0 6 -32 42 -71 80 -58 56 -76 69 -103 69 -44 0 -112 67 -102
102 15 58 115 120 130 81 3 -7 18 -13 33 -13 16 0 39 -7 51 -16 l22 -15 -21
-42 c-12 -23 -31 -52 -42 -64 -12 -14 -15 -23 -8 -23 6 0 24 12 38 28 65 69
83 110 98 214 7 43 5 49 -20 72 -29 27 -50 33 -60 16 -11 -18 -61 -11 -97 13
-25 18 -38 21 -50 13 -12 -7 -23 -5 -42 7 -28 19 -101 23 -111 7 -3 -6 2 -13
12 -16 39 -13 83 -39 83 -50 0 -34 -92 -184 -113 -184 -18 0 -64 60 -71 91
-10 51 -7 86 8 92 8 3 21 19 29 36 15 29 14 31 -4 31 -10 0 -38 -18 -61 -40
-29 -27 -52 -40 -70 -40 -21 0 -28 -5 -28 -20 0 -11 9 -25 20 -32 11 -7 20
-23 20 -35 0 -12 9 -27 20 -33 13 -7 20 -21 21 -43 0 -29 1 -30 9 -9 12 29 24
28 38 -4 22 -47 -17 -84 -52 -49 -8 9 -33 15 -59 15 -31 0 -49 6 -62 20 -14
15 -21 17 -32 9 -20 -17 -16 -27 15 -32 22 -3 21 -4 -10 -6 -20 0 -38 4 -40
10 -2 7 -40 12 -101 13 -61 1 -101 6 -109 14 -16 16 -43 15 -58 -3 -15 -18
-13 -21 20 -34 20 -8 10 -10 -47 -10 -43 -1 -73 3 -73 9 0 6 8 10 18 10 16 1
16 1 0 11 -24 14 -65 1 -71 -22 -4 -16 -14 -19 -66 -19 -33 0 -78 -7 -100 -16
-21 -8 -58 -14 -82 -12 -41 3 -44 5 -51 42 -7 31 -5 43 8 58 10 10 21 18 25
18 14 0 59 47 59 62 0 8 9 23 20 33 30 27 26 55 -8 55 -18 0 -37 11 -58 33
-17 19 -45 39 -62 45 -35 12 -37 11 -23 -16 5 -9 12 -25 15 -35 4 -14 12 -17
27 -12 16 5 19 4 13 -6 -4 -7 -8 -34 -9 -60 -1 -37 -9 -56 -34 -88 -18 -23
-36 -41 -41 -41 -10 0 -40 51 -64 110 -10 25 -22 53 -27 62 -15 30 -11 37 36
58 25 12 43 25 40 30 -10 15 -88 11 -110 -6z m-155 -83 c0 -27 -15 -41 -41
-41 -24 0 -29 4 -29 25 0 22 4 25 35 25 19 0 35 -4 35 -9z m1730 -15 c0 -14
-5 -28 -10 -31 -15 -9 -47 3 -54 21 -9 23 2 34 35 34 24 0 29 -4 29 -24z
m-1670 -56 c0 -5 -9 -10 -20 -10 -11 0 -20 5 -20 10 0 6 9 10 20 10 11 0 20
-4 20 -10z m1585 0 c-3 -5 -15 -10 -26 -10 -10 0 -19 5 -19 10 0 6 12 10 26
10 14 0 23 -4 19 -10z m-1335 -139 c0 -13 -28 -21 -47 -13 -14 5 -12 8 12 13
17 4 31 7 33 8 1 0 2 -3 2 -8z m842 -217 c9 -19 9 -33 0 -56 -8 -22 -8 -34 0
-48 16 -25 -1 -43 -52 -59 l-41 -12 21 -26 c15 -19 20 -41 20 -84 0 -105 26
-64 32 51 3 37 7 46 24 48 19 3 22 -3 28 -68 5 -56 3 -76 -9 -93 -8 -12 -15
-29 -15 -39 0 -19 -38 -50 -52 -42 -4 3 -8 16 -8 29 0 38 -18 39 -25 1 -15
-79 -120 -124 -127 -54 -4 37 -23 48 -31 18 -5 -18 -9 -20 -26 -11 -24 13
-101 14 -120 2 -23 -15 -91 67 -91 109 0 11 53 40 72 40 9 0 9 -3 0 -12 -18
-18 -14 -33 12 -48 21 -11 27 -10 41 4 21 20 41 21 49 0 8 -20 45 -15 60 8 8
14 6 21 -9 32 -20 15 -20 15 0 16 11 0 35 -9 54 -21 60 -36 79 -6 39 60 -35
58 -42 60 -169 61 -101 0 -120 -3 -142 -20 l-25 -20 -17 26 c-16 25 -16 28 1
60 22 41 48 44 88 9 25 -22 39 -25 101 -25 67 0 74 2 90 26 l17 27 -27 -7
c-39 -10 -55 8 -55 65 0 52 11 67 30 44 7 -8 21 -15 31 -15 20 0 44 -35 34
-50 -7 -11 58 -80 75 -80 15 0 12 43 -5 67 -8 12 -14 32 -13 45 3 18 -2 24
-24 26 -20 2 -28 9 -28 23 0 17 8 19 90 19 87 0 91 -1 102 -26z m-352 -59 c0
-30 -4 -56 -8 -59 -5 -3 -25 -1 -45 5 -31 8 -37 14 -37 38 0 21 9 34 38 53 20
13 40 23 45 21 4 -2 7 -28 7 -58z m2060 50 c0 -9 11 -20 25 -25 26 -10 33 -34
14 -45 -15 -10 -79 23 -79 41 0 16 20 43 33 44 4 0 7 -7 7 -15z m-1632 -83
c-21 -9 -35 7 -30 33 l5 26 17 -28 c9 -15 13 -30 8 -31z m-777 -5 c-8 -8 -14
-8 -22 0 -8 8 -6 17 8 32 l18 22 3 -22 c2 -12 -1 -26 -7 -32z m-554 -83 c13
-34 -45 -97 -70 -75 -7 7 14 69 29 84 13 12 34 8 41 -9z m49 -120 c13 -14 24
-28 24 -32 0 -4 -14 -20 -31 -35 l-31 -27 7 37 c5 31 4 36 -6 26 -15 -15 -39
-17 -39 -4 0 10 39 61 47 61 3 0 16 -11 29 -26z m1848 12 c29 -1 31 -3 28 -36
-4 -50 -17 -58 -52 -32 -16 12 -36 22 -45 22 -22 0 -30 -28 -13 -48 8 -9 18
-25 21 -34 4 -10 13 -18 22 -18 19 0 20 -24 0 -40 -12 -10 -19 -7 -41 19 -18
22 -35 31 -55 31 -17 0 -32 6 -35 15 -7 18 113 138 128 129 6 -4 25 -7 42 -8z
m86 -80 c0 -8 -4 -18 -10 -21 -5 -3 -10 3 -10 14 0 12 5 21 10 21 6 0 10 -6
10 -14z m-1855 -16 c3 -6 -2 -22 -12 -38 -10 -15 -26 -44 -36 -64 -19 -44 -35
-47 -60 -13 -17 24 -17 25 6 30 14 4 32 24 46 51 23 42 43 55 56 34z m1549
-50 c14 -5 32 -24 39 -43 8 -18 27 -43 42 -54 19 -13 26 -26 22 -37 -11 -28
-31 -17 -71 39 -37 52 -67 68 -81 45 -4 -6 0 -21 8 -34 9 -12 17 -36 19 -52 2
-23 12 -33 45 -49 23 -11 45 -29 49 -39 6 -18 7 -18 19 -3 7 9 17 17 22 17 6
0 16 7 23 15 16 19 50 20 50 1 0 -8 -4 -17 -9 -20 -5 -3 -6 -35 -4 -70 5 -54
3 -67 -14 -85 l-20 -21 -26 20 c-33 26 -59 78 -51 102 7 24 -13 23 -26 -2 -7
-14 -21 -20 -43 -20 -18 0 -38 -4 -46 -9 -36 -23 -121 27 -121 72 0 16 -5 18
-27 13 -78 -19 -83 -19 -83 3 0 14 5 19 15 15 8 -4 31 6 49 20 46 35 59 34 51
-3 -6 -28 -4 -30 30 -37 23 -4 41 -2 48 5 18 18 11 114 -13 160 -22 44 -21 46
30 54 44 7 48 7 74 -3z m-1347 -6 c21 -6 21 -7 6 -31 -10 -15 -23 -23 -34 -20
-15 4 -16 1 -8 -20 7 -18 5 -35 -8 -61 -21 -47 -20 -45 -33 -37 -8 5 -7 14 4
31 20 30 21 80 1 88 -19 7 -19 21 1 40 16 17 35 19 71 10z m-151 -76 c-10 -99
-48 -138 -75 -77 -12 28 -12 33 3 41 9 5 16 13 16 18 0 16 42 80 52 80 7 0 9
-21 4 -62z m296 29 c11 -18 9 -45 -4 -67 -11 -16 -9 -22 6 -33 28 -21 14 -65
-27 -82 -36 -15 -52 -1 -23 20 18 13 22 35 6 35 -5 0 -10 24 -10 54 0 39 -4
55 -15 60 -8 3 -15 13 -15 22 0 13 7 15 37 9 21 -4 41 -12 45 -18z m1012 7
c11 -29 6 -45 -20 -69 -29 -27 -104 -36 -104 -13 0 24 34 87 49 91 37 10 69 6
75 -9z m-477 -66 c43 -42 57 -88 33 -103 -25 -16 7 -22 102 -20 57 1 119 7
139 15 45 16 89 7 89 -20 0 -10 -5 -22 -12 -26 -13 -8 -168 -17 -228 -13 -19
1 -55 3 -80 3 -43 1 -45 0 -42 -26 4 -36 -22 -28 -43 13 -14 25 -19 28 -48 21
-17 -4 -95 -7 -173 -6 -115 0 -145 3 -164 17 -14 9 -32 17 -41 17 -9 0 -21 11
-27 24 -10 22 -8 25 14 30 13 4 34 2 45 -4 30 -17 111 -31 229 -40 58 -5 115
-11 126 -15 34 -11 38 13 7 45 -15 17 -30 39 -33 51 -8 33 -25 23 -30 -18 -5
-35 -8 -38 -41 -41 -47 -4 -75 24 -59 59 8 18 31 31 88 50 42 15 84 27 92 28
8 0 34 -18 57 -41z m-403 -11 c-8 -23 -27 -21 -49 3 -17 19 -17 20 6 29 29 11
53 -7 43 -32z m712 22 c3 -5 -5 -18 -18 -28 -21 -18 -25 -18 -40 -4 -16 14
-18 14 -24 -1 -7 -17 -34 -22 -34 -6 0 6 -5 10 -10 10 -6 0 -8 -11 -4 -25 14
-54 -49 -75 -85 -29 -12 15 -21 35 -21 46 0 28 63 51 122 46 26 -3 52 -2 58 2
14 9 48 2 56 -11z m-586 -33 c0 -17 -20 -76 -26 -76 -3 0 -17 11 -31 25 -26
24 -26 25 -8 45 20 23 65 27 65 6z m-712 -101 c15 -14 34 -23 43 -20 9 3 33
-11 60 -35 29 -26 50 -38 62 -34 21 7 21 0 1 -31 -20 -30 -59 -35 -51 -6 3 15
-6 24 -46 42 -48 23 -117 82 -117 101 0 15 21 8 48 -17z m506 -44 c3 -5 -10
-21 -30 -36 -44 -33 -65 -22 -34 18 21 27 54 36 64 18z m984 -23 c18 -31 13
-43 -17 -33 -22 7 -36 38 -26 55 10 16 24 8 43 -22z m-929 6 c44 -22 48 -38
19 -77 -14 -17 -28 -42 -32 -55 -6 -19 -10 -21 -22 -11 -22 18 -16 46 16 71
l31 24 -26 24 c-22 20 -32 40 -22 40 2 0 18 -7 36 -16z m326 -104 c1 -109 -22
-156 -70 -144 -41 10 -68 -99 -49 -195 6 -27 12 -32 46 -37 29 -5 38 -11 36
-23 -3 -14 -18 -16 -103 -14 -110 3 -160 15 -175 44 -7 11 -21 19 -38 19 -30
0 -54 12 -51 26 3 19 -2 29 -9 17 -4 -6 -19 -14 -34 -18 -21 -5 -29 -2 -38 14
-9 17 -15 19 -30 11 -32 -17 -76 12 -84 54 -4 22 -14 37 -26 41 -36 11 -14 75
26 75 8 0 14 10 14 24 0 39 11 56 35 56 12 0 28 7 35 15 18 22 30 9 30 -34 0
-47 -8 -56 -32 -34 -17 15 -18 15 -18 -5 0 -11 5 -24 10 -27 6 -3 10 -13 10
-22 0 -11 -6 -14 -25 -9 -20 5 -25 3 -25 -14 0 -12 7 -20 18 -20 9 0 30 -14
46 -30 31 -31 59 -31 30 1 -15 17 -15 44 0 84 2 6 7 20 11 33 6 18 15 22 47
22 22 0 49 5 61 12 12 6 35 11 50 10 41 -3 67 14 67 46 0 26 41 82 60 82 5 0
2 -16 -6 -35 -7 -19 -14 -48 -14 -64 0 -16 -4 -33 -10 -36 -15 -9 -12 -35 4
-35 8 0 16 6 19 14 4 9 23 16 49 18 l43 3 -3 38 c-5 48 13 91 41 105 45 22 52
12 52 -68z m224 65 c2 -3 -1 -11 -7 -17 -13 -13 -16 -78 -6 -114 5 -19 11 -21
46 -17 29 4 49 0 79 -16 21 -12 39 -18 39 -13 0 14 -30 71 -41 77 -5 4 -9 17
-9 29 0 13 -7 29 -15 36 -8 7 -15 16 -15 20 0 11 28 20 43 14 8 -3 24 -31 37
-62 26 -63 36 -74 63 -66 21 6 77 -14 77 -27 0 -13 34 -11 47 2 18 18 62 -20
63 -53 0 -15 5 -30 10 -33 6 -3 10 -10 10 -16 0 -14 -26 -11 -40 6 -18 21 -40
19 -40 -5 0 -13 10 -24 25 -30 14 -5 25 -11 25 -14 0 -2 -14 -19 -31 -37 l-30
-32 -35 16 c-19 10 -37 25 -41 34 -4 10 -14 28 -24 41 -12 16 -16 33 -12 56 6
36 -5 50 -31 40 -20 -8 -21 -28 -2 -43 10 -8 12 -24 9 -51 -4 -31 0 -48 18
-75 14 -20 33 -35 44 -35 11 0 27 -4 35 -10 9 -6 20 -5 30 3 10 8 9 5 -2 -9
-10 -11 -18 -26 -18 -33 0 -9 -9 -11 -28 -6 -36 7 -52 -10 -45 -47 6 -34 43
-40 43 -8 0 11 6 23 14 26 16 6 61 -36 71 -66 4 -11 15 -20 26 -20 16 0 20 -6
17 -27 -3 -27 -11 -32 -75 -49 -8 -2 -13 -20 -13 -44 l0 -41 48 6 c26 4 57 13
69 21 18 11 22 11 27 -1 7 -20 -28 -41 -79 -49 -46 -7 -109 12 -128 38 -12 17
-15 16 -46 -13 -24 -23 -41 -30 -67 -29 -21 1 -42 -6 -55 -18 -20 -18 -21 -18
-39 6 -10 13 -21 45 -25 70 -4 25 -13 60 -21 79 -8 18 -14 53 -14 77 0 31 -4
44 -14 44 -21 0 -26 -25 -15 -78 20 -94 30 -164 26 -177 -4 -9 -19 -11 -51 -8
-36 4 -47 2 -52 -11 -9 -22 -44 -21 -44 2 0 18 -37 42 -65 42 -8 0 -18 -7 -23
-16 -13 -23 -66 -10 -86 22 -9 13 -24 24 -34 24 -9 1 -30 11 -46 24 -28 23
-28 24 -12 56 9 18 16 38 16 45 0 19 41 31 105 30 l60 -1 -3 -44 c-1 -24 -7
-49 -12 -54 -9 -12 -2 -66 9 -66 3 0 13 4 21 10 28 18 54 200 29 208 -25 9 -4
22 35 22 64 0 87 12 124 63 23 33 32 56 32 86 0 22 -4 43 -10 46 -5 3 -16 27
-23 53 -10 36 -21 51 -45 63 -27 14 -30 18 -18 29 8 6 18 33 22 58 9 62 20 75
58 68 16 -4 32 -8 35 -11z m504 -19 c9 -13 12 -27 8 -32 -5 -5 -6 -39 -3 -76
4 -64 6 -67 34 -77 24 -8 29 -15 25 -31 -3 -13 0 -20 9 -20 11 0 13 -4 6 -17
-7 -11 -24 -18 -50 -19 -26 -1 -53 -12 -75 -28 -59 -45 -66 -27 -12 28 37 39
44 56 21 56 -21 0 -30 20 -17 33 19 19 12 37 -14 37 -18 0 -23 4 -18 16 4 10
-1 22 -12 30 -23 17 -14 39 25 62 26 17 29 21 15 32 -19 16 -10 30 19 30 14 0
30 -10 39 -24z m-228 -19 c33 -29 37 -37 31 -61 -4 -16 -8 -27 -10 -25 -52 59
-86 102 -86 110 0 18 27 8 65 -24z m-1471 4 c3 -4 -5 -18 -18 -30 -29 -28 -48
-9 -20 19 21 21 30 24 38 11z m2285 -71 c14 0 30 -40 24 -57 -6 -15 -53 13
-53 31 0 7 -11 23 -25 36 -14 13 -25 32 -25 42 0 16 6 13 34 -16 18 -20 39
-36 45 -36z m-301 34 c2 -14 -6 -27 -23 -38 -24 -16 -24 -18 -10 -40 25 -37 0
-42 -35 -7 -38 37 -38 53 1 86 36 30 63 29 67 -1z m-1648 -68 c-13 -13 -35 7
-25 24 5 8 11 8 21 -1 10 -8 12 -15 4 -23z m1730 4 c17 -17 18 -23 8 -39 -11
-18 -13 -18 -40 11 -41 44 -11 71 32 28z m-2121 -29 c9 -16 6 -20 -15 -25 -33
-9 -39 -3 -24 23 13 26 26 27 39 2z m2071 -32 c0 -25 -33 -22 -38 4 -2 12 3
17 17 17 15 0 21 -6 21 -21z m150 2 c15 -28 13 -39 -10 -46 -11 -3 -20 -15
-20 -26 0 -29 -38 -25 -50 7 -14 36 -12 54 6 54 8 0 22 7 30 15 20 20 31 19
44 -4z m-1860 -37 c0 -8 -4 -14 -10 -14 -5 0 -10 9 -10 21 0 11 5 17 10 14 6
-3 10 -13 10 -21z m1709 -54 c37 -15 63 -66 55 -108 -5 -23 -11 -31 -21 -28
-8 4 -19 6 -24 6 -11 0 -55 86 -64 127 -8 41 4 66 18 36 5 -12 21 -27 36 -33z
m-2131 8 c3 -13 -3 -18 -21 -18 -29 0 -37 7 -30 27 8 19 47 12 51 -9z m122 3
c0 -14 -18 -23 -30 -16 -6 4 -8 11 -5 16 8 12 35 12 35 0z m110 -25 c0 -36
-55 -126 -76 -126 -8 0 -14 -6 -14 -13 0 -8 -9 -22 -20 -32 -18 -17 -19 -16
-26 9 -4 18 -1 33 10 45 9 10 16 25 16 35 0 9 12 21 26 26 19 8 25 16 21 30
-3 12 1 24 11 30 25 14 52 12 52 -4z m792 -53 c2 -34 -1 -54 -9 -57 -18 -7
-23 4 -23 59 0 87 26 85 32 -2z m-952 48 c0 -5 -6 -13 -13 -19 -15 -13 -42 1
-33 17 8 13 46 15 46 2z m2266 -15 c8 -14 31 -30 49 -36 45 -15 62 -35 45 -56
-22 -25 -63 -13 -80 23 -9 20 -22 33 -34 33 -20 0 -66 36 -66 52 0 4 16 8 35
8 26 0 39 -6 51 -24z m-43 -113 c23 -27 26 -67 5 -71 -13 -3 -18 3 -18 21 0
14 -7 30 -15 37 -14 12 -12 30 4 30 4 0 15 -8 24 -17z m-2248 -63 c3 -5 17
-10 31 -10 34 0 30 -13 -8 -28 -28 -10 -33 -9 -49 10 -10 11 -16 25 -13 29 7
12 31 11 39 -1z m830 -59 c0 -8 -4 -16 -10 -18 -16 -5 -38 14 -30 26 9 16 40
9 40 -8z m1578 13 c3 -3 1 -14 -5 -24 -9 -14 -9 -22 0 -33 7 -8 10 -22 6 -31
-7 -18 -24 -22 -24 -5 0 6 -10 9 -22 7 -34 -5 -34 -39 -1 -72 26 -26 26 -29
10 -41 -9 -7 -17 -17 -17 -24 0 -6 -4 -11 -10 -11 -14 0 -12 27 3 34 18 7 -23
37 -47 34 -29 -4 -63 -55 -48 -70 15 -15 15 -45 0 -54 -6 -4 -16 0 -23 9 -14
19 -85 24 -85 6 0 -15 -30 -38 -50 -39 -8 0 3 18 28 41 34 34 42 48 42 78 0
21 6 46 14 56 12 17 16 18 32 5 14 -12 18 -12 22 -2 6 18 19 29 80 63 33 19
52 36 52 48 0 27 25 42 43 25z m-1643 -38 c0 -8 7 -16 15 -20 9 -3 15 -18 15
-36 0 -39 -16 -39 -25 0 -7 33 -16 37 -35 15 -7 -8 -16 -15 -21 -15 -10 0 -12
53 -2 63 12 13 53 7 53 -7z m968 -8 c-6 -18 -28 -21 -28 -4 0 9 7 16 16 16 9
0 14 -5 12 -12z m274 -31 c10 -12 18 -30 18 -39 0 -10 11 -25 25 -34 46 -30
26 -94 -41 -127 -38 -19 -72 -92 -47 -101 8 -3 23 -6 34 -6 10 0 19 -2 19 -6
0 -12 -49 -77 -69 -90 -25 -18 -54 -71 -46 -84 10 -16 -44 -77 -73 -85 -15 -3
-48 -29 -73 -56 -26 -27 -55 -49 -65 -49 -21 -1 -84 -53 -84 -70 0 -5 6 -10
14 -10 19 0 46 -39 46 -66 0 -30 -31 -65 -83 -93 -29 -16 -51 -22 -63 -17 -18
7 -18 9 4 23 30 21 28 30 -7 38 -34 7 -91 -18 -91 -40 0 -8 -4 -15 -10 -15 -5
0 -10 4 -10 9 0 6 5 13 10 16 6 3 10 16 10 29 0 24 59 79 114 106 17 8 31 19
31 25 0 15 -72 26 -101 15 -31 -12 -94 -3 -94 14 0 6 5 28 11 49 9 34 8 40
-13 57 -19 16 -21 21 -8 29 17 12 154 25 175 18 8 -4 30 0 50 9 27 11 40 12
56 3 24 -13 72 3 92 31 7 9 32 23 57 31 54 17 85 60 59 81 -11 10 -14 27 -11
71 2 31 8 57 13 57 12 0 11 37 -1 61 -9 16 -7 21 16 29 25 10 26 12 10 29 -20
22 -20 32 2 71 17 31 17 32 -5 47 -32 21 -29 38 10 57 40 21 96 13 119 -17z
m-1604 -27 c3 -30 -59 -107 -77 -95 -14 8 -7 50 16 96 19 38 56 38 61 -1z m77
-17 c16 -19 24 -40 25 -65 0 -32 -4 -39 -25 -44 -35 -9 -40 0 -28 40 6 19 7
40 2 47 -10 16 -12 49 -4 49 3 0 17 -12 30 -27z m-890 -9 c0 -10 -8 -20 -18
-22 -22 -4 -35 27 -16 39 20 12 34 5 34 -17z m-25 -79 c0 -32 -10 -56 -21 -49
-10 6 -12 67 -3 77 12 11 24 -3 24 -28z m750 -46 c0 -19 -5 -29 -15 -29 -15 0
-22 50 -9 63 12 12 24 -4 24 -34z m2308 8 c2 -12 -3 -17 -17 -17 -15 0 -21 6
-21 21 0 25 33 22 38 -4z m-1387 0 c-1 -12 -15 -9 -19 4 -3 6 1 10 8 8 6 -3
11 -8 11 -12z m164 -16 c56 -8 72 -15 91 -38 13 -15 24 -35 25 -43 0 -8 3 -33
5 -55 3 -22 5 -59 4 -82 l0 -43 21 21 c16 16 18 23 9 34 -9 11 -8 24 5 58 9
24 17 59 18 78 2 27 7 35 25 37 13 2 30 1 39 -2 12 -5 11 -10 -8 -26 l-24 -19
32 -7 c41 -8 56 -26 57 -66 1 -17 7 -33 14 -36 10 -3 12 9 6 56 -12 109 15
147 50 70 16 -34 17 -44 7 -61 -9 -14 -10 -22 -2 -30 6 -6 11 -24 11 -40 0
-24 -3 -28 -17 -22 -41 17 -53 17 -53 2 0 -8 -14 -20 -31 -26 -26 -9 -29 -13
-20 -30 14 -25 8 -28 -58 -30 -29 0 -60 -6 -68 -13 -10 -8 -70 -13 -179 -16
-162 -4 -165 -3 -184 20 -26 31 -26 64 1 71 12 3 18 10 14 16 -8 15 -45 14
-45 -1 0 -6 -2 -9 -5 -6 -3 3 -1 17 4 31 9 22 6 29 -17 45 -23 18 -25 23 -14
46 14 32 3 40 -43 32 -45 -9 -51 -21 -26 -52 12 -15 21 -38 21 -51 0 -27 27
-82 49 -99 8 -6 11 -16 7 -23 -11 -18 -56 -32 -77 -26 -16 5 -17 10 -8 26 6
12 8 27 5 36 -10 24 -39 -5 -33 -33 5 -26 -9 -34 -56 -34 -54 0 -78 10 -72 30
3 9 -1 23 -10 30 -10 9 -15 31 -15 74 0 78 -14 105 -31 58 -7 -19 -21 -37 -35
-42 -32 -12 -30 -21 6 -42 35 -20 40 -52 10 -68 -15 -8 -26 -7 -47 7 -16 10
-31 22 -35 28 -5 6 -8 5 -8 -2 0 -7 -9 -13 -19 -13 -16 0 -20 7 -20 38 0 87
-1 94 -13 90 -7 -3 -14 -21 -16 -41 -4 -48 -39 -75 -72 -57 -19 10 -21 17 -15
48 21 111 22 121 8 126 -13 5 -18 38 -7 48 5 6 72 -18 84 -29 2 -2 -2 -8 -10
-14 -13 -8 -13 -10 0 -19 26 -17 50 -11 60 16 9 24 13 25 57 18 31 -4 54 -14
65 -27 10 -13 28 -21 49 -21 25 -1 36 -7 45 -24 6 -13 17 -29 23 -35 6 -6 11
-21 11 -34 0 -14 6 -23 15 -23 17 0 20 32 6 58 -11 22 4 62 24 62 8 0 15 5 15
11 0 7 -11 8 -30 4 -21 -5 -37 -1 -54 12 -31 22 -32 34 -6 58 18 17 21 17 57
-3 43 -22 150 -24 163 -3 5 9 10 8 20 -4 15 -19 76 -20 87 -2 13 22 46 37 69
32 12 -3 52 -9 89 -14z m291 -2 c3 -6 1 -16 -5 -22 -9 -9 -14 -8 -21 3 -5 8
-10 18 -10 23 0 11 28 8 36 -4z m-1200 -51 c1 -26 -4 -55 -11 -65 -13 -18 -9
-26 28 -61 23 -22 23 -62 -1 -62 -27 0 -33 10 -21 32 13 24 4 35 -19 22 -9 -5
-27 -8 -39 -6 -36 5 -30 48 12 86 19 18 35 39 35 48 0 17 -26 32 -40 23 -5 -3
-12 0 -16 6 -9 15 15 30 45 27 22 -3 25 -8 27 -50z m1584 -16 c0 -5 -11 -19
-24 -31 -24 -23 -24 -23 -35 -3 -18 34 -13 42 24 42 19 0 35 -4 35 -8z m588
-18 c4 -26 -46 -53 -59 -32 -13 19 -11 46 4 52 25 10 52 1 55 -20z m-148 -69
c25 -41 60 -53 98 -34 15 7 30 15 35 17 4 2 7 -3 7 -11 0 -21 -44 -47 -80 -47
-24 0 -33 -6 -40 -26 -11 -27 -30 -24 -30 5 0 10 -7 24 -15 31 -16 14 -21 100
-6 100 5 0 19 -16 31 -35z m190 -20 c0 -8 -4 -15 -10 -15 -5 0 -10 7 -10 15 0
8 5 15 10 15 6 0 10 -7 10 -15z m-325 -74 c3 -11 12 -22 20 -25 8 -3 15 -12
15 -19 0 -8 7 -20 15 -27 20 -16 19 -35 -2 -81 -19 -41 -40 -56 -57 -39 -7 7
-3 24 14 55 19 35 22 47 12 57 -7 7 -12 20 -12 30 0 11 -7 18 -19 18 -14 0
-18 -5 -14 -19 5 -20 -19 -75 -38 -87 -13 -8 -2 75 12 91 5 5 9 19 9 30 0 38
34 50 45 16z m-80 -51 c8 -25 -1 -41 -20 -33 -23 8 -18 53 6 53 4 0 10 -9 14
-20z m221 -85 c-7 -35 -6 -35 28 -35 73 0 80 -17 46 -115 -11 -32 -20 -66 -20
-77 0 -10 -5 -18 -11 -18 -5 0 -38 -27 -72 -61 l-62 -60 -17 22 c-10 11 -18
31 -18 43 0 11 -3 30 -6 41 -3 15 13 38 66 92 40 42 70 81 70 93 0 24 -9 26
-25 3 -11 -14 -13 -12 -19 19 -7 41 10 88 32 88 11 0 13 -8 8 -35z m-288 -12
c-2 -30 -8 -39 -24 -41 -32 -5 -39 26 -13 55 31 32 41 29 37 -14z m-1600 1
c28 -18 30 -54 3 -54 -11 0 -22 4 -25 9 -4 5 -25 12 -49 16 -55 10 -59 12 -44
36 10 17 19 19 52 14 22 -3 50 -13 63 -21z m320 10 c23 -4 45 -11 48 -16 7
-11 -24 -48 -39 -48 -22 0 -47 -34 -47 -64 0 -40 -33 -56 -109 -56 -66 1 -178
23 -194 39 -13 13 -16 12 56 17 33 2 66 9 74 16 14 11 15 10 9 -8 -5 -17 -2
-23 18 -28 35 -9 60 2 45 20 -9 11 -8 19 6 34 9 10 14 24 10 30 -4 6 1 20 10
30 15 17 16 22 4 36 -12 15 -10 16 26 10 22 -3 59 -9 83 -12z m1372 -80 c0
-46 -12 -57 -30 -25 -13 26 -13 54 2 69 18 18 28 4 28 -44z m-966 -5 c-3 -5
-14 -9 -25 -9 -14 0 -19 7 -19 25 0 25 1 25 25 9 14 -9 22 -20 19 -25z m-840
-23 c15 -13 26 -26 26 -29 0 -11 -81 0 -93 12 -9 10 -8 16 7 27 26 19 31 18
60 -10z m534 -4 c3 -9 -3 -13 -19 -10 -12 1 -24 9 -27 16 -3 9 3 13 19 10 12
-1 24 -9 27 -16z m1362 -6 c0 -16 -24 -38 -33 -30 -8 9 11 44 23 44 6 0 10 -6
10 -14z m-1091 -9 c16 -20 -6 -43 -55 -60 -39 -13 -42 -13 -67 13 -46 45 -39
50 84 58 15 1 32 -4 38 -11z m-304 -36 c8 -14 -32 -33 -55 -26 -21 7 -25 17
-13 28 10 10 61 8 68 -2z m113 -7 c-9 -9 -21 -13 -27 -9 -16 10 -3 25 22 25
20 0 20 -1 5 -16z m-1778 -20 c0 -9 -8 -22 -17 -29 -16 -12 -16 -16 -3 -39 17
-33 4 -49 -36 -44 -42 4 -41 32 1 83 38 47 55 56 55 29z m460 -34 c0 -12 -28
-25 -36 -17 -9 9 6 27 22 27 8 0 14 -5 14 -10z m-63 -40 c4 -21 -13 -44 -26
-36 -6 4 -11 18 -11 32 0 19 5 25 17 22 10 -2 19 -10 20 -18z m876 5 c22 -5
42 -15 48 -27 10 -19 11 -19 24 -1 11 15 24 17 77 15 81 -5 92 -16 52 -50 -18
-15 -33 -36 -35 -47 -3 -13 -14 -21 -31 -23 -16 -2 -30 -11 -33 -23 -4 -12
-15 -19 -31 -19 -13 0 -27 -1 -31 -1 -5 -1 -13 9 -20 21 -9 19 -20 23 -68 26
-79 3 -132 54 -56 54 38 0 43 8 25 42 -18 34 -10 52 20 44 11 -2 38 -8 59 -11z
m342 -26 c4 -6 -1 -16 -11 -23 -10 -8 -13 -16 -7 -19 5 -4 23 7 38 23 33 34
70 39 84 11 8 -14 4 -24 -20 -47 -31 -29 -35 -30 -173 -34 -42 -2 -42 20 1 61
42 38 75 49 88 28z m-1085 -24 c9 -11 8 -19 -7 -39 -32 -45 -53 -28 -37 32 7
25 26 29 44 7z m2786 -49 c-9 -26 -16 -57 -16 -71 0 -13 -4 -25 -9 -27 -5 -1
-29 -32 -53 -68 -28 -43 -51 -66 -65 -68 -26 -4 -30 13 -9 43 13 21 46 79 98
175 39 71 49 83 60 72 6 -6 3 -28 -6 -56z m-115 41 c0 -25 -28 -78 -43 -83
-10 -3 -18 -11 -18 -19 0 -16 -27 -28 -35 -15 -7 11 76 130 88 127 5 -1 8 -6
8 -10z m-565 -73 c3 -120 -48 -190 -164 -226 -49 -15 -58 -15 -76 -2 -25 17
-87 18 -172 2 -48 -8 -70 -9 -89 0 -22 10 -28 8 -61 -24 -39 -40 -39 -59 3
-75 32 -12 129 -3 139 13 3 5 16 7 28 4 11 -2 41 0 66 5 25 6 72 14 105 19 33
5 76 12 96 15 28 6 37 4 42 -9 5 -11 -1 -20 -17 -27 -21 -10 -22 -14 -12 -43
14 -41 16 -43 26 -26 14 23 22 5 10 -24 -5 -15 -10 -45 -10 -66 0 -62 -44
-123 -65 -89 -4 6 -14 -4 -23 -23 -16 -30 -21 -33 -71 -36 -64 -4 -88 12 -53
35 12 9 22 22 22 29 0 17 -42 18 -59 2 -10 -11 -15 -9 -26 6 -22 29 -38 9 -30
-39 4 -28 2 -46 -5 -50 -7 -4 -53 -8 -103 -9 -52 -1 -102 -7 -114 -14 -12 -7
-48 -14 -80 -16 -32 -2 -76 -7 -98 -10 -26 -4 -49 -2 -65 7 -22 12 -28 11 -53
-7 -29 -21 -53 -12 -42 17 8 20 26 26 97 34 60 6 83 26 26 22 -125 -9 -159 10
-93 51 41 25 45 54 15 93 -11 14 -20 28 -20 32 0 3 26 5 58 3 31 -1 63 1 70 5
18 12 15 37 -5 44 -10 4 -30 15 -45 26 -25 19 -58 18 -58 -2 0 -5 10 -12 23
-16 20 -7 21 -7 3 -12 -25 -6 -48 23 -44 56 3 20 9 24 48 26 55 3 80 -9 81
-38 1 -20 1 -20 8 3 6 22 14 26 61 30 56 5 100 26 100 46 0 17 -39 24 -80 15
-19 -4 -107 -5 -195 -2 -88 3 -187 3 -220 0 -68 -7 -182 6 -202 22 -17 15 -17
65 0 72 8 3 43 1 78 -4 95 -14 128 -13 214 7 55 12 61 12 72 -4 7 -9 21 -27
32 -39 19 -22 19 -22 37 -2 10 11 37 25 62 31 24 6 46 17 49 24 6 15 43 19 43
5 0 -14 32 -23 44 -11 7 7 4 14 -10 24 -18 14 -18 15 7 21 42 10 73 2 77 -20
3 -11 13 -28 23 -38 19 -17 19 -17 30 10 31 83 32 85 67 79 55 -8 125 32 149
87 16 36 53 38 53 2 0 -18 -7 -26 -26 -31 -17 -4 -22 -10 -16 -16 7 -7 27 -6
59 2 36 9 67 10 115 3 59 -8 67 -7 77 9 6 10 23 24 36 30 17 7 25 19 25 35 0
15 5 23 13 21 8 -3 12 -28 13 -74z m-2401 26 c10 0 27 7 37 16 16 16 18 16 24
0 13 -33 -3 -46 -56 -46 -53 0 -69 13 -55 48 6 16 7 16 19 0 7 -10 21 -18 31
-18z m390 -64 c0 -54 -16 -86 -41 -86 -9 0 -14 11 -14 30 0 17 -4 30 -10 30
-23 0 -8 40 23 58 17 11 34 21 37 21 3 1 6 -23 5 -53z m876 29 c0 -6 -10 -12
-23 -13 -19 -4 -20 -2 -9 12 15 17 33 18 32 1z m-693 -110 c4 -69 2 -77 -20
-94 l-23 -19 23 -25 c33 -35 22 -77 -21 -77 -17 0 -39 8 -49 17 -16 14 -24 15
-48 6 -27 -10 -32 -9 -55 19 -39 46 -37 52 43 114 17 14 32 30 32 34 0 19 50
62 65 56 9 -3 18 0 20 9 3 8 7 22 10 31 10 31 19 3 23 -71z m2552 33 c0 -16
-9 -29 -32 -46 -25 -20 -30 2 -7 32 22 28 39 34 39 14z m-2176 -29 c-7 -11
-81 -12 -88 0 -9 14 0 16 48 13 25 -2 43 -8 40 -13z m16 -85 c0 -17 -26 -19
-36 -3 -7 12 15 31 28 23 4 -3 8 -12 8 -20z m-1034 -133 c-9 -10 -16 -30 -16
-45 0 -34 -59 -126 -80 -126 -9 0 -24 6 -33 13 -27 19 -6 81 34 97 36 15 49
37 49 82 0 20 11 49 28 73 l27 40 3 -59 c2 -42 -1 -63 -12 -75z m3072 87 c-17
-26 -58 -37 -58 -16 0 21 21 38 48 38 23 0 24 -1 10 -22z m310 -8 c18 -11 44
-20 58 -20 25 0 26 -1 21 -62 -3 -35 -7 -74 -9 -88 -3 -22 2 -26 40 -34 36 -7
42 -13 40 -30 -2 -13 -17 -28 -40 -39 -21 -9 -38 -22 -38 -27 0 -18 -39 -10
-50 10 -6 11 -22 23 -35 26 -29 7 -32 28 -9 73 10 21 14 42 9 59 -4 15 -7 37
-7 50 0 17 -4 21 -17 17 -9 -3 -25 1 -35 8 -17 13 -17 15 -2 45 19 37 29 39
74 12z m-2660 -94 c14 -26 13 -30 -2 -41 -9 -7 -16 -17 -16 -24 0 -16 -20 -14
-26 4 -3 8 -14 17 -25 20 -11 4 -17 11 -14 16 9 13 45 11 45 -3 0 -6 3 -9 6
-5 3 3 1 22 -6 42 -15 44 -4 85 12 45 6 -14 17 -38 26 -54z m621 48 c47 -20
53 -34 16 -34 -15 0 -40 -7 -56 -16 -18 -9 -48 -14 -76 -12 -57 4 -70 25 -17
30 45 4 56 25 19 34 -20 5 -24 9 -13 16 18 12 78 4 127 -18z m1863 -29 c9 -11
17 -29 18 -39 0 -11 6 -27 14 -35 7 -9 18 -29 23 -46 5 -16 24 -39 41 -50 17
-11 31 -28 32 -38 0 -18 -36 -56 -53 -57 -5 0 -31 23 -57 50 -44 45 -49 48
-55 30 -10 -32 -28 -23 -58 30 l-28 50 33 15 c29 12 34 12 45 -2 14 -19 14
-19 31 21 7 16 9 33 5 37 -8 8 -76 -10 -89 -24 -11 -10 -42 -8 -49 3 -3 6 5
14 19 20 14 5 26 17 26 27 0 9 10 27 22 40 21 22 22 22 42 5 11 -9 28 -26 38
-37z m-1727 35 c-3 -5 -24 -10 -46 -10 -21 0 -39 5 -39 10 0 6 21 10 46 10 27
0 43 -4 39 -10z m-36 -39 c17 -11 6 -31 -17 -31 -25 0 -46 16 -38 29 8 13 36
14 55 2z m-439 -39 c0 -14 -11 -21 -26 -15 -8 3 -11 9 -8 14 7 11 34 12 34 1z
m400 -47 c-13 -16 -40 -20 -40 -7 0 14 12 22 33 22 16 0 17 -3 7 -15z m1900
-12 c0 -19 -3 -24 -10 -17 -6 6 -8 18 -4 27 9 24 14 21 14 -10z m-1981 8 c7
-5 10 -14 7 -20 -9 -14 -53 -15 -61 -1 -15 25 24 40 54 21z m-748 -11 c6 0 7
-4 4 -10 -10 -16 -45 -12 -45 6 0 11 5 14 16 10 9 -3 20 -6 25 -6z m1899 -131
c0 -5 -7 -9 -15 -9 -15 0 -20 12 -9 23 8 8 24 -1 24 -14z m1108 -11 c2 -20 -5
-32 -32 -53 -19 -15 -38 -34 -41 -44 -2 -9 -21 -25 -41 -36 l-35 -19 -24 30
c-13 16 -24 32 -25 36 0 7 31 26 90 54 19 9 45 27 58 41 27 29 46 26 50 -9z
m-3402 -55 c-11 -11 -19 6 -11 24 8 17 8 17 12 0 3 -10 2 -21 -1 -24z m-136
-51 c0 -25 -8 -41 -30 -60 -16 -15 -30 -32 -30 -38 0 -6 -7 -17 -15 -24 -8 -7
-15 -21 -15 -31 0 -30 -69 -161 -83 -156 -20 6 -19 35 2 56 12 12 21 25 21 30
0 5 6 22 14 38 8 15 24 49 35 74 12 26 28 53 37 59 10 9 13 22 9 41 -5 21 -1
33 16 50 26 26 39 13 39 -39z m750 44 c0 -17 -39 -88 -54 -98 -18 -12 -30 10
-19 34 12 28 55 78 66 78 4 0 7 -6 7 -14z m140 -23 c0 -22 -2 -25 -10 -13 -13
20 -13 40 0 40 6 0 10 -12 10 -27z m1508 10 c-4 -22 -22 -20 -26 1 -2 10 3 16
13 16 10 0 15 -7 13 -17z m-325 -5 c-13 -6 -23 -20 -23 -30 0 -11 -5 -29 -11
-40 -15 -27 2 -44 29 -29 17 9 21 7 26 -12 3 -12 6 -34 6 -49 0 -15 5 -39 12
-53 10 -23 10 -28 -6 -37 -17 -9 -16 -11 4 -33 16 -18 21 -35 21 -81 -1 -33 0
-80 1 -105 3 -51 -13 -79 -43 -79 -20 0 -27 34 -9 45 17 10 11 73 -10 118 -15
31 -19 52 -14 84 5 36 3 43 -18 57 -22 15 -25 22 -23 82 1 36 -3 68 -7 70 -5
3 -6 13 -4 22 3 10 2 23 -3 31 -7 11 -1 19 22 31 18 10 41 18 52 18 18 1 18 0
-2 -10z m-1953 -17 c0 -10 -12 -27 -27 -36 -25 -17 -26 -17 -18 1 4 11 10 27
12 37 7 23 33 22 33 -2z m3136 -108 c-11 -11 -36 7 -36 27 0 20 0 20 21 -1 11
-11 18 -23 15 -26z m-2276 7 c0 -5 -9 -14 -19 -20 -26 -13 -36 3 -15 24 15 16
34 13 34 -4z m647 4 c11 -11 30 -15 62 -12 40 3 46 0 49 -18 5 -34 -21 -48
-62 -33 -35 13 -37 12 -71 -21 -29 -28 -35 -31 -41 -16 -9 23 3 76 23 98 20
22 20 22 40 2z m307 10 c12 -5 16 -21 16 -71 0 -35 4 -73 10 -83 7 -14 6 -23
-6 -34 -8 -9 -20 -16 -25 -16 -12 0 -11 -27 1 -35 6 -4 18 -1 26 6 27 23 37
-3 29 -80 -7 -74 -15 -82 -55 -61 -13 7 -21 6 -30 -5 -16 -19 -4 -36 23 -34
45 4 59 -1 55 -18 -2 -12 -11 -17 -26 -15 -13 2 -25 -3 -28 -12 -7 -18 -49
-21 -60 -5 -11 19 -7 201 5 229 6 14 17 33 23 43 16 22 0 51 -31 55 -26 4 -28
22 -2 22 23 0 33 33 20 68 -17 44 7 64 55 46z m-654 -39 c0 -8 -9 -15 -20 -15
-11 0 -20 7 -20 15 0 8 9 15 20 15 11 0 20 -7 20 -15z m506 -63 c-12 -11 -16
6 -9 39 l8 34 3 -33 c2 -19 1 -36 -2 -40z m-546 -19 c24 -95 24 -119 1 -135
-12 -8 -20 -24 -19 -34 2 -10 -1 -19 -7 -19 -10 0 -9 72 1 106 3 11 -5 20 -26
29 -23 10 -29 17 -25 31 7 21 46 69 57 69 3 0 12 -21 18 -47z m1980 28 c0 -12
-28 -22 -34 -12 -3 5 -3 11 1 15 9 9 33 7 33 -3z m-1805 -62 c4 -11 16 -19 27
-19 15 0 18 -4 13 -17 -5 -10 -12 -49 -16 -87 -8 -68 -12 -80 -30 -82 -5 -1
-12 -2 -16 -3 -4 0 3 -8 15 -17 27 -18 28 -45 4 -67 -23 -21 -32 -13 -32 30 0
18 -4 33 -10 33 -5 0 -10 -10 -10 -22 0 -28 -23 -95 -37 -109 -7 -7 -14 -5
-23 6 -11 13 -10 18 3 33 11 12 13 22 7 32 -12 19 -13 67 -1 74 4 3 12 46 15
96 4 49 12 92 17 95 5 4 9 19 9 35 0 15 6 30 13 33 15 5 44 -19 52 -44z m1733
17 c3 -12 -1 -17 -10 -14 -7 3 -15 13 -16 22 -3 12 1 17 10 14 7 -3 15 -13 16
-22z m-2005 -36 c-7 -25 -19 -34 -28 -20 -10 16 2 40 19 40 9 0 12 -7 9 -20z
m2282 -36 c0 -10 -8 -20 -17 -22 -18 -3 -26 27 -11 42 12 11 28 0 28 -20z
m-2415 -3 c0 -6 -5 -13 -11 -17 -7 -4 -9 -23 -5 -50 5 -39 3 -45 -24 -64 -27
-19 -31 -20 -36 -5 -4 8 3 39 15 67 11 28 21 57 21 64 0 8 9 14 20 14 11 0 20
-4 20 -9z m606 -53 c17 -15 21 -29 19 -65 -2 -30 -9 -49 -19 -55 -18 -10 -23
-1 -28 47 -2 24 -7 30 -25 28 -27 -3 -27 -3 -8 43 15 37 22 37 61 2z m134 13
c5 -11 10 -46 10 -78 0 -32 5 -75 10 -95 14 -50 0 -78 -39 -78 -47 0 -54 19
-49 127 4 100 17 143 43 143 8 0 19 -9 25 -19z m1010 -6 c0 -14 9 -38 20 -54
25 -33 17 -65 -32 -116 -39 -42 -68 -34 -68 20 0 39 7 43 26 18 12 -17 13 -17
19 0 5 11 1 25 -10 36 -14 17 -15 20 -2 28 20 11 11 63 -12 63 -13 1 -13 3 3
15 31 24 56 19 56 -10z m865 16 c3 -5 1 -13 -5 -16 -15 -9 -43 3 -35 15 8 13
32 13 40 1z m-1295 -127 c0 -8 -12 -16 -27 -19 -16 -4 -36 -11 -47 -16 -28
-16 -36 1 -23 51 20 76 26 79 64 35 18 -21 33 -44 33 -51z m1412 18 c31 -65
45 -127 30 -136 -16 -9 -52 43 -52 74 0 15 -7 33 -15 40 -18 15 -20 80 -2 80
6 -1 24 -27 39 -58z m-2572 -28 c0 -26 -17 -33 -26 -9 -8 20 3 48 16 40 5 -3
10 -17 10 -31z m390 -40 c0 -8 -4 -14 -10 -14 -5 0 -10 9 -10 21 0 11 5 17 10
14 6 -3 10 -13 10 -21z m-540 -9 c0 -8 -4 -15 -9 -15 -13 0 -22 16 -14 24 11
11 23 6 23 -9z m60 0 c0 -8 -7 -15 -15 -15 -8 0 -15 7 -15 15 0 8 7 15 15 15
8 0 15 -7 15 -15z m563 -20 c8 -19 -8 -28 -33 -20 -33 11 -24 26 21 34 4 0 9
-6 12 -14z m1167 -74 c0 -12 -5 -10 -20 9 -27 34 -26 63 0 31 11 -13 20 -31
20 -40z m-1722 31 c2 -7 -3 -12 -12 -12 -9 0 -16 7 -16 16 0 17 22 14 28 -4z
m1032 9 c0 -6 -5 -13 -10 -16 -15 -9 -43 3 -35 15 8 13 45 13 45 1z m1810 -29
c0 -4 -6 -14 -12 -20 -10 -10 -10 -17 -1 -31 10 -16 8 -19 -18 -25 -19 -3 -36
-17 -47 -36 -21 -37 -42 -39 -42 -4 0 16 7 28 18 31 10 2 30 24 46 49 24 39
56 59 56 36z m-1380 -28 c0 -8 -4 -14 -9 -14 -11 0 -22 26 -14 34 9 9 23 -3
23 -20z m-340 -10 c0 -11 -8 -14 -27 -12 -39 4 -42 28 -4 28 21 0 31 -5 31
-16z m-1135 -24 c4 -6 1 -18 -6 -27 -35 -41 -76 -134 -85 -188 -8 -56 -37 -95
-70 -95 -24 0 -24 1 -9 30 9 17 23 30 33 31 10 0 12 3 5 6 -18 7 -16 58 2 73
8 7 15 24 15 39 0 14 9 37 20 51 11 14 20 40 20 58 0 30 2 32 34 32 19 0 38
-5 41 -10z m668 -5 c-3 -14 -29 -18 -61 -10 -21 5 -23 8 -11 16 18 12 75 7 72
-6z m367 -10 c-7 -8 -16 -15 -21 -15 -5 0 -9 7 -9 15 0 9 9 15 21 15 18 0 19
-2 9 -15z m-924 -6 c13 -21 12 -84 -2 -118 -8 -18 -14 -55 -14 -82 0 -83 -45
-100 -102 -37 -31 34 -31 37 5 155 22 73 38 91 84 92 12 1 25 -4 29 -10z
m1050 -16 c3 -10 14 -35 24 -55 13 -23 20 -57 20 -89 0 -29 6 -68 12 -87 11
-30 11 -35 -7 -48 -17 -13 -22 -11 -53 22 -29 31 -33 41 -28 69 7 37 -8 82
-36 105 -15 13 -18 24 -12 58 6 40 8 42 41 42 23 0 35 -5 39 -17z m-972 -28
c-8 -20 -12 -40 -8 -46 9 -15 -5 -61 -16 -54 -6 3 -8 30 -5 58 2 29 4 58 5 65
0 6 9 12 19 12 19 0 19 -2 5 -35z m1072 0 c4 -8 19 -15 35 -15 18 0 32 -7 39
-19 13 -25 13 -68 0 -76 -6 -4 -8 -15 -5 -25 4 -12 -1 -19 -15 -23 -12 -3 -20
-13 -20 -25 0 -12 -4 -23 -9 -26 -14 -9 -22 23 -11 44 7 12 7 26 1 37 -50 100
-60 127 -48 135 18 12 27 10 33 -7z m-1874 -38 c-6 -12 -21 -60 -33 -107 -40
-155 -44 -168 -62 -188 -13 -14 -16 -28 -11 -46 4 -19 2 -26 -8 -26 -18 0 -18
80 0 123 7 16 12 37 12 48 0 32 31 123 46 135 8 6 14 18 14 25 0 17 41 71 48
64 3 -3 0 -15 -6 -28z m912 17 c13 -5 15 -14 10 -40 -4 -21 -2 -40 6 -49 8
-10 10 -29 6 -58 -4 -23 -11 -79 -16 -125 -4 -46 -15 -94 -24 -107 -10 -15
-14 -35 -10 -53 8 -39 -3 -43 -56 -27 -25 7 -57 16 -72 19 -26 6 -27 8 -21 59
8 66 19 97 36 97 8 0 22 9 31 19 16 18 16 20 1 29 -16 8 -16 13 -2 63 48 170
62 192 111 173z m1206 -15 c0 -5 -7 -9 -15 -9 -8 0 -15 -4 -15 -9 0 -13 -30
-22 -45 -13 -19 10 -7 25 30 38 31 11 45 9 45 -7z m-812 -47 c29 -36 30 -42
31 -139 l0 -101 -34 -21 c-19 -11 -35 -26 -35 -33 -1 -32 -24 31 -25 67 -1 29
5 45 20 57 17 15 18 19 5 28 -8 5 -23 10 -32 10 -23 0 -34 60 -17 91 7 13 12
36 11 52 -3 43 38 37 76 -11z m369 8 c7 -14 13 -51 13 -82 0 -45 3 -58 15 -58
29 0 16 -35 -17 -48 -39 -15 -57 -1 -73 56 -9 30 -16 38 -40 42 -24 4 -31 11
-33 34 -5 39 12 54 36 33 21 -19 32 -13 32 18 0 12 3 25 7 29 14 14 48 0 60
-24z m-248 1 c12 -21 5 -31 -20 -31 -22 0 -31 13 -23 34 8 22 31 20 43 -3z
m-301 -25 c6 -13 8 -33 5 -44 -2 -11 3 -31 12 -45 22 -34 18 -162 -5 -162 -11
0 -14 9 -13 32 3 38 -9 48 -38 33 -19 -11 -19 -13 -5 -29 19 -21 21 -92 4
-109 -7 -7 -24 -12 -40 -12 -15 0 -31 -6 -35 -13 -4 -8 -16 -16 -26 -20 -10
-4 -16 -3 -12 3 3 5 0 18 -7 29 -10 17 -9 24 11 45 18 19 21 28 12 44 -8 15
-6 23 9 37 11 10 20 26 20 37 0 12 7 18 24 18 24 0 24 2 19 58 -3 31 -10 63
-16 70 -7 9 -4 18 8 32 25 28 59 26 73 -4z m1009 -26 c7 0 13 -11 13 -26 0
-15 8 -33 17 -40 10 -7 15 -16 10 -20 -4 -4 -15 0 -25 9 -9 10 -27 25 -40 35
-19 14 -22 23 -16 52 7 32 8 33 17 12 6 -12 16 -22 24 -22z m-657 -40 c0 -22
-4 -48 -9 -58 -5 -9 -14 -30 -20 -45 -7 -19 -17 -27 -29 -25 -14 3 -17 15 -18
63 0 56 2 62 30 82 43 29 46 28 46 -17z m512 -42 c7 -18 -2 -39 -13 -32 -12 7
-12 44 0 44 5 0 11 -6 13 -12z m-1432 -67 c0 -23 -16 -36 -25 -21 -9 14 1 40
15 40 5 0 10 -9 10 -19z m1460 -16 c0 -14 -4 -25 -9 -25 -12 0 -23 29 -15 41
10 18 24 9 24 -16z m-2600 -102 c0 -20 -20 -15 -41 10 -18 22 -25 58 -12 70 7
8 52 -61 53 -80z m1002 72 c0 -5 -5 -11 -11 -13 -6 -2 -11 4 -11 13 0 9 5 15
11 13 6 -2 11 -8 11 -13z m-232 -5 c0 -6 -7 -21 -15 -33 -13 -20 -23 -23 -82
-22 -54 0 -68 3 -68 15 0 10 15 17 45 21 25 4 59 11 75 17 40 14 45 14 45 2z
m2053 -37 c5 -27 3 -33 -12 -33 -14 0 -17 7 -15 38 3 48 2 48 13 37 4 -6 11
-25 14 -42z m-1652 -26 c7 -45 14 -53 32 -39 16 14 27 6 27 -18 0 -12 -11 -19
-37 -23 -21 -4 -49 -9 -63 -12 -14 -4 -33 0 -42 7 -17 12 -16 16 5 71 19 50
25 57 47 55 20 -3 26 -10 31 -41z m1794 -15 c-11 -44 -109 -102 -145 -86 -19
8 -19 11 -5 32 13 18 20 20 36 12 15 -9 26 -5 54 17 19 15 38 36 41 46 9 27
26 8 19 -21z m-1919 -9 c-7 -17 -8 -17 -17 0 -12 21 -2 44 13 29 6 -6 8 -19 4
-29z m1559 7 c-5 -8 -11 -8 -17 -2 -6 6 -7 16 -3 22 5 8 11 8 17 2 6 -6 7 -16
3 -22z m-1802 -21 c-7 -7 -20 -8 -30 -5 -17 7 -17 8 1 22 23 17 48 2 29 -17z
m1060 -25 c8 -8 -3 -34 -14 -34 -5 0 -9 9 -9 20 0 19 11 26 23 14z m-188 -49
c0 -5 -10 -11 -22 -13 -16 -2 -23 2 -23 13 0 11 7 15 23 13 12 -2 22 -7 22
-13z m931 -10 c8 -21 -14 -45 -41 -45 -35 0 -38 12 -8 37 33 27 42 28 49 8z
m-121 -16 c5 -14 1 -25 -12 -34 -31 -22 -83 -71 -83 -78 0 -15 18 -5 63 38 27
25 53 45 58 45 17 0 9 -36 -21 -95 -16 -32 -30 -65 -30 -72 0 -8 -7 -16 -15
-19 -8 -4 -15 -15 -15 -25 0 -23 -37 -62 -50 -54 -15 10 -12 45 5 51 22 9 18
23 -10 34 -29 11 -32 35 -8 62 27 30 9 30 -33 1 -69 -48 -88 -56 -141 -60 -43
-3 -55 0 -70 16 -22 26 -39 27 -53 1 -12 -22 -43 -26 -57 -7 -5 6 -7 36 -5 65
3 45 7 52 25 52 24 0 57 27 57 47 0 37 87 -10 123 -67 28 -44 56 -36 39 12 -5
12 -7 31 -4 41 4 21 31 23 38 2 6 -14 10 -13 38 3 17 10 50 24 74 32 24 7 45
17 48 22 10 15 33 8 39 -13z m-1495 -33 c0 -8 -4 -17 -9 -21 -12 -7 -24 12
-16 25 9 15 25 12 25 -4z m238 -3 c5 -10 8 -22 6 -28 -2 -5 4 -20 14 -33 l18
-23 29 26 30 27 -33 -7 -34 -7 17 26 c15 23 24 26 74 26 63 0 112 -22 79 -35
-10 -4 -18 -11 -18 -16 0 -14 28 -11 33 4 3 8 11 6 27 -9 l22 -22 -21 -21
c-24 -24 -61 -28 -61 -6 0 22 -11 19 -45 -12 -19 -18 -38 -26 -55 -25 -17 2
-33 -5 -48 -22 -12 -15 -26 -26 -32 -26 -6 0 -8 -10 -4 -24 4 -16 1 -25 -11
-30 -14 -5 -15 -9 -5 -21 11 -13 6 -23 -34 -60 -55 -54 -72 -56 -78 -12 -3 17
-7 39 -9 47 -3 11 6 16 36 18 49 4 64 17 36 31 -12 7 -21 18 -21 26 0 8 -9 20
-20 27 -26 16 -25 40 1 64 17 15 20 27 16 61 -4 35 -1 45 17 57 29 20 63 20
74 -1z m-145 -43 c21 -25 21 -26 -1 -51 -12 -12 -25 -17 -35 -13 -20 7 -21 16
-5 32 9 9 8 12 -5 12 -9 0 -17 -4 -17 -10 0 -5 -5 -10 -11 -10 -6 0 -17 -7
-25 -15 -9 -8 -22 -15 -30 -15 -8 0 -14 7 -14 15 0 9 9 15 24 15 17 0 27 7 32
23 13 42 58 51 87 17z m906 11 c11 -7 8 -12 -11 -25 -14 -9 -33 -37 -44 -61
-19 -48 -39 -58 -49 -25 -9 29 3 61 37 93 31 29 44 32 67 18z m-1055 -133 c4
-17 -2 -29 -22 -45 -15 -12 -31 -21 -37 -19 -17 5 -17 36 -1 61 21 31 52 32
60 3z m456 13 c0 -12 -40 -41 -56 -41 -9 0 -9 6 -1 25 12 24 57 37 57 16z
m1097 -57 c10 -26 -33 -104 -57 -104 -11 0 -20 4 -20 9 0 18 22 71 30 71 5 0
12 9 15 20 8 24 23 26 32 4z m-608 -18 c18 -17 40 -25 71 -28 40 -3 45 -1 48
20 2 14 10 22 23 22 27 0 31 -31 19 -150 -6 -58 -12 -118 -13 -135 -4 -49 -28
-110 -38 -94 -5 8 -9 26 -9 41 0 15 -4 30 -10 33 -17 11 -11 38 15 65 22 23
24 31 15 54 -5 15 -10 43 -10 62 0 33 -20 48 -35 24 -10 -17 -55 -11 -85 10
-24 17 -29 18 -40 5 -7 -8 -18 -15 -24 -15 -6 0 -18 -4 -26 -10 -12 -7 -10
-13 13 -34 36 -34 35 -56 -3 -56 -20 0 -35 8 -46 25 -9 14 -24 25 -34 25 -10
0 -23 7 -30 15 -11 13 -9 19 9 37 14 12 21 28 18 39 -3 11 -1 16 5 13 5 -3 17
1 27 10 16 15 84 44 105 45 6 1 21 -10 35 -23z m101 4 c0 -5 -7 -10 -15 -10
-8 0 -15 5 -15 10 0 6 7 10 15 10 8 0 15 -4 15 -10z m204 -19 c10 -15 -4 -39
-25 -44 -10 -3 -19 -1 -19 3 0 5 -9 12 -20 15 -11 3 -20 13 -20 21 0 16 75 21
84 5z m154 -19 c4 -25 -23 -41 -40 -24 -7 7 -6 17 2 32 14 26 34 22 38 -8z
m-1324 -42 c-6 -29 -5 -30 30 -30 37 0 37 0 34 -37 -3 -37 -4 -38 -43 -38 -39
0 -40 -1 -42 -35 -1 -19 -2 -41 -2 -47 -1 -7 -6 -13 -11 -13 -6 0 -22 -12 -35
-27 -13 -16 -27 -24 -32 -20 -4 5 5 20 20 33 l28 24 -21 28 c-12 15 -31 27
-43 27 -30 0 -32 21 -3 41 21 13 29 14 41 4 22 -18 18 -3 -5 22 -23 25 -26 48
-6 48 28 0 46 -12 46 -31 0 -10 9 -23 20 -29 18 -10 20 -8 20 20 0 16 -4 30
-9 30 -10 0 -21 47 -13 55 3 3 11 5 18 5 10 0 12 -9 8 -30z m643 -24 c-4 -9
-17 -20 -31 -26 -13 -5 -27 -14 -31 -19 -7 -13 -25 -15 -25 -3 0 4 16 25 36
46 25 26 39 35 46 28 6 -6 8 -18 5 -26z m637 5 c23 -26 17 -56 -12 -56 -12 0
-22 -4 -22 -8 0 -4 0 -11 0 -17 0 -5 10 -10 21 -10 21 0 21 -3 15 -57 -4 -32
-16 -75 -26 -96 -11 -21 -20 -46 -20 -57 0 -10 -16 -31 -36 -46 -32 -25 -35
-31 -29 -61 4 -25 2 -35 -10 -39 -14 -6 -22 -34 -9 -34 3 0 21 12 40 26 38 30
38 30 23 -17 -17 -50 -48 -80 -69 -69 -21 11 -30 4 -30 -27 0 -28 -23 -30 -48
-5 -37 37 1 172 48 172 21 0 28 24 10 35 -16 10 -11 44 10 65 11 11 20 30 20
43 0 12 11 45 25 72 13 28 25 64 25 82 0 17 7 38 15 47 8 8 15 25 15 39 0 41
17 48 44 18z m-1520 -61 l26 -9 -30 -48 c-26 -41 -28 -48 -14 -56 10 -6 14
-17 10 -32 -4 -17 2 -33 21 -55 14 -18 28 -46 30 -62 3 -33 -27 -92 -52 -102
-8 -3 -15 -14 -15 -24 0 -10 -18 -35 -40 -56 -22 -20 -40 -41 -40 -46 0 -5
-11 -17 -25 -26 -24 -16 -27 -15 -45 1 -10 9 -24 14 -29 10 -18 -10 -13 -33 8
-40 19 -6 19 -7 -4 -43 -63 -97 -85 -119 -109 -115 -41 8 -59 72 -29 105 13
14 14 21 5 30 -20 20 -15 40 9 33 19 -6 21 -4 15 19 -6 26 17 76 35 76 12 0
11 -37 -1 -45 -16 -10 -1 -25 26 -25 19 0 24 5 24 24 0 14 -4 36 -9 49 -7 18
-5 32 10 56 10 17 19 38 19 45 0 8 18 30 40 49 22 19 40 39 40 45 0 6 8 17 18
24 9 7 26 30 37 51 18 36 18 40 2 48 -23 13 -22 56 3 97 22 35 26 37 64 22z
m1413 -44 c-4 -9 -11 -16 -17 -16 -11 0 -14 33 -3 44 11 10 26 -11 20 -28z
m-627 -12 c0 -15 -19 -50 -44 -82 -24 -32 -47 -68 -51 -81 -7 -23 -122 -141
-137 -141 -17 0 -7 40 17 69 19 21 24 37 20 54 -5 17 -2 26 9 30 9 4 16 16 16
27 0 16 5 20 18 16 21 -7 62 26 62 49 0 8 4 15 10 15 5 0 22 18 36 40 28 43
44 44 44 4z m273 -40 c3 -3 -3 -23 -14 -42 -26 -50 -24 -78 7 -99 63 -44 94
-82 94 -117 0 -19 5 -38 11 -41 14 -9 -19 -45 -41 -45 -29 0 -52 -45 -44 -85
4 -22 2 -41 -6 -50 -16 -19 -30 -19 -30 0 0 23 -39 18 -72 -10 -45 -38 -88
-31 -88 15 0 40 36 53 65 24 20 -20 33 -11 15 11 -7 8 -22 15 -35 15 -12 0
-35 12 -50 26 -27 25 -28 27 -10 40 10 7 22 15 27 16 5 2 6 11 3 21 -8 18 -45
24 -45 7 0 -5 -7 -10 -15 -10 -16 0 -21 25 -6 34 5 4 28 41 51 84 23 42 50 86
61 98 10 11 19 29 18 40 0 18 -1 17 -16 -3 -8 -13 -22 -23 -29 -23 -8 0 -14
-3 -14 -8 0 -4 -21 -31 -46 -60 -30 -35 -44 -58 -40 -69 8 -20 -30 -58 -59
-59 -11 -1 -26 -3 -34 -5 -8 -2 -16 3 -18 12 -3 10 5 19 19 23 l23 7 -22 16
c-29 19 -29 27 1 66 13 18 29 48 35 68 19 60 36 69 105 56 l59 -11 26 31 c21
25 34 32 67 32 22 1 43 -2 47 -5z m-1213 -124 c0 -10 -31 -22 -38 -16 -2 3 -2
12 1 20 6 15 37 12 37 -4z m2330 1 c5 -11 10 -49 10 -84 0 -36 9 -112 20 -169
17 -83 20 -135 18 -263 l-3 -159 -45 -34 c-25 -19 -52 -45 -60 -58 -8 -13 -24
-27 -35 -30 -30 -10 -95 -79 -95 -102 0 -11 7 -22 15 -26 8 -3 15 -10 15 -16
0 -15 -50 -12 -55 3 -11 26 34 328 53 364 7 12 12 34 12 50 1 15 9 44 19 63
l19 35 12 -26 12 -26 24 24 c27 27 31 43 10 43 -21 0 -30 19 -16 35 9 10 7 20
-5 39 -14 20 -15 32 -6 58 6 18 17 83 26 143 19 138 23 155 35 155 5 0 14 -9
20 -19z m-960 -30 c0 -13 -37 -24 -50 -16 -6 4 -8 11 -5 16 8 12 55 12 55 0z
m-1444 -15 c8 -8 14 -18 14 -22 0 -9 -72 -74 -82 -74 -5 0 -8 -9 -8 -20 0 -30
-29 -70 -51 -70 -11 0 -19 4 -19 9 0 13 49 83 81 115 16 15 29 36 29 46 0 31
14 37 36 16z m324 -139 c0 -17 -38 -52 -47 -44 -9 10 18 57 34 57 7 0 13 -6
13 -13z m-850 -49 c0 -14 -30 -48 -42 -48 -14 0 -9 28 8 44 18 19 34 21 34 4z
m1350 -12 c0 -8 -7 -16 -15 -20 -9 -3 -15 -18 -15 -34 0 -16 -11 -46 -25 -66
-14 -20 -25 -39 -25 -42 0 -13 -44 -100 -54 -106 -23 -16 -39 -9 -31 15 3 12
11 42 16 66 5 25 16 52 24 61 8 9 15 22 15 29 0 6 17 34 37 61 35 48 73 66 73
36z m74 -12 c4 -10 13 -13 26 -9 11 3 20 5 20 3 0 -14 -42 -88 -50 -88 -6 0
-10 -7 -10 -17 0 -37 -34 -92 -63 -103 -17 -5 -32 -8 -34 -6 -6 6 21 82 51
143 14 29 26 59 26 66 0 28 24 36 34 11z m-1052 -20 c-4 -20 -70 -94 -84 -94
-18 0 -6 31 30 74 38 46 60 54 54 20z m2006 -61 c4 -30 -102 -93 -158 -93 -30
0 -38 3 -34 14 3 8 1 23 -5 34 -9 18 -6 23 22 41 18 11 47 19 65 19 18 -1 35
2 39 6 4 4 21 6 38 4 22 -2 31 -9 33 -25z m-818 -33 c15 -28 5 -40 -36 -40
-40 0 -42 6 -12 37 26 28 34 29 48 3z m230 -60 c-19 -13 -30 -13 -30 0 0 6 10
10 23 10 18 0 19 -2 7 -10z m354 -15 c20 -15 20 -15 0 -16 -43 -3 -60 4 -49
20 9 15 26 13 49 -4z m-1716 -81 c-4 -34 -23 -43 -31 -14 -4 17 -10 20 -27 15
-18 -6 -21 -3 -18 11 3 20 56 36 71 23 5 -3 7 -19 5 -35z m2032 -69 c0 -27 -1
-28 -24 -19 -28 11 -17 40 17 43 4 1 7 -10 7 -24z m-80 -9 c0 -17 -38 -28 -46
-14 -7 11 13 28 34 28 6 0 12 -6 12 -14z m270 -35 c0 -30 -45 -56 -71 -40 -11
7 -8 14 16 34 36 29 55 32 55 6z m-132 -31 c12 -12 22 -29 22 -38 0 -9 9 -23
20 -29 16 -11 21 -10 30 7 14 27 47 26 56 -2 5 -16 1 -26 -15 -36 -11 -8 -21
-21 -21 -29 0 -10 -6 -13 -15 -9 -10 4 -19 -3 -25 -18 -12 -33 -24 -38 -56
-26 -19 8 -30 8 -38 0 -11 -11 -46 -13 -70 -4 -12 5 -9 11 17 28 33 23 33 25
21 97 -11 69 29 101 74 59z m-171 -40 c-3 -12 0 -20 8 -20 16 0 27 -27 15 -35
-6 -4 -14 -4 -18 -1 -5 3 -26 -1 -48 -9 -21 -8 -50 -14 -64 -14 -23 0 -23 1
-8 13 10 7 22 25 27 39 8 19 18 27 35 27 14 0 28 5 31 10 11 18 27 11 22 -10z
m-157 -97 c0 -6 -16 -25 -37 -42 -33 -27 -35 -32 -22 -48 8 -10 20 -22 27 -26
19 -13 15 -54 -7 -60 -27 -7 -39 4 -43 38 -2 22 -9 31 -26 33 -17 3 -21 8 -17
22 3 10 1 21 -5 25 -20 12 -10 35 15 35 15 0 28 7 32 18 3 9 15 27 27 40 l20
23 18 -23 c10 -13 18 -28 18 -35z m-352 -24 c32 -30 44 -80 23 -94 -13 -8 -26
16 -22 43 2 17 -3 22 -19 22 -17 0 -21 -4 -15 -17 4 -10 8 -36 9 -59 3 -48
-29 -94 -66 -94 -13 0 -41 -2 -63 -4 -22 -2 -80 -5 -130 -6 -49 -1 -98 -7
-108 -12 -13 -6 -19 -4 -24 8 -13 34 67 70 94 43 15 -15 54 6 47 26 -4 8 -12
15 -19 15 -8 0 -26 5 -42 11 -22 8 -24 12 -13 19 8 6 31 10 50 10 57 0 156 43
182 78 13 17 53 40 73 41 6 1 25 -13 43 -30z m525 -16 c-19 -15 -43 -17 -43
-4 0 5 10 15 23 24 27 18 46 -1 20 -20z m-93 -9 c-22 -25 -51 -37 -63 -25 -7
7 -1 15 24 25 44 20 54 20 39 0z m-2171 -60 c-12 -15 -39 -8 -39 11 0 18 22
25 38 12 9 -7 9 -13 1 -23z m1891 -24 c0 -36 11 -48 45 -52 36 -4 46 -33 15
-43 -27 -8 -110 15 -110 31 0 7 -14 17 -31 23 -37 13 -30 28 17 37 22 4 33 11
30 19 -2 7 1 18 7 24 14 14 27 -4 27 -39z m-1250 15 c0 -18 -50 -45 -82 -45
-22 1 -21 2 10 30 34 32 72 40 72 15z m533 -12 c-13 -2 -33 -2 -45 0 -13 2 -3
4 22 4 25 0 35 -2 23 -4z m951 -31 c-1 -7 -2 -25 -2 -42 -2 -25 -6 -30 -27
-30 -30 0 -30 2 -7 51 16 35 38 48 36 21z m-1857 -28 c5 -16 -48 -24 -72 -12
-19 11 -19 11 0 19 27 11 68 7 72 -7z m-117 -24 c0 -13 -7 -20 -18 -20 -28 0
-34 11 -14 26 24 19 32 17 32 -6z m373 -5 c-1 -5 -8 -14 -17 -20 -18 -11 -42
7 -31 25 8 13 51 9 48 -5z m107 -27 c0 -10 -7 -18 -15 -18 -15 0 -21 40 -8 53
9 9 23 -13 23 -35z m-561 23 c17 -11 7 -41 -13 -41 -19 0 -28 14 -20 34 7 18
13 19 33 7z m2005 -46 c3 -8 15 -14 28 -12 18 1 25 -5 34 -32 6 -19 21 -38 33
-42 20 -8 29 -43 14 -52 -5 -3 -27 -8 -51 -12 -41 -7 -43 -6 -53 24 -8 23 -17
31 -35 31 -20 0 -24 5 -24 33 0 32 23 77 39 77 5 0 11 -7 15 -15z m-429 -15
c14 -12 20 -11 44 3 32 18 41 14 41 -19 0 -33 18 -39 44 -15 18 17 34 21 67
20 24 -1 52 1 61 5 36 16 36 -78 0 -117 -15 -17 -15 -20 6 -35 18 -14 23 -33
32 -116 6 -54 8 -111 4 -125 -8 -30 -8 -29 1 -58 4 -14 2 -23 -4 -23 -6 0 -11
7 -11 15 0 19 -40 20 -66 0 -28 -21 -43 -18 -54 10 -10 27 -11 28 -34 19 -18
-7 -22 -54 -5 -71 8 -8 20 -8 41 -1 41 15 56 -3 62 -74 3 -31 10 -66 16 -78
11 -20 11 -20 36 10 30 35 68 40 84 11 6 -13 17 -17 30 -14 23 6 50 -12 50
-33 0 -19 -49 -18 -56 1 -6 16 -34 21 -34 6 0 -4 9 -20 20 -34 11 -14 20 -32
20 -39 0 -8 3 -18 8 -22 9 -9 10 -176 1 -176 -4 0 -10 7 -13 16 -3 8 -11 12
-17 8 -7 -4 -2 -14 15 -28 23 -18 26 -26 20 -54 -4 -18 -15 -37 -25 -43 -16
-8 -19 -22 -19 -79 l0 -70 40 -25 c22 -14 40 -32 40 -40 0 -8 6 -15 14 -15 18
0 30 -74 16 -100 -7 -12 -16 -17 -27 -13 -11 4 -14 2 -11 -8 3 -8 10 -14 15
-14 22 0 25 -15 9 -49 -9 -19 -19 -55 -22 -81 -5 -30 -13 -49 -25 -56 -11 -5
-19 -16 -19 -24 0 -7 -8 -27 -17 -44 -14 -25 -23 -30 -40 -26 -24 6 -33 -17
-13 -30 6 -3 10 -19 10 -34 0 -16 7 -34 15 -41 8 -7 15 -27 15 -44 0 -18 5
-37 12 -44 13 -13 -5 -85 -29 -113 -7 -8 -13 -30 -13 -47 0 -17 -5 -34 -10
-37 -6 -4 -8 -21 -4 -41 6 -33 5 -34 -26 -34 -17 0 -39 4 -49 9 -22 12 -37 3
-50 -32 -6 -15 -15 -27 -21 -27 -16 0 -12 56 5 70 18 15 11 30 -15 30 -10 0
-23 6 -27 13 -4 7 -20 20 -35 30 -26 16 -28 16 -38 -2 -14 -27 -14 -26 20 -65
19 -21 34 -53 40 -82 8 -44 7 -51 -12 -66 -15 -13 -18 -25 -14 -44 6 -22 4
-25 -16 -22 -21 3 -23 8 -20 47 1 24 7 52 13 62 7 15 5 24 -11 41 -11 12 -22
30 -26 40 -7 22 -32 24 -41 2 -4 -11 1 -22 13 -31 16 -11 17 -16 6 -34 -7 -11
-10 -29 -7 -40 10 -29 -4 -78 -25 -89 -13 -7 -27 -6 -44 1 -33 15 -56 -2 -56
-42 0 -21 -5 -29 -17 -29 -29 0 -41 13 -45 45 -2 25 -12 35 -56 56 -28 15 -55
23 -58 18 -6 -10 2 -43 18 -76 16 -32 -7 -57 -44 -49 -23 5 -28 2 -28 -15 0
-11 7 -22 15 -25 23 -9 18 -21 -12 -27 -34 -6 -53 1 -53 20 0 13 -3 13 -15 3
-16 -14 -45 -7 -45 11 0 6 8 13 19 16 12 3 21 17 25 41 5 33 2 40 -27 64 -37
32 -45 34 -54 12 -3 -9 5 -27 22 -44 29 -30 27 -50 -6 -50 -10 0 -19 -6 -19
-14 0 -8 -5 -18 -11 -21 -5 -4 -81 -9 -167 -12 -206 -7 -212 -7 -218 0 -13 13
9 27 42 27 36 0 43 10 19 30 -21 17 -8 32 23 28 19 -2 27 2 27 12 0 16 -50 19
-92 5 -33 -11 -30 18 5 43 23 18 25 21 10 27 -10 4 -32 2 -50 -4 -25 -9 -35
-8 -46 3 -18 18 -10 30 30 50 49 25 81 21 101 -14 15 -24 25 -30 53 -30 47 0
57 26 21 54 -34 27 -34 36 -1 36 23 0 63 33 64 52 0 4 -18 19 -40 33 -22 14
-52 39 -68 56 -15 17 -46 44 -69 61 -26 17 -43 37 -43 48 0 11 4 20 9 20 5 0
7 17 4 38 -4 30 0 41 19 59 12 11 32 23 43 25 13 2 21 12 23 31 4 33 -16 36
-41 7 -24 -28 -34 -25 -42 11 -5 22 -3 34 6 40 19 11 1 39 -34 57 -28 14 -38
52 -13 52 20 0 96 79 96 100 0 10 7 23 15 30 8 7 15 17 15 22 0 21 45 68 61
63 9 -3 22 2 30 11 12 15 9 20 -21 45 -19 16 -28 29 -21 29 24 0 51 43 45 73
-3 15 -1 27 5 27 15 0 30 68 28 128 -2 53 8 72 47 85 7 3 5 11 -6 23 -16 18
-16 23 0 77 12 47 13 65 4 89 -12 32 -3 69 25 100 12 13 13 23 5 50 -6 18 -14
56 -18 83 -3 28 -10 55 -14 60 -5 6 4 37 20 71 19 41 25 66 19 77 -7 11 -4 17
11 22 22 7 26 25 9 42 -17 17 28 192 62 243 14 21 23 24 63 22 25 -1 46 2 46
7 0 13 58 33 114 38 45 5 48 4 41 -16 -9 -28 12 -27 39 2 20 21 30 23 108 22
57 0 92 -6 103 -15z m1020 -19 c3 -5 1 -13 -5 -16 -15 -9 -43 3 -35 15 8 13
32 13 40 1z m-567 -153 c-5 -32 -28 -35 -28 -4 0 17 5 26 16 26 10 0 14 -7 12
-22z m-1768 -133 c0 -26 -14 -33 -25 -15 -9 14 1 40 15 40 5 0 10 -11 10 -25z
m2378 8 c2 -8 -5 -13 -17 -13 -12 0 -21 6 -21 16 0 18 31 15 38 -3z m-304 -79
c16 -6 23 -44 8 -44 -14 0 -43 36 -35 43 8 8 8 8 27 1z m-184 -19 c0 -23 -42
-82 -67 -96 -12 -7 -23 -21 -25 -33 -2 -11 -12 -22 -23 -24 -11 -2 -28 -11
-37 -20 -25 -22 -24 5 2 38 19 25 19 25 -2 41 -20 16 -20 17 23 37 24 11 56
23 72 27 18 4 27 12 27 25 0 11 7 20 15 20 8 0 15 -7 15 -15z m-1898 -27 c-9
-9 -12 -7 -12 12 0 19 3 21 12 12 9 -9 9 -15 0 -24z m412 -6 c6 -10 -47 -52
-64 -52 -17 0 -11 20 8 27 9 4 21 12 25 20 9 15 23 17 31 5z m-259 -72 c0 -7
-6 -15 -12 -17 -8 -3 -13 4 -13 17 0 13 5 20 13 18 6 -3 12 -11 12 -18z m146
-5 c0 -13 -41 -19 -41 -7 0 11 20 22 33 18 5 -1 8 -6 8 -11z m1329 -31 c0 -9
-32 -33 -44 -34 -5 0 -1 9 10 19 19 20 34 26 34 15z m-1426 -20 c28 -11 19
-59 -15 -88 -35 -29 -40 -31 -57 -14 -18 18 -14 45 8 51 11 3 20 14 20 24 0
31 13 39 44 27z m-50 -240 c20 -8 21 -40 2 -47 -19 -7 -40 18 -32 38 6 17 8
17 30 9z m96 -40 c0 -8 -7 -14 -15 -14 -15 0 -21 21 -9 33 10 9 24 -2 24 -19z
m-180 -211 c0 -10 -5 -25 -10 -33 -7 -11 -10 -7 -10 18 0 17 5 32 10 32 6 0
10 -8 10 -17z m462 -228 c11 -11 -17 -55 -34 -55 -20 0 -23 13 -8 41 10 18 31
25 42 14z m-244 -347 c-7 -19 -38 -22 -38 -4 0 10 9 16 21 16 12 0 19 -5 17
-12z m1488 -99 c8 -14 -11 -33 -25 -25 -11 7 -4 36 9 36 5 0 12 -5 16 -11z
m416 -67 c-2 -20 4 -34 22 -51 14 -14 26 -28 26 -33 0 -5 11 -26 25 -48 14
-22 25 -46 25 -55 0 -18 -21 -20 -38 -3 -10 10 -15 10 -21 -1 -5 -7 -13 -11
-19 -7 -14 8 -22 45 -11 52 16 9 10 31 -10 37 -10 2 -21 17 -25 33 -4 16 -17
39 -28 51 l-20 21 29 16 c41 22 50 20 45 -12z m-1732 -252 c0 -6 16 -25 36
-43 l36 -32 -19 -33 c-10 -17 -24 -32 -31 -32 -20 0 -28 32 -10 44 14 8 13 14
-8 48 -24 38 -32 74 -14 63 6 -3 10 -10 10 -15z m1770 -11 c0 -11 7 -22 16
-26 11 -4 14 -13 10 -29 -4 -13 -2 -44 4 -68 6 -29 6 -54 0 -71 -10 -26 -30
-34 -30 -12 0 6 -5 19 -10 27 -9 12 -15 9 -40 -20 l-30 -35 2 40 c3 37 4 39
38 40 31 0 35 3 38 28 2 15 -4 34 -12 43 -16 15 -23 94 -10 107 11 11 24 -3
24 -24z m-362 -48 c-2 -14 -8 -26 -15 -28 -16 -6 -26 33 -18 65 6 26 7 27 21
7 8 -11 14 -31 12 -44z m-1920 21 c4 -23 -30 -62 -53 -62 -21 0 -19 18 8 57
24 36 40 38 45 5z m32 -87 c0 -21 -24 -45 -44 -45 -11 0 -6 21 10 45 21 32 34
32 34 0z m445 -16 c0 -15 -7 -25 -18 -27 -22 -4 -33 24 -17 43 18 21 35 13 35
-16z m1107 -66 c6 -23 -1 -45 -13 -37 -12 7 -12 54 0 54 5 0 11 -8 13 -17z
m468 -113 c0 -5 -7 -10 -15 -10 -8 0 -15 5 -15 10 0 6 7 10 15 10 8 0 15 -4
15 -10z m1195 -15 c0 -15 -9 -21 -40 -26 -50 -9 -67 5 -26 19 17 6 31 16 31
22 0 6 8 10 18 8 9 -2 17 -12 17 -23z m-797 -8 c20 -16 -12 -37 -55 -37 -25 0
-33 4 -33 18 0 40 50 51 88 19z m-761 -13 c2 -7 -8 -9 -27 -6 -16 2 -27 8 -24
14 8 12 46 6 51 -8z m-169 -15 c3 -17 -23 -33 -39 -23 -5 3 -9 14 -9 25 0 15
6 20 22 17 13 -2 24 -10 26 -19z m1072 -4 c0 -8 -2 -15 -4 -15 -2 0 -11 -3
-20 -6 -10 -4 -16 -1 -16 9 0 14 13 24 33 26 4 1 7 -6 7 -14z m-272 -1 c36
-10 25 -24 -17 -24 -38 0 -57 10 -44 24 8 8 31 8 61 0z m377 -44 c-3 -5 -12
-10 -20 -10 -8 0 -17 5 -20 10 -4 6 5 10 20 10 15 0 24 -4 20 -10z m-155 -20
c0 -5 -9 -10 -21 -10 -11 0 -17 5 -14 10 3 6 13 10 21 10 8 0 14 -4 14 -10z
m1310 -94 c0 -2 -7 -9 -15 -16 -12 -10 -15 -10 -15 4 0 9 7 16 15 16 8 0 15
-2 15 -4z m-71 -90 c-12 -10 -59 -15 -59 -6 0 5 14 10 32 10 17 0 29 -2 27 -4z
m-109 -25 c0 -11 -36 -21 -78 -21 -18 0 -49 -7 -69 -15 -20 -8 -61 -18 -92
-21 -61 -6 -118 -17 -198 -41 -51 -14 -73 -12 -73 8 0 5 8 9 18 9 9 1 35 9 57
20 22 11 51 19 66 20 14 0 30 5 37 12 24 24 332 51 332 29z m-1995 -71 c-3 -5
-15 -10 -25 -10 -10 0 -22 5 -25 10 -4 6 7 10 25 10 18 0 29 -4 25 -10z
m-1250 -20 c3 -6 -5 -14 -18 -19 -14 -6 -28 -15 -32 -20 -3 -6 -24 -11 -46
-11 -55 0 -47 20 17 42 58 20 71 21 79 8z m-995 -30 c0 -5 -7 -10 -15 -10 -8
0 -15 5 -15 10 0 6 7 10 15 10 8 0 15 -4 15 -10z m-70 -30 c0 -5 -9 -10 -21
-10 -11 0 -17 5 -14 10 3 6 13 10 21 10 8 0 14 -4 14 -10z m-70 -29 c0 -10
-40 -22 -52 -15 -18 11 -6 24 22 24 17 0 30 -4 30 -9z"/>
<path d="M3512 8758 c-16 -16 -15 -38 2 -38 8 0 27 11 42 25 l27 25 -30 0
c-16 0 -34 -5 -41 -12z"/>
<path d="M3620 8733 c0 -10 -14 -45 -30 -78 -16 -33 -30 -65 -30 -72 0 -27 23
-23 55 10 28 29 34 43 33 74 0 21 3 48 7 61 6 18 4 22 -14 22 -13 0 -21 -6
-21 -17z"/>
<path d="M3350 8690 c0 -11 6 -20 14 -20 7 0 16 9 19 20 4 15 0 20 -14 20 -12
0 -19 -7 -19 -20z"/>
<path d="M3512 8688 c-7 -7 -12 -18 -12 -24 0 -7 -7 -20 -16 -29 -19 -19 -11
-45 14 -45 12 0 25 14 37 39 24 54 9 91 -23 59z"/>
<path d="M3418 8672 c-37 -22 -36 -42 1 -42 28 0 41 14 41 46 0 18 -9 17 -42
-4z"/>
<path d="M4020 8742 c0 -11 5 -33 11 -51 14 -38 44 -39 44 -1 0 30 32 35 49 7
9 -15 7 -22 -11 -36 -16 -14 -19 -21 -10 -30 6 -6 17 -11 24 -11 15 0 43 -51
43 -80 0 -13 -9 -24 -25 -30 -29 -11 -33 -28 -9 -37 25 -9 44 -63 31 -84 -14
-22 -5 -33 21 -25 14 5 22 19 27 54 5 31 3 48 -4 50 -27 9 -41 33 -30 53 16
31 13 96 -6 137 -10 20 -23 48 -29 62 -10 21 -19 25 -50 23 -21 -2 -47 2 -57
8 -16 8 -19 6 -19 -9z"/>
<path d="M4310 8690 c0 -19 32 -60 46 -60 8 0 14 9 14 20 0 11 -7 20 -15 20
-9 0 -18 7 -21 15 -7 17 -24 20 -24 5z"/>
<path d="M3930 8455 c0 -8 5 -15 10 -15 6 0 10 7 10 15 0 8 -4 15 -10 15 -5 0
-10 -7 -10 -15z"/>
<path d="M4225 8359 c-10 -16 4 -59 19 -59 18 0 39 27 31 40 -11 18 -43 31
-50 19z"/>
<path d="M3916 8326 c-20 -44 -18 -50 7 -31 13 9 17 22 15 42 l-4 28 -18 -39z"/>
<path d="M4735 8250 c-7 -12 2 -30 16 -30 5 0 9 9 9 20 0 21 -15 27 -25 10z"/>
<path d="M4642 8049 c2 -7 10 -15 17 -17 8 -3 12 1 9 9 -2 7 -10 15 -17 17 -8
3 -12 -1 -9 -9z"/>
<path d="M4383 7757 c-31 -8 -43 -16 -43 -29 0 -10 -7 -21 -15 -24 -8 -4 -15
-12 -15 -20 0 -10 13 -14 45 -14 46 0 58 13 33 38 -17 17 9 34 40 27 18 -5 23
-2 20 11 -4 22 -13 23 -65 11z"/>
<path d="M4310 7534 c0 -11 8 -14 27 -12 39 4 42 28 4 28 -21 0 -31 -5 -31
-16z"/>
<path d="M4060 8088 c-14 -6 -34 -14 -45 -19 -11 -4 -33 -10 -49 -11 -38 -4
-44 -21 -12 -36 29 -13 65 -5 89 19 21 23 53 25 61 4 8 -21 39 -19 81 7 45 26
29 41 -31 28 -30 -7 -41 -6 -50 5 -13 17 -11 17 -44 3z"/>
<path d="M4200 7980 c0 -13 5 -20 13 -17 6 2 12 10 12 17 0 7 -6 15 -12 18 -8
2 -13 -5 -13 -18z"/>
<path d="M4134 7946 c-8 -21 -1 -59 12 -63 14 -5 26 39 18 61 -8 20 -23 21
-30 2z"/>
<path d="M4220 7931 c0 -12 6 -21 16 -21 9 0 14 7 12 17 -5 25 -28 28 -28 4z"/>
<path d="M3968 7883 c-21 -5 -24 -33 -5 -33 14 0 37 20 37 32 0 8 -4 9 -32 1z"/>
<path d="M3650 7720 c0 -5 4 -10 9 -10 5 0 18 -3 28 -6 16 -5 16 -4 -1 10 -23
18 -36 20 -36 6z"/>
<path d="M3465 7430 c-9 -15 4 -30 25 -30 24 0 36 20 19 31 -19 12 -36 11 -44
-1z"/>
<path d="M3415 7419 c-4 -6 -4 -13 -1 -16 8 -8 36 5 36 17 0 13 -27 13 -35 -1z"/>
<path d="M4353 7263 c-13 -43 -5 -58 26 -48 25 8 38 50 21 70 -20 24 -34 17
-47 -22z"/>
<path d="M4125 7021 c-6 -5 -21 -11 -34 -13 -38 -5 -39 -28 -2 -28 19 0 34 -6
37 -15 10 -24 34 -18 34 9 0 47 -15 67 -35 47z"/>
<path d="M3912 6867 c-12 -13 -22 -26 -22 -30 0 -4 53 -7 118 -7 65 0 122 -4
128 -9 15 -15 59 23 50 44 -5 13 -10 15 -19 6 -19 -15 -166 -11 -199 6 -34 17
-31 17 -56 -10z"/>
<path d="M4312 6881 c-11 -7 -10 -10 3 -15 28 -10 45 -7 45 9 0 16 -27 20 -48
6z"/>
<path d="M2786 7133 c-12 -12 -6 -43 9 -43 8 0 15 9 15 19 0 21 -13 34 -24 24z"/>
<path d="M4377 6564 c-11 -11 -8 -54 3 -54 6 0 13 6 16 14 7 17 -9 50 -19 40z"/>
<path d="M3621 5621 c-10 -7 -10 -10 -1 -16 6 -4 16 -3 22 3 13 13 -4 23 -21
13z"/>
<path d="M3775 4820 c-4 -6 -3 -16 3 -22 6 -6 12 -6 17 2 4 6 3 16 -3 22 -6 6
-12 6 -17 -2z"/>
<path d="M4030 4646 c0 -33 20 -44 37 -21 20 28 16 45 -12 45 -20 0 -25 -5
-25 -24z"/>
<path d="M4080 2935 c0 -15 4 -24 10 -20 6 3 10 12 10 20 0 8 -4 17 -10 20 -6
4 -10 -5 -10 -20z"/>
<path d="M4249 2816 c-15 -19 -15 -25 -3 -46 7 -14 14 -45 14 -70 0 -30 3 -40
9 -30 12 21 11 102 -1 118 -7 8 -7 17 1 26 7 8 8 16 4 19 -4 3 -15 -5 -24 -17z"/>
<path d="M4075 2500 c-3 -5 -1 -18 4 -27 9 -16 10 -14 11 10 0 28 -5 34 -15
17z"/>
<path d="M4405 2420 c-3 -5 -2 -17 3 -26 8 -14 10 -14 21 0 13 15 8 36 -9 36
-5 0 -12 -4 -15 -10z"/>
<path d="M4284 2387 c-3 -9 -4 -24 0 -32 3 -8 1 -26 -4 -39 -6 -17 -5 -29 5
-42 13 -18 15 -18 31 -2 17 17 17 18 0 37 -12 13 -16 29 -13 43 4 13 2 30 -3
38 -8 12 -10 12 -16 -3z"/>
<path d="M4245 2183 c-4 -12 1 -24 15 -35 18 -15 19 -20 8 -37 -11 -17 -10
-23 4 -38 14 -14 22 -15 43 -5 14 6 25 16 25 21 0 24 -21 61 -35 61 -9 0 -20
11 -25 25 -11 29 -25 32 -35 8z"/>
<path d="M4194 2059 c-4 -7 3 -19 16 -29 19 -14 22 -23 16 -52 -7 -38 0 -68
16 -68 7 0 8 22 3 63 -4 34 -8 70 -9 80 0 19 -31 23 -42 6z"/>
<path d="M4011 1818 c1 -28 30 -81 44 -80 18 2 17 34 -1 68 -21 39 -44 45 -43
12z"/>
<path d="M4152 1793 c2 -17 10 -29 21 -31 15 -3 18 2 15 25 -2 17 -10 29 -21
31 -15 3 -18 -2 -15 -25z"/>
<path d="M4579 10003 c-11 -13 -11 -17 -1 -21 7 -2 19 -10 26 -18 17 -16 36
-19 36 -5 0 5 -4 21 -10 35 -11 30 -31 33 -51 9z"/>
<path d="M3536 9985 c-8 -22 -3 -28 19 -23 14 3 14 5 2 22 -13 18 -14 18 -21
1z"/>
<path d="M5600 8821 c0 -5 -14 -11 -31 -15 -17 -3 -28 -10 -24 -16 10 -16 30
-12 61 15 23 19 25 25 12 25 -10 0 -18 -4 -18 -9z"/>
<path d="M5395 8608 c-54 -31 -83 -89 -50 -102 9 -3 15 -18 15 -40 0 -30 4
-35 31 -41 50 -11 56 8 15 48 -20 20 -36 41 -36 47 0 20 20 50 34 50 7 0 23
11 36 25 l23 25 -24 0 c-13 0 -33 -6 -44 -12z"/>
<path d="M2392 8538 c2 -15 11 -24 26 -26 24 -4 30 16 10 36 -20 20 -40 14
-36 -10z"/>
<path d="M5621 8521 c-6 -11 -11 -29 -11 -41 0 -16 5 -21 23 -18 18 2 22 9 22
37 0 39 -19 52 -34 22z"/>
<path d="M2390 8465 c0 -8 7 -15 15 -15 8 0 15 7 15 15 0 8 -7 15 -15 15 -8 0
-15 -7 -15 -15z"/>
<path d="M2277 8422 c-17 -19 -14 -32 9 -32 17 0 45 30 39 41 -10 14 -31 11
-48 -9z"/>
<path d="M2210 8371 c0 -19 13 -41 24 -41 22 0 37 17 30 33 -6 18 -54 24 -54
8z"/>
<path d="M5572 8291 c-10 -6 -7 -10 13 -15 30 -8 41 -3 30 13 -7 13 -25 14
-43 2z"/>
<path d="M5497 8284 c-11 -11 5 -34 23 -34 18 0 34 23 23 34 -4 3 -14 6 -23 6
-9 0 -19 -3 -23 -6z"/>
<path d="M2037 8246 c-7 -17 11 -36 35 -36 23 0 23 19 1 36 -23 17 -30 17 -36
0z"/>
<path d="M1744 8229 c-9 -15 12 -33 30 -26 9 4 16 13 16 22 0 17 -35 21 -46 4z"/>
<path d="M1980 7700 c0 -13 5 -20 13 -17 6 2 12 10 12 17 0 7 -6 15 -12 18 -8
2 -13 -5 -13 -18z"/>
<path d="M4660 7516 c0 -47 30 -45 45 2 5 19 3 22 -19 22 -21 0 -26 -5 -26
-24z"/>
<path d="M6656 7405 c-16 -25 -16 -25 12 -25 31 0 75 27 67 41 -13 19 -62 9
-79 -16z"/>
<path d="M7326 7375 c-20 -31 -20 -35 3 -35 26 0 66 34 57 48 -12 20 -43 13
-60 -13z"/>
<path d="M1946 7270 c-68 -46 -137 -61 -164 -37 -15 14 -47 21 -79 18 -29 -2
-10 -29 40 -54 69 -36 129 -37 161 -2 13 14 28 25 35 25 13 0 91 71 91 83 0
15 -27 5 -84 -33z"/>
<path d="M1844 7276 c-7 -19 3 -36 22 -36 10 0 14 8 12 22 -4 26 -26 36 -34
14z"/>
<path d="M6200 6935 c0 -8 7 -15 15 -15 8 0 15 7 15 15 0 8 -7 15 -15 15 -8 0
-15 -7 -15 -15z"/>
<path d="M6717 6913 c-12 -11 -8 -23 8 -23 8 0 15 7 15 15 0 16 -12 20 -23 8z"/>
<path d="M6170 6840 c0 -13 5 -20 13 -17 6 2 12 10 12 17 0 7 -6 15 -12 18 -8
2 -13 -5 -13 -18z"/>
<path d="M2953 6833 c-17 -6 -16 -28 2 -63 20 -38 32 -38 40 0 12 53 -5 78
-42 63z"/>
<path d="M6031 6802 c-13 -25 0 -42 27 -35 29 7 31 53 2 53 -10 0 -24 -8 -29
-18z"/>
<path d="M2784 6789 c-3 -6 -2 -15 3 -20 13 -13 43 -1 43 17 0 16 -36 19 -46
3z"/>
<path d="M6278 6749 c-26 -15 -23 -41 5 -37 14 2 23 11 25 26 4 24 -4 27 -30
11z"/>
<path d="M2862 6708 c-7 -7 -12 -20 -12 -30 0 -15 3 -16 25 -6 14 6 25 19 25
30 0 21 -20 24 -38 6z"/>
<path d="M6128 6709 c-17 -9 -26 -39 -12 -39 16 0 44 23 44 35 0 17 -8 18 -32
4z"/>
<path d="M2752 6689 c2 -6 8 -10 13 -10 5 0 11 4 13 10 2 6 -4 11 -13 11 -9 0
-15 -5 -13 -11z"/>
<path d="M2655 6672 c-16 -9 -30 -24 -30 -32 0 -8 -9 -15 -19 -15 -29 0 -30
-20 -1 -33 14 -6 25 -19 25 -28 0 -14 2 -14 16 -3 12 10 14 23 10 50 -6 37 -5
38 26 41 21 2 33 8 33 18 0 21 -25 22 -60 2z"/>
<path d="M6305 6650 c-10 -11 -15 -23 -11 -27 9 -9 58 18 64 35 6 20 -33 14
-53 -8z"/>
<path d="M6077 6653 c-14 -13 -6 -33 13 -33 13 0 20 7 20 20 0 19 -20 27 -33
13z"/>
<path d="M2692 6578 c3 -7 15 -15 27 -16 16 -3 22 1 19 10 -3 7 -15 15 -27 16
-16 3 -22 -1 -19 -10z"/>
<path d="M2683 6523 c-7 -2 -13 -9 -13 -15 0 -12 41 -6 41 7 1 12 -11 15 -28
8z"/>
<path d="M5370 6253 c0 -12 4 -24 9 -27 4 -3 11 -47 14 -99 6 -102 24 -180 41
-174 14 5 13 33 -3 117 -7 36 -17 88 -22 116 -5 28 -16 60 -24 70 -14 18 -14
18 -15 -3z"/>
<path d="M5427 5929 c-23 -80 -24 -100 -8 -108 25 -12 104 -8 108 7 3 8 -5 12
-24 12 -41 0 -56 14 -59 56 -4 40 -11 55 -17 33z"/>
<path d="M2158 5304 c-12 -11 -10 -72 2 -79 6 -3 13 1 16 10 8 20 -8 80 -18
69z"/>
<path d="M2372 5237 c-19 -11 -21 -15 -9 -31 13 -17 14 -17 30 8 26 39 21 46
-21 23z"/>
<path d="M2131 5197 c-7 -10 -8 -22 -2 -38 9 -23 9 -23 17 -4 4 11 8 22 10 25
1 3 -1 12 -5 18 -6 10 -10 10 -20 -1z"/>
<path d="M2280 5040 c0 -19 3 -21 12 -12 9 9 9 15 0 24 -9 9 -12 7 -12 -12z"/>
<path d="M2233 4945 c-12 -30 -17 -55 -12 -55 5 0 9 4 9 9 0 5 7 16 15 25 18
18 32 76 18 76 -6 0 -19 -25 -30 -55z"/>
<path d="M1435 4540 c-15 -7 -10 -9 23 -9 26 -1 41 3 37 9 -7 12 -32 12 -60 0z"/>
<path d="M1604 4458 c-4 -6 5 -21 22 -35 51 -40 101 -23 74 26 -8 16 -20 21
-50 21 -21 0 -42 -5 -46 -12z"/>
<path d="M5306 4432 c-4 -13 -5 -26 -2 -29 10 -11 18 4 14 29 l-4 23 -8 -23z"/>
<path d="M5370 4428 c0 -16 5 -28 10 -28 13 0 13 20 0 40 -8 12 -10 9 -10 -12z"/>
<path d="M5325 4369 c-5 -6 4 -21 21 -36 l28 -24 18 23 c10 13 16 28 14 33 -4
14 -73 18 -81 4z"/>
<path d="M1996 3852 c-2 -4 -1 -14 4 -22 7 -11 11 -11 24 -1 9 7 13 17 10 22
-7 11 -31 12 -38 1z"/>
<path d="M2184 3755 c22 -19 43 -35 48 -35 15 0 5 32 -12 40 -8 4 -25 12 -37
18 -40 21 -39 12 1 -23z"/>
<path d="M2580 3150 c0 -19 3 -21 12 -12 9 9 9 15 0 24 -9 9 -12 7 -12 -12z"/>
<path d="M5623 2923 c-77 -7 -47 -33 38 -33 46 0 50 -2 44 -20 -9 -29 22 -26
51 5 15 16 34 25 54 25 25 0 33 -6 44 -32 15 -34 10 -108 -7 -120 -13 -8 -90
-3 -106 7 -9 5 -9 10 -1 20 22 27 -8 45 -40 25 -13 -8 -12 -11 5 -24 28 -20
12 -31 -48 -31 -49 0 -52 -2 -52 -25 0 -22 5 -25 38 -28 47 -4 60 -32 51 -103
-6 -46 -8 -49 -36 -49 -19 0 -28 -4 -25 -12 2 -7 11 -13 20 -12 10 0 57 1 106
2 67 2 94 6 106 18 34 34 -23 54 -94 33 -8 -2 -24 11 -37 30 -26 37 -24 44 24
101 26 30 32 33 46 21 9 -7 16 -22 16 -32 0 -20 4 -24 41 -33 35 -8 45 16 22
54 -15 26 -15 29 0 45 26 25 23 129 -3 155 -18 18 -32 20 -117 18 -54 -1 -117
-3 -140 -5z"/>
<path d="M5545 2868 c-3 -7 -6 -42 -8 -78 -2 -52 1 -65 13 -65 12 0 15 15 15
73 1 68 -9 101 -20 70z"/>
<path d="M5540 2635 c-6 -19 -8 -45 -5 -57 9 -28 34 -58 48 -58 6 0 3 6 -7 13
-15 11 -16 17 -6 33 9 15 9 29 1 62 -7 23 -13 42 -16 42 -2 0 -9 -16 -15 -35z"/>
<path d="M2527 2155 c-20 -28 -15 -45 13 -45 20 0 40 27 40 54 0 24 -33 18
-53 -9z"/>
<path d="M4990 2076 c0 -7 6 -19 14 -25 11 -9 15 -8 20 5 3 9 4 20 0 25 -8 14
-34 11 -34 -5z"/>
<path d="M5395 1716 c-91 -34 -84 -60 14 -50 65 7 84 22 61 49 -14 17 -32 17
-75 1z"/>
<path d="M5513 1714 c-3 -8 -1 -20 4 -25 14 -14 43 0 43 22 0 24 -38 26 -47 3z"/>
<path d="M5671 1656 c-20 -24 -9 -51 19 -51 21 0 25 5 25 30 0 34 -24 45 -44
21z"/>
<path d="M2199 1605 c-13 -22 -22 -47 -21 -57 4 -22 -32 -58 -57 -58 -11 0
-22 -4 -25 -8 -7 -12 5 -52 16 -52 13 0 97 92 98 106 0 15 31 40 58 47 17 4
22 1 22 -13 0 -10 -5 -20 -12 -22 -17 -6 0 -28 23 -28 11 0 23 10 29 24 5 13
14 27 19 31 16 9 13 25 -4 25 -7 0 -19 8 -24 18 -10 15 -12 15 -23 2 -15 -19
-48 -14 -64 8 -10 14 -15 11 -35 -23z"/>
<path d="M5400 1613 c0 -13 5 -23 10 -23 13 0 13 11 0 30 -8 12 -10 11 -10 -7z"/>
<path d="M2421 1601 c-10 -6 -10 -10 -1 -16 13 -8 24 -1 19 14 -3 6 -10 7 -18
2z"/>
<path d="M5820 1545 c-14 -8 -37 -14 -51 -15 -30 0 -79 -35 -79 -56 0 -16 21
-19 36 -5 5 5 30 12 55 16 45 7 46 6 52 -24 8 -40 32 -40 52 0 19 36 32 34 56
-11 10 -18 24 -37 31 -42 19 -11 66 -10 74 3 9 14 -80 104 -129 129 -44 23
-63 24 -97 5z"/>
<path d="M6140 1521 c0 -22 16 -36 24 -22 8 12 -3 41 -15 41 -5 0 -9 -9 -9
-19z"/>
<path d="M5312 1518 c-21 -21 -14 -47 14 -54 31 -8 47 6 42 37 -3 27 -36 37
-56 17z"/>
<path d="M6500 1481 c0 -18 21 -21 75 -12 28 5 39 9 25 10 -14 1 -42 4 -62 7
-26 5 -38 3 -38 -5z"/>
<path d="M6345 1471 c11 -4 43 -5 70 -1 49 7 49 7 -20 8 -44 0 -62 -2 -50 -7z"/>
<path d="M1705 1299 c-10 -15 3 -25 16 -12 7 7 7 13 1 17 -6 3 -14 1 -17 -5z"/>
<path d="M6775 1150 c-3 -5 3 -10 15 -10 12 0 18 5 15 10 -3 6 -10 10 -15 10
-5 0 -12 -4 -15 -10z"/>
<path d="M1050 1050 c0 -5 14 -7 33 -3 45 8 47 13 4 13 -20 0 -37 -4 -37 -10z"/>
<path d="M851 1021 c-24 -9 -46 -22 -49 -29 -5 -17 43 -15 98 4 25 9 52 18 60
21 12 4 11 7 -5 13 -29 12 -54 10 -104 -9z"/>
<path d="M6706 1031 c-8 -13 14 -19 52 -14 50 8 49 23 -2 23 -25 0 -47 -4 -50
-9z"/>
<path d="M1104 929 c-8 -14 11 -33 25 -25 11 7 4 36 -9 36 -5 0 -12 -5 -16
-11z"/>
<path d="M1015 911 c-7 -12 12 -24 25 -16 11 7 4 25 -10 25 -5 0 -11 -4 -15
-9z"/>
<path d="M821 856 l-24 -13 26 -7 c31 -7 57 1 57 20 0 17 -27 17 -59 0z"/>
<path d="M2631 816 c-6 -7 -25 -16 -42 -20 -17 -3 -28 -10 -24 -16 9 -15 35
-12 80 10 22 11 46 19 53 20 7 0 10 5 7 10 -9 15 -61 12 -74 -4z"/>
<path d="M653 583 c-7 -3 -13 -9 -13 -14 0 -12 37 -12 44 0 7 11 -14 20 -31
14z"/>
</g>
</svg>
