<?xml version="1.0" standalone="no"?>
<!DOCTYPE svg PUBLIC "-//W3C//DTD SVG 20010904//EN"
 "http://www.w3.org/TR/2001/REC-SVG-20010904/DTD/svg10.dtd">
<svg version="1.0" xmlns="http://www.w3.org/2000/svg"
 width="200.000000pt" height="80.000000pt" viewBox="0 0 200.000000 80.000000"
 preserveAspectRatio="xMidYMid meet">
<metadata>
Created by potrace 1.10, written by Peter Selinger 2001-2011
</metadata>
<g transform="translate(0.000000,80.000000) scale(0.100000,-0.100000)"
fill="#000000" stroke="none">
<path d="M871 789 c-18 -6 -31 -12 -29 -14 2 -3 20 0 39 5 50 15 229 -2 229
-21 0 -6 -9 -7 -21 -4 -28 9 -180 8 -222 -1 -95 -20 -209 -111 -253 -200 -15
-30 -32 -58 -38 -61 -6 -4 81 -37 194 -74 178 -58 201 -68 175 -75 -22 -5 -58
2 -145 31 -117 39 -271 96 -325 120 -16 8 -61 26 -100 41 -38 14 -92 37 -120
49 -27 12 -83 37 -123 56 -40 18 -81 42 -90 54 -9 11 -23 25 -31 29 -24 15 20
-51 48 -72 27 -19 285 -135 429 -192 l82 -32 0 -63 c0 -34 5 -77 11 -95 10
-28 9 -34 -5 -42 -12 -7 -14 -13 -6 -29 7 -13 7 -19 0 -19 -5 0 -15 20 -21 45
-6 25 -15 45 -20 45 -13 0 -11 -9 13 -81 15 -41 24 -57 26 -43 2 13 16 25 40
34 33 12 37 11 47 -6 21 -40 122 -130 167 -152 51 -23 89 -30 50 -9 -12 7 -19
17 -15 22 4 4 3 5 -4 1 -6 -3 -29 5 -50 19 -40 28 -58 44 -33 30 9 -5 12 -5 7
1 -5 5 -12 9 -15 9 -15 0 -32 17 -27 26 3 5 -1 6 -10 3 -12 -5 -16 -2 -13 12
2 12 -5 23 -19 29 -28 12 -29 21 -5 28 9 2 83 23 165 46 l147 41 78 -24 c42
-14 114 -33 160 -45 107 -26 110 -28 78 -57 -14 -14 -28 -23 -30 -22 -3 2 -12
-6 -21 -17 -9 -11 -13 -13 -9 -5 4 8 -5 3 -21 -12 -29 -29 -50 -35 -58 -18 -3
6 -4 5 -3 -2 6 -32 -200 -63 -279 -42 -20 5 -20 5 -1 -10 24 -19 114 -21 202
-5 82 15 176 63 225 116 35 38 44 43 69 38 19 -4 30 -14 32 -28 3 -15 11 1 26
47 25 78 25 76 13 76 -5 0 -14 -20 -20 -45 -6 -25 -16 -45 -21 -45 -6 0 -6 9
0 25 7 19 6 25 -5 25 -23 0 -26 16 -10 55 9 20 16 60 16 90 l1 54 107 42 c160
64 352 148 388 171 34 20 79 75 70 84 -3 3 -17 -8 -32 -24 -14 -16 -59 -44
-98 -62 -40 -18 -96 -44 -126 -57 -30 -14 -84 -36 -120 -50 -36 -13 -85 -33
-107 -43 -53 -24 -121 -49 -314 -115 -85 -29 -162 -55 -170 -58 -21 -9 -389
-107 -401 -107 -5 0 -9 7 -9 15 0 15 11 19 205 70 195 51 575 178 566 189 -4
6 -13 31 -20 56 -29 99 -108 188 -207 231 -56 23 -225 34 -283 18z m287 -49
c14 -14 22 -16 22 -8 1 7 9 3 19 -9 11 -13 24 -23 30 -23 5 0 15 -8 20 -17 6
-10 11 -14 11 -8 0 5 7 -1 16 -13 8 -12 12 -27 8 -34 -4 -6 -3 -8 3 -5 14 9
46 -41 48 -75 1 -14 7 -34 15 -42 7 -9 11 -18 8 -21 -2 -2 -80 -29 -172 -59
-157 -52 -170 -54 -182 -38 -7 9 -14 20 -14 25 0 13 18 7 24 -8 3 -8 10 -15
16 -15 6 0 2 10 -9 21 l-20 21 -31 -24 -32 -25 -62 19 c-33 10 -63 23 -64 29
-2 5 -8 6 -13 3 -5 -3 -52 9 -104 27 -77 27 -92 35 -83 46 9 11 13 12 19 1 5
-7 9 -8 9 -3 0 6 -5 16 -12 23 -9 9 -7 13 5 18 9 3 17 14 17 25 0 10 8 23 18
28 9 6 13 11 9 11 -11 0 22 32 60 58 35 25 47 28 38 10 -4 -7 3 -1 15 15 12
15 26 25 31 21 5 -3 19 2 31 10 17 12 25 13 37 3 12 -9 13 -9 7 1 -7 11 12 18
39 12 5 -1 28 -1 50 0 22 1 61 1 88 1 26 0 47 5 47 10 0 15 15 10 38 -11z
m-554 -390 c2 -36 5 -70 7 -76 2 -7 0 -13 -6 -14 -12 -3 -24 55 -24 118 -1 70
20 45 23 -28z m802 23 c-6 -42 -24 -113 -29 -113 -8 0 -231 61 -234 63 -2 3
179 66 216 75 11 3 12 -8 8 -59 -4 -41 -3 -59 3 -53 6 6 12 37 15 70 2 32 4
60 5 62 0 1 5 2 11 2 8 0 9 -15 5 -47z m-664 -10 c59 -20 106 -39 104 -41 -8
-7 -199 -52 -204 -48 -2 3 -4 17 -4 30 0 14 -4 23 -9 20 -13 -8 -11 10 4 25 7
8 7 11 1 8 -7 -4 -11 3 -11 18 0 14 2 25 6 25 3 0 54 -17 113 -37z m241 20
c-4 -10 -2 -14 4 -10 5 3 10 0 10 -8 0 -11 -5 -10 -25 3 -25 16 -23 19 15 31
1 1 -1 -6 -4 -16z m282 -111 c83 -22 111 -34 113 -47 5 -22 -4 -20 -192 31
-101 27 -134 40 -120 46 26 11 70 4 199 -30z"/>
<path d="M1900 685 c-14 -8 -20 -14 -14 -15 5 0 19 7 30 15 24 18 16 19 -16 0z"/>
<path d="M135 659 c48 -27 401 -169 418 -169 15 1 -36 24 -133 60 -41 16 -124
49 -185 75 -134 57 -152 63 -100 34z"/>
<path d="M1821 654 c-18 -8 -31 -17 -28 -20 3 -3 22 4 44 15 44 23 34 26 -16
5z"/>
<path d="M1730 614 c-19 -9 -91 -38 -160 -64 -69 -26 -132 -51 -141 -55 -12
-5 -18 2 -23 26 -3 18 -9 30 -12 26 -9 -8 6 -67 17 -67 12 0 369 141 369 146
0 7 -14 4 -50 -12z"/>
<path d="M1025 230 c3 -5 8 -10 11 -10 2 0 4 5 4 10 0 6 -5 10 -11 10 -5 0 -7
-4 -4 -10z"/>
<path d="M469 216 c-2 -3 -76 -21 -164 -40 -235 -52 -258 -57 -280 -60 -11 -2
-20 -8 -19 -14 6 -66 4 -66 170 -32 188 39 347 79 357 89 5 5 4 12 -2 15 -6 4
-11 16 -11 27 0 13 -7 19 -23 19 -13 0 -26 -2 -28 -4z m14 -30 c6 -16 -2 -28
-14 -20 -12 7 -11 34 0 34 5 0 11 -6 14 -14z m-39 -12 c4 -9 4 -19 2 -21 -8
-8 -26 8 -26 23 0 19 16 18 24 -2z m-36 -18 c3 -12 -1 -17 -10 -14 -7 3 -15
13 -16 22 -3 12 1 17 10 14 7 -3 15 -13 16 -22z m-41 -1 c8 -22 -6 -33 -17
-15 -13 20 -12 30 0 30 6 0 13 -7 17 -15z m-40 -10 c8 -22 -6 -33 -17 -15 -13
20 -12 30 0 30 6 0 13 -7 17 -15z m-37 -21 c0 -8 -4 -14 -9 -14 -11 0 -22 26
-14 34 9 9 23 -3 23 -20z m-40 -5 c0 -11 -4 -17 -10 -14 -5 3 -10 13 -10 21 0
8 5 14 10 14 6 0 10 -9 10 -21z m-80 -15 c0 -8 -4 -14 -10 -14 -5 0 -10 9 -10
21 0 11 5 17 10 14 6 -3 10 -13 10 -21z m40 5 c0 -11 -4 -17 -10 -14 -5 3 -10
13 -10 21 0 8 5 14 10 14 6 0 10 -9 10 -21z m-80 -15 c0 -8 -4 -14 -10 -14 -5
0 -10 9 -10 21 0 11 5 17 10 14 6 -3 10 -13 10 -21z m-40 -5 c0 -11 -4 -17
-10 -14 -5 3 -10 13 -10 21 0 8 5 14 10 14 6 0 10 -9 10 -21z m-40 -10 c0 -11
-4 -17 -10 -14 -13 8 -13 35 0 35 6 0 10 -9 10 -21z"/>
<path d="M1470 202 c0 -10 -5 -23 -12 -30 -9 -9 -8 -13 3 -17 36 -13 267 -68
378 -90 117 -23 125 -24 137 -7 8 9 13 26 11 36 -2 16 -15 22 -73 32 -40 6
-87 16 -105 22 -19 5 -61 15 -94 22 -33 7 -93 21 -132 31 -92 24 -113 24 -113
1z m60 -16 c0 -15 -18 -31 -26 -23 -7 7 7 37 17 37 5 0 9 -6 9 -14z m40 -10
c0 -15 -18 -31 -26 -23 -7 7 7 37 17 37 5 0 9 -6 9 -14z m40 -10 c0 -16 -18
-31 -27 -22 -8 8 5 36 17 36 5 0 10 -6 10 -14z m40 -10 c0 -16 -18 -31 -27
-22 -8 8 5 36 17 36 5 0 10 -6 10 -14z m40 -3 c0 -5 -4 -15 -10 -23 -11 -18
-25 -7 -17 15 6 15 27 21 27 8z m33 -28 c-3 -8 -9 -15 -14 -15 -10 0 -12 24
-3 33 11 11 24 -3 17 -18z m37 1 c0 -8 -4 -18 -10 -21 -5 -3 -10 3 -10 14 0
12 5 21 10 21 6 0 10 -6 10 -14z m40 -10 c0 -8 -4 -18 -10 -21 -5 -3 -10 3
-10 14 0 12 5 21 10 21 6 0 10 -6 10 -14z m36 -23 c-11 -11 -19 6 -11 24 8 17
8 17 12 0 3 -10 2 -21 -1 -24z m40 -10 c-11 -11 -19 6 -11 24 8 17 8 17 12 0
3 -10 2 -21 -1 -24z m44 13 c0 -8 -4 -18 -10 -21 -5 -3 -10 3 -10 14 0 12 5
21 10 21 6 0 10 -6 10 -14z m40 -10 c0 -8 -4 -18 -10 -21 -5 -3 -10 3 -10 14
0 12 5 21 10 21 6 0 10 -6 10 -14z"/>
</g>
</svg>
