<svg xmlns="http://www.w3.org/2000/svg" version="1.1" xmlns:xlink="http://www.w3.org/1999/xlink" xmlns:svgjs="http://svgjs.com/svgjs" width="1440" height="560" preserveAspectRatio="none" viewBox="0 0 1440 560"><g mask="url(&quot;#SvgjsMask1048&quot;)" fill="none"><rect width="1440" height="560" x="0" y="0" fill="rgba(33, 37, 41, 1)"></rect><path d="M22 281L21 596" stroke-width="6" stroke="url(#SvgjsLinearGradient1049)" stroke-linecap="round" class="Down"></path><path d="M97 350L96 509" stroke-width="10" stroke="url(#SvgjsLinearGradient1050)" stroke-linecap="round" class="Up"></path><path d="M1183 265L1182 -75" stroke-width="6" stroke="url(#SvgjsLinearGradient1050)" stroke-linecap="round" class="Up"></path><path d="M1287 493L1286 96" stroke-width="10" stroke="url(#SvgjsLinearGradient1050)" stroke-linecap="round" class="Up"></path><path d="M202 546L201 376" stroke-width="6" stroke="url(#SvgjsLinearGradient1049)" stroke-linecap="round" class="Down"></path><path d="M533 44L532 375" stroke-width="10" stroke="url(#SvgjsLinearGradient1049)" stroke-linecap="round" class="Down"></path><path d="M341 410L340 769" stroke-width="8" stroke="url(#SvgjsLinearGradient1049)" stroke-linecap="round" class="Down"></path><path d="M116 37L115 -113" stroke-width="6" stroke="url(#SvgjsLinearGradient1049)" stroke-linecap="round" class="Down"></path><path d="M421 125L420 -123" stroke-width="6" stroke="url(#SvgjsLinearGradient1049)" stroke-linecap="round" class="Down"></path><path d="M115 94L114 -113" stroke-width="6" stroke="url(#SvgjsLinearGradient1050)" stroke-linecap="round" class="Up"></path><path d="M183 454L182 654" stroke-width="8" stroke="url(#SvgjsLinearGradient1050)" stroke-linecap="round" class="Up"></path><path d="M1281 348L1280 722" stroke-width="6" stroke="url(#SvgjsLinearGradient1050)" stroke-linecap="round" class="Up"></path><path d="M1271 186L1270 521" stroke-width="8" stroke="url(#SvgjsLinearGradient1049)" stroke-linecap="round" class="Down"></path><path d="M379 297L378 446" stroke-width="6" stroke="url(#SvgjsLinearGradient1049)" stroke-linecap="round" class="Down"></path><path d="M858 155L857 -136" stroke-width="8" stroke="url(#SvgjsLinearGradient1049)" stroke-linecap="round" class="Down"></path><path d="M219 278L218 586" stroke-width="10" stroke="url(#SvgjsLinearGradient1050)" stroke-linecap="round" class="Up"></path><path d="M1384 549L1383 779" stroke-width="6" stroke="url(#SvgjsLinearGradient1050)" stroke-linecap="round" class="Up"></path><path d="M1220 179L1219 32" stroke-width="6" stroke="url(#SvgjsLinearGradient1050)" stroke-linecap="round" class="Up"></path><path d="M378 296L377 672" stroke-width="10" stroke="url(#SvgjsLinearGradient1050)" stroke-linecap="round" class="Up"></path><path d="M508 265L507 423" stroke-width="10" stroke="url(#SvgjsLinearGradient1050)" stroke-linecap="round" class="Up"></path><path d="M17 507L16 891" stroke-width="8" stroke="url(#SvgjsLinearGradient1050)" stroke-linecap="round" class="Up"></path><path d="M1109 217L1108 -43" stroke-width="10" stroke="url(#SvgjsLinearGradient1049)" stroke-linecap="round" class="Down"></path><path d="M1362 21L1361 -278" stroke-width="6" stroke="url(#SvgjsLinearGradient1050)" stroke-linecap="round" class="Up"></path><path d="M799 500L798 141" stroke-width="10" stroke="url(#SvgjsLinearGradient1049)" stroke-linecap="round" class="Down"></path><path d="M737 460L736 612" stroke-width="6" stroke="url(#SvgjsLinearGradient1050)" stroke-linecap="round" class="Up"></path><path d="M1193 230L1192 399" stroke-width="6" stroke="url(#SvgjsLinearGradient1049)" stroke-linecap="round" class="Down"></path><path d="M1104 306L1103 1" stroke-width="8" stroke="url(#SvgjsLinearGradient1050)" stroke-linecap="round" class="Up"></path><path d="M607 275L606 118" stroke-width="8" stroke="url(#SvgjsLinearGradient1049)" stroke-linecap="round" class="Down"></path><path d="M1351 378L1350 182" stroke-width="10" stroke="url(#SvgjsLinearGradient1050)" stroke-linecap="round" class="Up"></path><path d="M1242 478L1241 851" stroke-width="6" stroke="url(#SvgjsLinearGradient1050)" stroke-linecap="round" class="Up"></path><path d="M290 155L289 -45" stroke-width="8" stroke="url(#SvgjsLinearGradient1050)" stroke-linecap="round" class="Up"></path><path d="M72 87L71 235" stroke-width="6" stroke="url(#SvgjsLinearGradient1050)" stroke-linecap="round" class="Up"></path><path d="M309 283L308 571" stroke-width="10" stroke="url(#SvgjsLinearGradient1049)" stroke-linecap="round" class="Down"></path><path d="M934 185L933 -165" stroke-width="8" stroke="url(#SvgjsLinearGradient1050)" stroke-linecap="round" class="Up"></path><path d="M312 255L311 55" stroke-width="8" stroke="url(#SvgjsLinearGradient1050)" stroke-linecap="round" class="Up"></path><path d="M978 370L977 112" stroke-width="8" stroke="url(#SvgjsLinearGradient1049)" stroke-linecap="round" class="Down"></path></g><defs><mask id="SvgjsMask1048"><rect width="1440" height="560" fill="#ffffff"></rect></mask><linearGradient x1="0%" y1="0%" x2="0%" y2="100%" id="SvgjsLinearGradient1049"><stop stop-color="rgba(165, 25, 25, 0)" offset="0"></stop><stop stop-color="rgba(165, 25, 25, 0.37)" offset="1"></stop></linearGradient><linearGradient x1="0%" y1="100%" x2="0%" y2="0%" id="SvgjsLinearGradient1050"><stop stop-color="rgba(165, 25, 25, 0)" offset="0"></stop><stop stop-color="rgba(165, 25, 25, 0.37)" offset="1"></stop></linearGradient></defs></svg>