<?xml version="1.0" standalone="no"?>
<!DOCTYPE svg PUBLIC "-//W3C//DTD SVG 20010904//EN"
 "http://www.w3.org/TR/2001/REC-SVG-20010904/DTD/svg10.dtd">
<svg version="1.0" xmlns="http://www.w3.org/2000/svg"
 width="300.000000pt" height="300.000000pt" viewBox="0 0 300.000000 300.000000"
 preserveAspectRatio="xMidYMid meet">
<metadata>
Created by potrace 1.10, written by Peter Selinger 2001-2011
</metadata>
<g transform="translate(0.000000,300.000000) scale(0.100000,-0.100000)"
fill="#000000" stroke="none">
<path d="M1653 2933 c12 -19 -24 -25 -168 -30 -93 -3 -142 -8 -147 -16 -6 -9
-8 -8 -8 2 0 10 -9 12 -35 7 -19 -4 -70 -11 -112 -16 -95 -11 -155 -28 -148
-41 4 -5 2 -9 -4 -9 -5 0 -12 4 -16 9 -8 13 -71 -15 -67 -30 2 -7 -4 -9 -13
-6 -8 4 -15 1 -15 -5 0 -6 -3 -9 -6 -5 -4 3 -13 0 -20 -8 -8 -7 -22 -11 -33
-8 -11 3 -27 -3 -38 -14 -10 -10 -48 -37 -85 -61 -37 -24 -73 -51 -80 -60 -11
-15 -10 -15 12 1 61 42 176 107 190 107 9 0 20 4 26 9 19 20 164 60 289 81
102 18 175 22 340 24 193 1 217 -1 290 -23 44 -12 95 -31 113 -42 18 -10 40
-19 49 -19 19 0 91 -38 121 -64 23 -20 23 -20 16 -1 -12 35 -58 74 -96 85 -21
6 -38 15 -38 21 0 27 267 -99 300 -142 3 -3 30 -19 60 -34 74 -38 115 -70 139
-111 11 -19 27 -34 36 -34 8 0 15 -7 15 -16 0 -9 -7 -14 -17 -12 -10 2 -18 8
-18 15 0 6 -12 21 -27 32 -22 18 -26 19 -24 4 3 -19 55 -63 75 -63 8 0 11 -6
7 -16 -4 -12 -1 -14 14 -9 11 4 20 2 20 -3 0 -6 -5 -12 -12 -14 -6 -2 -8 -10
-4 -17 5 -7 15 -10 24 -6 16 6 32 -10 32 -32 0 -6 -8 -14 -17 -16 -11 -3 -7
-5 10 -6 20 -1 27 -6 27 -21 0 -11 4 -20 8 -20 8 0 41 -67 76 -153 19 -46 46
-81 66 -85 11 -2 11 1 -2 11 -10 8 -18 21 -18 29 0 9 -7 21 -15 28 -10 9 -12
17 -6 23 11 11 3 39 -10 31 -5 -3 -9 5 -9 18 0 13 -9 29 -20 35 -26 17 -53 70
-40 78 6 3 10 -1 10 -10 0 -8 10 -19 23 -24 26 -10 82 -113 74 -135 -4 -9 -2
-16 4 -16 16 0 57 -103 48 -121 -5 -10 1 -25 21 -46 32 -35 40 -58 44 -129 1
-27 8 -69 15 -94 7 -24 11 -77 9 -116 -2 -46 0 -72 7 -71 5 1 9 -4 7 -10 -1
-7 5 -13 14 -13 8 0 13 4 9 9 -3 5 -1 12 4 15 5 3 5 24 0 48 -4 24 -8 73 -9
110 0 56 -3 66 -15 62 -11 -5 -15 1 -15 17 0 19 2 21 10 9 17 -26 20 -4 9 56
-7 32 -12 64 -12 71 0 6 -6 9 -12 6 -8 -2 -12 5 -12 19 0 27 -51 198 -59 198
-3 0 -2 -17 1 -37 5 -29 -1 -20 -25 36 -29 71 -66 132 -82 139 -5 2 -6 7 -3
12 3 4 -15 28 -40 53 -44 45 -57 65 -32 51 6 -4 -4 11 -24 32 -67 73 -79 88
-79 99 0 6 -32 44 -72 84 -63 64 -75 72 -100 67 -15 -3 -28 -2 -28 2 0 4 -17
14 -37 21 -20 8 -46 22 -57 32 -18 17 -18 19 -2 19 10 0 14 5 10 11 -4 8 0 8
15 0 25 -14 28 -23 4 -14 -14 4 -15 3 -7 -6 7 -8 19 -9 34 -3 22 8 21 9 -18
30 -27 14 -42 17 -44 10 -2 -6 -14 -12 -26 -13 -12 -1 -20 1 -17 3 8 8 -34 34
-45 27 -6 -3 -10 -2 -10 4 0 6 -6 8 -14 5 -8 -3 -31 6 -53 19 -53 35 -184 74
-273 82 -96 9 -117 12 -131 21 -7 4 -9 3 -6 -3z m63 -31 c-2 -4 3 -8 12 -9 32
-2 167 -35 182 -44 27 -15 -15 -11 -92 11 -40 11 -85 20 -100 20 -18 0 -28 5
-28 15 0 8 7 15 16 15 8 0 13 -4 10 -8z m-248 -19 c-16 -2 -40 -2 -55 0 -16 2
-3 4 27 4 30 0 43 -2 28 -4z m936 -228 c3 -8 -2 -11 -14 -8 -10 3 -21 11 -24
18 -3 8 2 11 14 8 10 -3 21 -11 24 -18z m230 -302 c4 -9 1 -21 -5 -27 -9 -8
-10 -8 -5 1 3 6 2 14 -4 18 -12 8 -13 25 -1 25 5 0 12 -8 15 -17z"/>
<path d="M2010 2880 c0 -5 6 -10 14 -10 8 0 23 -3 33 -6 10 -3 7 2 -7 10 -30
18 -40 20 -40 6z"/>
<path d="M2080 2857 c0 -3 15 -10 32 -16 18 -6 28 -7 23 -2 -12 10 -55 25 -55
18z"/>
<path d="M1610 2822 c8 -5 44 -15 79 -21 35 -7 76 -17 90 -23 14 -6 36 -12 47
-13 12 -1 36 -12 53 -24 17 -13 37 -24 44 -25 14 -2 122 -51 153 -69 12 -7 79
-51 148 -98 99 -66 147 -107 212 -179 46 -52 94 -115 106 -140 12 -25 29 -57
39 -71 22 -31 76 -188 84 -244 3 -22 8 -53 10 -70 3 -16 9 -50 15 -75 13 -55
20 -142 13 -154 -3 -4 -7 -29 -8 -55 -2 -25 -12 -82 -24 -125 -25 -93 -26
-102 -7 -87 7 6 17 35 21 64 6 47 8 50 18 29 8 -17 8 -29 0 -41 -7 -11 -8 -23
-2 -32 5 -8 9 -18 9 -24 0 -5 -4 -3 -9 4 -8 12 -11 10 -15 -10 -3 -13 -13 -60
-22 -104 -17 -80 -24 -119 -26 -142 -1 -7 -5 -13 -10 -13 -5 0 -14 -13 -19
-30 -6 -16 -16 -28 -22 -27 -5 1 -15 -14 -20 -33 -18 -69 -61 -165 -84 -189
-13 -13 -23 -31 -23 -40 0 -22 157 -144 166 -129 4 7 3 8 -4 4 -8 -4 -10 -2
-6 8 3 8 12 12 19 10 8 -3 21 7 32 22 13 20 14 29 5 32 -6 2 -12 8 -12 13 0 4
6 6 14 3 8 -3 19 3 26 15 8 16 8 21 -2 22 -7 0 -2 5 11 10 15 6 21 15 17 24
-3 8 -1 15 5 15 6 0 9 7 5 15 -3 8 -1 15 5 15 6 0 8 10 4 23 -4 16 -4 18 3 8
8 -11 12 -10 21 8 9 16 9 21 -1 22 -7 0 -3 5 9 11 12 6 24 18 27 27 3 9 14 39
25 68 10 28 16 54 13 57 -3 3 0 6 6 6 6 0 11 8 11 17 0 10 9 49 20 87 22 74
43 206 43 271 0 22 5 48 10 58 7 13 5 17 -11 17 -11 0 -23 5 -26 10 -16 26
-25 4 -24 -62 1 -80 -16 -191 -54 -338 -17 -67 -49 -144 -106 -257 -45 -89
-88 -166 -96 -173 -14 -12 -42 -1 -74 29 -15 13 -24 54 -10 46 10 -7 20 25 12
37 -4 7 -1 8 7 3 8 -5 11 -3 8 6 -3 8 -11 13 -17 11 -7 -1 -10 2 -6 8 3 6 10
8 15 5 11 -7 42 50 33 59 -4 3 2 13 13 21 11 8 14 15 7 15 -17 0 -16 15 1 33
9 9 11 18 6 23 -6 6 -2 14 10 22 22 13 25 6 11 -31 -8 -19 -6 -27 5 -31 9 -4
14 1 14 14 0 11 4 20 8 20 4 0 9 16 10 37 2 20 6 41 10 47 15 25 23 126 11
141 -4 6 -4 17 1 25 8 12 10 12 10 -3 0 -10 4 -16 9 -12 9 5 20 69 24 145 2
19 6 41 11 49 5 8 4 16 -2 20 -11 6 -9 74 3 112 3 9 1 20 -5 24 -5 3 -10 36
-9 73 1 49 3 60 9 42 4 -14 8 -40 9 -57 1 -18 6 -33 12 -33 11 0 10 21 -6 120
-4 21 -2 30 3 22 5 -7 8 9 8 42 -1 33 -5 52 -11 48 -5 -4 -18 -8 -29 -9 -15
-3 -17 1 -12 20 6 27 -11 97 -24 97 -5 0 -9 15 -8 33 1 44 -11 97 -23 97 -6 0
-8 4 -4 10 7 11 -41 110 -54 110 -5 0 -7 8 -4 19 2 10 -3 25 -12 35 -9 9 -13
16 -10 16 4 0 -23 36 -59 80 -36 43 -66 88 -66 100 0 11 -5 20 -11 20 -6 0 -8
-7 -5 -16 3 -8 2 -12 -4 -9 -6 3 -10 16 -10 27 0 12 -3 19 -6 15 -3 -3 -14 2
-24 11 -31 28 -43 36 -81 54 -20 9 -53 31 -73 48 -19 17 -40 29 -45 25 -15 -9
-51 13 -51 30 0 8 -7 15 -16 15 -11 0 -14 5 -10 16 5 12 0 15 -22 12 -16 -2
-26 2 -25 9 1 6 -12 17 -30 24 -18 7 -39 18 -48 26 -8 7 -32 14 -52 15 -20 2
-37 7 -37 12 0 4 -9 6 -20 3 -10 -3 -24 1 -31 9 -6 7 -21 14 -33 14 -11 0 -43
4 -71 9 -97 17 -150 23 -135 13z m1127 -1022 c1 -12 -4 -20 -13 -20 -12 0 -12
4 -4 20 6 11 12 20 13 20 2 0 3 -9 4 -20z m-27 -502 c0 -7 -5 -20 -10 -28 -8
-12 -10 -9 -10 13 0 15 5 27 10 27 6 0 10 -6 10 -12z m-30 -168 c0 -11 -6 -20
-13 -20 -8 0 -14 7 -14 15 0 8 4 12 9 9 4 -3 8 0 8 5 0 6 2 11 5 11 3 0 5 -9
5 -20z"/>
<path d="M1562 2725 c-18 -8 -31 -19 -28 -24 3 -5 -1 -15 -10 -22 -48 -40
-151 -268 -142 -317 2 -12 -10 -31 -29 -50 -35 -32 -38 -28 -24 28 5 19 12 52
15 72 4 21 23 58 42 84 27 35 33 49 24 58 -15 14 -70 -46 -101 -110 -27 -57
-44 -174 -27 -185 7 -4 9 -11 6 -15 -4 -3 -1 -19 7 -35 11 -21 12 -35 5 -54
-11 -28 -5 -49 11 -40 5 3 6 -2 3 -12 -5 -16 -4 -16 10 1 9 11 16 17 16 13 0
-4 14 0 31 8 17 9 33 14 35 12 7 -7 -56 -44 -88 -52 -39 -10 -25 -32 17 -27
27 3 35 0 35 -11 0 -23 49 -117 61 -117 6 0 13 9 16 20 6 24 38 27 47 4 5 -13
16 -15 59 -10 l52 6 -55 -18 c-36 -11 -58 -25 -65 -39 -5 -12 -19 -24 -30 -27
-12 -3 -27 -17 -33 -31 -6 -14 -16 -25 -22 -25 -23 0 -50 -40 -46 -70 2 -21
-1 -30 -11 -30 -8 0 -11 5 -8 10 3 6 1 10 -4 10 -6 0 -11 -10 -11 -23 0 -12
-8 -33 -17 -46 -15 -23 -23 -61 -24 -121 0 -19 -17 -37 -71 -78 -65 -49 -75
-53 -109 -47 -33 6 -42 3 -63 -20 -21 -22 -23 -31 -15 -47 8 -15 7 -24 -4 -36
-9 -11 -13 -29 -10 -50 5 -32 6 -32 29 -17 21 14 24 14 24 0 0 -8 4 -15 9 -15
5 0 7 9 4 20 -7 26 1 25 71 -10 32 -17 65 -30 73 -30 11 0 10 -6 -3 -32 -9
-18 -20 -35 -23 -38 -13 -10 -31 -50 -31 -67 0 -15 2 -16 10 -3 7 11 10 12 10
2 0 -8 -9 -16 -20 -19 -11 -3 -20 -9 -20 -14 0 -5 -8 -6 -18 -3 -9 3 -2 -7 16
-23 18 -15 32 -33 32 -39 0 -5 -16 -25 -35 -44 -41 -40 -44 -49 -11 -43 23 5
24 3 19 -38 -2 -24 -9 -57 -14 -73 -12 -39 -12 -109 1 -101 15 9 12 -11 -4
-24 -17 -14 -25 12 -27 84 -1 46 -1 48 -10 20 -10 -32 -3 -103 13 -122 6 -7 5
-14 -2 -18 -13 -8 -13 -25 0 -25 6 0 15 11 20 24 15 41 30 41 30 0 0 -21 3
-34 6 -31 4 4 6 40 5 80 -1 45 4 89 13 113 17 47 28 94 22 94 -3 0 -13 -12
-21 -27 -9 -16 -13 -19 -9 -8 4 11 8 30 8 42 1 11 4 19 8 17 3 -2 9 2 11 8 4
10 8 10 15 -1 8 -11 11 -10 14 5 3 10 5 -4 5 -32 0 -28 -4 -58 -9 -65 -7 -10
-8 -9 -3 6 4 12 3 16 -3 10 -19 -21 -47 -205 -31 -205 5 0 9 -24 9 -52 0 -38
-3 -49 -10 -38 -5 8 -10 11 -10 5 1 -5 7 -19 15 -29 15 -19 15 -19 15 3 0 12
4 20 9 17 4 -3 11 42 15 101 6 91 19 153 31 141 2 -1 -1 -27 -6 -57 -4 -30 -9
-85 -11 -123 -1 -38 -6 -72 -10 -74 -4 -3 -8 -16 -8 -30 0 -13 -5 -24 -11 -24
-8 0 -8 -5 1 -15 7 -8 19 -15 26 -15 8 0 14 -7 14 -15 0 -8 -7 -15 -15 -15 -8
0 -15 -5 -15 -11 0 -26 23 -49 61 -60 26 -8 35 -15 27 -20 -10 -6 -9 -15 4
-42 l17 -35 -49 4 c-27 2 -72 14 -100 28 -28 14 -47 19 -40 12 6 -8 24 -19 39
-26 28 -11 50 -50 29 -50 -5 0 -12 9 -15 20 -3 11 -12 20 -20 20 -8 0 -11 -5
-8 -10 4 -6 -5 -10 -19 -10 -14 0 -26 5 -26 11 0 5 -4 8 -8 5 -12 -7 -122 20
-135 33 -6 6 -18 11 -27 11 -8 0 -50 14 -92 31 -72 29 -77 33 -67 51 9 17 13
18 20 7 13 -21 14 7 5 126 -3 33 -8 107 -11 165 -6 100 -5 106 15 118 26 16
43 6 37 -19 -6 -23 11 -26 19 -4 4 10 13 13 25 10 11 -4 19 -2 19 4 0 5 -9 13
-20 16 -23 7 -26 21 -7 28 7 3 19 -4 25 -14 7 -10 16 -19 22 -19 16 0 0 28
-25 44 -21 14 -26 14 -39 1 -21 -21 -28 -19 -20 7 6 20 5 21 -10 9 -9 -7 -16
-20 -16 -28 0 -23 -30 -27 -45 -7 -13 17 -14 10 -15 -63 0 -46 3 -83 8 -83 4
0 7 -54 7 -119 0 -108 -2 -122 -22 -148 -21 -27 -22 -27 -22 -6 -1 26 -20 108
-32 138 -12 31 -22 79 -20 92 1 7 -5 27 -12 45 -8 19 -12 47 -10 63 5 32 -11
85 -25 85 -7 0 -7 -20 1 -118 2 -20 13 -65 25 -99 12 -34 24 -75 27 -92 3 -16
9 -41 15 -55 7 -20 6 -26 -8 -29 -16 -4 -16 -5 1 -6 10 -1 17 -9 17 -20 0 -26
-24 -21 -60 14 -30 29 -34 27 -30 -10 1 -16 -1 -17 -11 -8 -10 10 -10 18 -1
38 16 35 15 37 -8 25 -11 -6 -20 -18 -20 -27 0 -13 -2 -13 -16 -2 -9 7 -20 24
-25 37 -5 13 -13 21 -18 17 -13 -7 -61 38 -61 58 0 11 -6 13 -22 9 -11 -3 -19
-1 -15 4 7 13 -15 39 -33 39 -9 0 -15 9 -15 25 0 18 -5 24 -17 22 -9 -1 -20 3
-24 9 -4 8 -3 9 4 5 23 -14 11 13 -14 33 -15 12 -23 21 -19 21 4 0 -4 12 -18
26 -16 16 -23 32 -20 41 4 11 2 14 -5 9 -7 -4 -12 -1 -12 7 0 8 -9 17 -20 20
-11 3 -19 11 -18 19 2 7 -3 12 -10 10 -8 -1 -11 2 -7 7 3 6 -10 40 -30 78 -19
37 -35 73 -35 80 0 17 -13 23 -29 14 -30 -19 130 -288 262 -442 83 -97 280
-277 322 -295 22 -9 35 -22 37 -36 3 -20 9 -23 53 -24 35 -1 75 -13 130 -39
129 -60 182 -75 315 -86 117 -11 330 -7 445 7 39 4 47 3 35 -6 -13 -10 -12
-11 5 -5 56 19 158 45 162 41 5 -4 32 9 183 91 54 29 80 47 80 55 0 11 -154
-46 -199 -73 -20 -12 -52 -26 -71 -31 -19 -5 -53 -14 -75 -19 -22 -6 -68 -11
-102 -12 -34 0 -60 -4 -57 -9 3 -4 -7 -3 -22 2 -19 8 -30 8 -38 0 -12 -12 -66
-13 -85 -1 -8 5 -24 6 -36 1 -14 -5 -27 -4 -33 2 -8 8 -15 8 -26 -2 -9 -7 -26
-10 -40 -6 -14 3 -28 2 -31 -4 -3 -5 -12 -10 -18 -10 -8 0 -7 3 2 9 12 7 10
14 -9 38 l-22 28 7 -33 7 -33 -54 6 c-93 10 -121 16 -201 37 -58 15 -77 24
-73 35 3 7 0 13 -7 12 -6 -1 -19 -1 -27 0 -13 1 -13 2 0 11 12 8 11 10 -6 10
-12 0 -47 12 -78 26 -31 14 -61 22 -67 18 -10 -6 -28 11 -29 28 0 12 45 4 63
-12 10 -8 21 -15 25 -15 4 0 38 -11 75 -25 55 -19 67 -28 64 -42 -4 -13 1 -18
15 -18 13 0 18 5 15 13 -4 10 2 13 19 9 13 -2 21 -8 19 -12 -8 -13 8 -18 30
-10 11 4 47 -1 84 -11 46 -13 68 -16 77 -8 7 6 18 8 24 4 6 -4 9 -1 8 7 -2 7
8 14 22 16 45 7 62 31 57 81 -4 36 -11 51 -40 76 -32 27 -35 35 -34 75 l2 45
39 -2 c22 -2 45 2 53 8 7 6 13 8 13 5 0 -10 87 52 92 64 1 5 28 18 58 29 44
15 68 18 120 12 71 -8 97 -18 134 -56 29 -29 48 -31 66 -10 17 21 -3 82 -41
127 -22 26 -30 30 -38 19 -7 -11 -10 -10 -18 4 -11 19 -61 29 -79 15 -6 -6
-33 -9 -60 -9 -27 0 -69 -6 -94 -15 l-45 -15 40 7 c73 13 291 -3 293 -21 7
-48 10 -59 20 -69 14 -14 16 -38 4 -38 -12 0 -41 33 -40 45 0 6 -17 15 -38 21
-21 6 -33 13 -25 15 7 3 -28 11 -78 18 -86 12 -94 11 -131 -7 -22 -10 -37 -15
-33 -9 4 6 -8 7 -33 3 -36 -6 -38 -5 -20 9 11 8 15 15 9 15 -13 0 -39 -24 -45
-42 -2 -6 -26 -14 -54 -17 -33 -4 -49 -11 -50 -21 -1 -8 -2 -25 -3 -38 -1 -14
-5 -20 -12 -16 -6 3 -8 17 -5 30 4 13 -1 39 -11 59 -15 31 -15 43 -5 93 6 31
14 95 18 142 7 87 17 130 31 130 5 0 9 -19 9 -42 1 -24 -1 -35 -5 -26 -3 9 -7
-15 -9 -55 -1 -40 -4 -83 -6 -97 -2 -14 -4 -35 -5 -48 0 -13 -4 -21 -8 -19 -5
3 -9 -12 -11 -33 -2 -39 11 -62 22 -35 3 9 18 15 39 15 19 0 54 11 78 24 62
34 155 59 199 53 21 -3 44 -1 51 4 10 6 7 9 -11 9 -20 0 -22 2 -10 10 13 8 12
10 -3 10 -14 0 -17 5 -12 20 7 23 -13 28 -21 5 -9 -21 -24 -19 -24 4 0 12 8
21 20 23 14 2 17 7 11 17 -7 11 -15 11 -44 0 -39 -14 -54 -36 -37 -53 17 -17
12 -23 -17 -21 -16 1 -38 -5 -50 -13 -15 -9 -23 -10 -23 -3 0 6 5 11 10 11 20
0 9 37 -15 50 -23 12 -28 12 -46 -6 l-20 -20 22 -28 c24 -30 25 -28 -16 -48
-60 -29 -80 6 -33 58 15 17 18 30 13 58 -4 20 -11 36 -15 36 -4 0 -10 11 -12
25 -4 16 -1 25 7 25 17 0 8 79 -11 101 -23 26 -17 33 46 58 62 25 110 61 60
46 -71 -21 -177 -71 -207 -98 -46 -40 -55 -26 -12 19 41 43 73 61 163 89 38
12 64 25 58 29 -9 5 -34 1 -112 -19 -8 -2 -21 -4 -28 -4 -7 -1 -10 -6 -6 -13
4 -6 3 -8 -3 -5 -6 4 -28 0 -48 -9 -20 -8 -39 -13 -42 -10 -8 8 8 27 18 21 5
-3 6 1 3 9 -3 9 -1 16 5 16 6 0 11 4 11 9 0 5 5 22 12 38 18 44 18 54 1 79
-14 22 -14 24 1 24 9 0 45 -12 79 -26 36 -15 87 -28 122 -30 l60 -4 -50 16
c-27 8 -71 24 -96 34 -71 30 -139 43 -154 30 -17 -14 -55 4 -55 26 0 8 4 13 9
9 5 -3 17 2 25 11 9 8 16 13 16 11 0 -3 24 4 53 15 28 11 87 28 130 37 70 15
77 19 62 31 -15 12 -28 12 -99 -4 -44 -10 -91 -19 -103 -20 -11 0 -19 -4 -16
-8 2 -5 -1 -9 -6 -9 -6 -1 -16 -2 -21 -3 -6 0 -14 -5 -18 -11 -7 -10 -48 -35
-57 -35 -8 0 -6 28 3 33 4 2 2 2 -5 1 -21 -5 -23 25 -2 37 17 8 23 7 34 -8 13
-17 14 -16 24 9 11 29 64 68 91 68 13 0 13 -1 0 -10 -8 -5 -12 -12 -8 -15 3
-3 12 0 19 7 17 16 153 18 168 3 6 -6 27 -9 46 -7 34 4 34 4 18 28 -9 14 -13
27 -10 30 3 3 -6 17 -19 31 -23 24 -24 43 -3 43 6 0 7 -4 4 -10 -3 -5 0 -10 8
-10 18 0 51 -38 65 -75 6 -16 13 -59 16 -96 5 -57 4 -68 -14 -87 -16 -17 -25
-20 -39 -12 -10 5 -20 7 -23 5 -2 -3 -24 -7 -48 -10 -51 -7 -60 -12 -40 -25
20 -13 40 -12 40 0 0 6 4 10 10 10 5 0 7 -6 4 -13 -3 -8 6 -18 21 -25 36 -16
41 -15 22 6 -15 16 -14 18 11 16 15 -1 35 7 45 17 10 11 21 19 25 19 4 0 8 31
8 69 1 47 6 78 17 94 15 24 15 25 -6 32 -21 6 -21 7 6 19 27 12 28 30 1 19 -8
-3 -24 6 -37 21 -13 14 -34 26 -47 27 -14 0 -19 3 -12 6 6 2 12 11 12 19 0 19
30 18 58 -2 33 -23 40 -8 8 17 -14 11 -24 25 -21 30 4 5 -24 9 -63 9 -60 0
-70 -3 -75 -19 -4 -17 -2 -18 19 -9 18 9 28 8 36 0 16 -16 8 -21 -69 -43 -60
-16 -62 -17 -20 -12 47 5 65 -8 30 -21 -14 -6 -14 -9 -4 -15 8 -5 -1 -10 -26
-14 -21 -4 -53 -9 -70 -13 -19 -4 -33 -2 -33 3 0 6 13 10 30 11 32 1 88 32 58
32 -9 0 -28 -4 -41 -9 -24 -9 -25 -8 -22 22 7 58 24 111 39 123 9 6 13 14 9
17 -3 4 -1 7 5 7 11 0 16 -13 13 -32 0 -5 4 -8 10 -8 8 0 8 -4 -1 -15 -13 -15
-3 -62 10 -49 16 16 18 62 5 82 -16 21 -10 32 14 31 13 0 12 -2 -2 -8 -17 -6
-17 -8 -4 -19 13 -11 16 -10 22 7 7 23 59 37 105 27 16 -3 62 -24 101 -48 58
-34 80 -56 121 -115 28 -40 56 -73 63 -73 7 0 15 13 18 30 4 16 22 46 41 67
27 30 32 42 25 56 -6 10 -7 27 -3 39 6 21 7 20 19 -8 l12 -29 5 28 c3 15 2 30
-3 33 -11 6 0 34 23 60 31 34 32 71 4 129 -27 54 -83 106 -141 131 -54 22
-144 16 -128 -9 4 -6 1 -7 -6 -3 -7 5 -10 11 -7 14 14 13 -26 39 -56 36 -37
-5 -51 -14 -19 -14 12 0 24 -7 27 -15 4 -8 11 -12 17 -8 6 3 7 1 3 -5 -4 -7
-14 -12 -22 -12 -8 0 -14 -3 -14 -7 0 -5 20 -8 45 -9 46 -1 84 -22 57 -31 -6
-3 -10 -9 -7 -14 3 -4 -1 -20 -10 -33 -15 -22 -19 -24 -43 -13 -15 6 -29 12
-31 14 -9 6 31 53 46 53 12 0 14 3 6 11 -8 8 -17 8 -31 0 -26 -14 -117 -5
-146 15 -15 9 -25 28 -29 52 -3 20 -8 46 -13 57 -7 19 -7 19 12 3 20 -18 94
-52 99 -46 7 7 -22 36 -52 52 -18 9 -33 21 -33 26 0 19 23 10 64 -23 23 -19
55 -36 71 -39 l30 -6 -25 17 c-44 29 -90 73 -90 86 0 22 27 36 76 42 42 4 46
3 35 -11 -7 -8 -10 -24 -6 -36 4 -13 1 -28 -9 -39 -14 -15 -12 -19 17 -42 40
-32 73 -44 82 -29 8 13 72 5 92 -11 7 -7 14 -6 18 1 3 5 15 10 25 10 10 0 22
5 25 10 8 13 -14 42 -25 35 -5 -3 -11 -1 -15 5 -4 6 -9 8 -13 6 -4 -2 -34 15
-66 39 -51 37 -59 47 -60 76 -1 19 3 37 8 41 6 4 2 10 -9 14 -30 10 -125 76
-125 86 0 5 -9 4 -19 -2 -35 -18 -34 -11 2 30 36 39 68 93 82 138 5 18 -1 14
-32 -17 -21 -22 -51 -56 -66 -76 -16 -19 -44 -42 -63 -51 -36 -17 -111 -100
-101 -111 4 -3 9 1 12 9 4 9 25 31 48 49 36 29 40 30 26 9 -9 -13 -24 -29 -34
-34 -11 -6 -28 -21 -38 -34 -10 -12 -23 -20 -27 -17 -10 6 -42 -49 -34 -57 2
-3 -2 -11 -10 -17 -13 -11 -14 -8 -10 15 7 37 20 61 66 117 26 31 35 47 25 47
-12 0 -13 7 -5 40 6 22 14 38 18 35 4 -3 18 23 31 56 12 34 40 83 61 110 21
27 33 49 27 49 -8 0 -7 5 2 16 9 11 25 15 51 12 41 -4 55 10 35 35 -19 23 -49
27 -85 12z m41 -407 c33 -13 35 -28 3 -28 -34 0 -87 -20 -80 -31 3 -5 -1 -10
-8 -10 -48 -5 -68 -4 -68 4 0 5 -16 -5 -35 -22 -41 -36 -61 -41 -45 -11 6 11
17 17 24 14 8 -3 19 4 26 16 7 12 18 19 26 16 8 -3 14 1 14 8 0 8 14 26 31 40
32 27 49 27 112 4z m92 -44 c19 -15 17 -16 -27 -11 -28 3 -49 0 -51 -6 -2 -6
-9 -7 -16 -2 -10 6 -8 11 10 21 32 18 60 17 84 -2z m-95 -43 c0 -4 -19 -11
-43 -14 -24 -3 -72 -20 -108 -37 -35 -16 -74 -30 -86 -30 -12 0 -25 -5 -28
-10 -4 -6 -11 -7 -18 -3 -11 7 54 41 83 43 8 0 42 14 75 30 56 28 125 40 125
21z m-80 -50 c0 -12 -55 -33 -77 -29 -15 3 16 19 75 37 1 1 2 -3 2 -8z m195
-21 c10 -11 15 -23 12 -27 -8 -7 -47 25 -47 39 0 14 16 9 35 -12z m-38 -36
c-3 -4 -2 -15 4 -25 12 -23 -3 -25 -21 -4 -13 15 -6 35 12 35 6 0 8 -3 5 -6z
m83 -31 c-1 -20 -16 -30 -35 -22 -17 6 -17 8 -2 8 9 1 17 6 17 11 0 6 5 10 10
10 6 0 10 -3 10 -7z m-311 -21 c-17 -27 -69 -55 -69 -37 0 15 48 54 68 55 9 0
10 -4 1 -18z m-4 -68 c-26 -24 -41 -31 -31 -15 4 5 0 12 -6 15 -7 3 -4 4 7 3
11 -1 20 4 20 13 1 8 6 14 13 13 7 -2 11 0 11 5 -3 20 4 34 8 14 3 -16 -4 -31
-22 -48z m389 -29 c10 -8 22 -12 26 -10 4 2 19 -9 34 -24 31 -33 18 -55 -15
-25 -21 19 -33 15 -23 -9 3 -9 12 -13 20 -10 18 7 19 -21 1 -35 -10 -8 -16 -6
-25 9 -7 10 -17 19 -22 19 -6 0 -1 -13 11 -29 28 -38 16 -61 -17 -30 -30 28
-30 34 1 75 26 34 36 69 13 46 -7 -7 -17 -12 -23 -12 -20 0 -48 27 -41 38 10
16 37 14 60 -3z m-209 -65 c4 -6 -5 -10 -20 -10 -15 0 -24 4 -20 10 3 6 12 10
20 10 8 0 17 -4 20 -10z m155 -60 c-8 -16 -17 -19 -33 -14 -29 9 -30 9 -22 33
3 12 16 21 33 23 31 3 38 -11 22 -42z m-222 33 c-10 -2 -28 -2 -40 0 -13 2 -5
4 17 4 22 1 32 -1 23 -4z m377 -23 c19 0 19 -34 1 -49 -12 -10 -18 -7 -30 18
-17 32 -11 78 6 47 5 -9 16 -16 23 -16z m-339 -20 c-14 -17 -26 -42 -26 -54 0
-12 -7 -31 -15 -42 -14 -19 -14 -18 -15 4 0 27 -26 30 -34 4 -5 -14 -17 -19
-47 -20 -22 -1 -45 -4 -50 -8 -5 -3 -9 0 -9 5 0 6 6 11 14 11 7 0 19 7 26 15
7 8 27 16 44 17 l31 1 -31 4 c-18 2 -49 -3 -70 -12 -20 -8 -39 -13 -42 -11 -6
7 69 38 93 39 11 0 35 -3 52 -7 30 -7 34 -5 44 21 11 30 49 76 57 68 2 -2 -7
-18 -22 -35z m85 23 c18 -9 28 -18 21 -21 -20 -6 -13 -19 18 -32 35 -14 36
-17 14 -41 -22 -24 -55 -9 -47 21 9 35 -15 22 -41 -22 l-25 -42 -16 38 c-20
46 -9 64 26 45 24 -12 24 -12 5 10 -11 11 -14 21 -8 21 6 0 14 -4 17 -10 3 -5
12 -10 18 -10 7 1 6 5 -4 13 -18 14 -32 47 -20 47 4 0 23 -8 42 -17z m-141
-24 c11 -8 6 -9 -21 -5 -20 4 -49 2 -65 -4 -27 -9 -28 -9 -10 5 23 17 74 20
96 4z m-2 -30 c-2 -6 -7 -10 -11 -10 -4 1 -16 1 -28 1 -11 0 -17 5 -14 10 8
14 58 13 53 -1z m301 -38 c41 -49 52 -81 29 -81 -17 1 -51 47 -43 59 3 5 -8
15 -25 23 -29 12 -37 27 -23 41 12 13 21 7 62 -42z m63 25 c6 -14 8 -32 5 -40
-5 -13 -11 -12 -33 9 -29 27 -26 47 3 24 15 -11 16 -11 6 1 -16 17 -17 30 -3
30 6 0 15 -11 22 -24z m-203 -81 c0 -21 -27 -45 -43 -39 -9 3 -16 10 -16 16 0
5 -4 6 -10 3 -15 -9 -12 3 7 35 16 27 17 28 39 12 13 -9 23 -21 23 -27z m73
11 c11 -8 15 -20 11 -34 -6 -25 -24 -28 -52 -10 -16 9 -17 16 -8 35 12 26 24
28 49 9z m48 -61 c7 -9 10 -18 7 -22 -8 -7 -37 15 -37 28 0 14 16 11 30 -6z
m70 -6 c0 -11 -13 -34 -29 -50 -16 -16 -31 -34 -33 -41 -3 -9 -6 -9 -11 -1 -4
6 3 24 16 40 13 15 29 38 36 51 15 28 21 28 21 1z m-100 -44 c17 -18 21 -28
13 -36 -13 -13 -61 31 -55 49 6 18 16 15 42 -13z m-310 -145 c0 -5 -13 -10
-30 -10 -16 0 -30 5 -30 10 0 6 14 10 30 10 17 0 30 -4 30 -10z m-385 -130
c-3 -5 -1 -10 4 -10 6 0 11 -7 11 -15 0 -8 8 -15 17 -15 9 0 14 -2 11 -5 -8
-9 -59 6 -53 15 3 4 -2 10 -10 14 -22 8 -18 26 6 26 11 0 17 -4 14 -10z m-30
-40 c-5 -8 -11 -8 -17 -2 -6 6 -7 16 -3 22 5 8 11 8 17 2 6 -6 7 -16 3 -22z
m198 -350 c-7 -25 -19 -34 -28 -19 -5 8 18 36 32 39 0 0 -1 -9 -4 -20z m73
-207 c-11 -11 -19 6 -11 24 8 17 8 17 12 0 3 -10 2 -21 -1 -24z m228 22 c-6
-16 -24 -21 -24 -7 0 11 11 22 21 22 5 0 6 -7 3 -15z m-134 -16 c0 -6 -7 -17
-15 -25 -13 -14 -15 -13 -15 4 0 10 3 22 7 25 10 11 23 8 23 -4z m30 -176 c0
-12 -123 -74 -145 -73 -19 1 -19 1 1 13 12 7 19 17 17 24 -4 10 28 24 82 36
33 8 45 7 45 0z m-777 -217 c4 -9 14 -12 25 -9 14 3 21 -2 25 -16 3 -12 3 -21
1 -21 -7 0 -84 52 -84 56 0 11 29 2 33 -10z"/>
<path d="M1322 2538 c-23 -25 -42 -70 -42 -96 1 -9 7 1 15 22 8 22 23 52 35
68 25 34 21 36 -8 6z"/>
<path d="M795 2334 c-57 -20 -118 -75 -122 -110 -1 -16 -6 -47 -11 -69 -9 -48
-4 -88 9 -79 6 3 9 0 7 -7 -5 -23 44 -79 86 -101 51 -26 131 -25 191 1 25 11
45 25 45 32 0 6 13 26 28 44 21 23 31 47 35 84 10 81 -23 142 -101 192 -52 33
-101 37 -167 13z m127 -33 c37 -14 87 -71 100 -113 16 -53 -4 -112 -52 -160
-31 -31 -45 -38 -77 -38 -25 0 -50 8 -66 20 -32 25 -36 25 -30 -1 5 -19 4 -20
-15 -10 -11 6 -34 28 -51 48 -26 31 -31 46 -31 90 0 28 5 55 10 58 6 3 10 15
10 26 0 60 124 110 202 80z"/>
<path d="M841 2021 c26 -21 35 -20 26 4 -4 8 -16 15 -28 15 -21 0 -21 0 2 -19z"/>
<path d="M2455 2029 c-9 -17 -14 -34 -10 -37 8 -8 44 38 45 56 0 23 -19 12
-35 -19z"/>
<path d="M1877 2032 c-15 -7 -16 -10 -5 -18 20 -16 63 -12 63 6 0 17 -30 23
-58 12z"/>
<path d="M2400 2000 c0 -25 4 -39 10 -35 6 3 10 19 10 35 0 16 -4 32 -10 35
-6 4 -10 -10 -10 -35z"/>
<path d="M2465 1970 c-10 -11 -16 -22 -13 -25 3 -3 13 4 23 15 10 11 16 22 13
25 -3 3 -13 -4 -23 -15z"/>
<path d="M2690 1967 c0 -19 16 -31 24 -18 3 5 -1 14 -9 21 -12 10 -15 10 -15
-3z"/>
<path d="M2370 1959 c0 -6 6 -17 14 -25 8 -8 19 -14 25 -14 6 0 11 -12 11 -26
l0 -25 -30 21 c-16 11 -32 25 -35 30 -9 15 -25 12 -25 -5 0 -8 6 -15 13 -15 6
0 23 -12 36 -25 13 -14 27 -25 31 -25 10 0 18 -69 23 -192 l3 -87 -32 19 c-29
18 -32 19 -38 4 -4 -11 -2 -15 7 -11 7 3 21 -1 32 -9 10 -8 27 -14 38 -14 16
0 18 5 13 38 -3 20 -8 96 -12 167 -5 115 -8 134 -30 168 -24 36 -44 48 -44 26z"/>
<path d="M2280 1870 c0 -5 8 -14 18 -19 16 -10 16 -10 0 -11 -10 0 -18 -5 -18
-11 0 -7 10 -9 25 -5 27 7 32 -3 13 -22 -8 -8 -9 -12 -1 -12 13 0 56 51 48 58
-2 3 -11 -1 -19 -7 -9 -8 -16 -8 -20 -2 -4 5 2 14 11 20 10 6 16 11 13 11 -38
8 -70 8 -70 0z"/>
<path d="M2930 1825 c0 -14 4 -25 9 -25 4 0 6 11 3 25 -2 14 -6 25 -8 25 -2 0
-4 -11 -4 -25z"/>
<path d="M740 1828 c0 -9 11 -30 25 -45 19 -22 24 -24 25 -11 0 9 -11 30 -25
45 -19 22 -24 24 -25 11z"/>
<path d="M2784 1818 c3 -13 6 -32 6 -43 0 -14 3 -16 8 -7 11 16 3 72 -10 72
-6 0 -8 -10 -4 -22z"/>
<path d="M815 1784 c-3 -20 -4 -39 0 -42 9 -9 25 19 25 45 0 37 -17 35 -25 -3z"/>
<path d="M2938 1783 c-2 -5 0 -42 3 -83 l5 -75 2 83 c2 74 -1 96 -10 75z"/>
<path d="M2595 1769 c-4 -6 -5 -12 -2 -15 7 -7 37 7 37 17 0 13 -27 11 -35 -2z"/>
<path d="M750 1740 c11 -20 30 -28 30 -12 0 11 -22 32 -32 32 -5 0 -4 -9 2
-20z"/>
<path d="M848 1738 c-29 -10 -38 -28 -15 -28 16 0 54 27 47 33 -3 2 -17 0 -32
-5z"/>
<path d="M2492 1737 c-8 -10 -2 -12 27 -9 34 3 39 1 45 -22 3 -14 10 -25 14
-24 4 1 17 -3 30 -10 16 -9 22 -9 22 -1 0 6 -9 13 -20 16 -11 3 -17 10 -13 16
3 6 1 7 -5 3 -11 -6 -17 12 -13 37 2 12 -76 8 -87 -6z"/>
<path d="M2274 1705 c3 -22 5 -41 6 -42 0 -2 4 -3 9 -3 18 0 18 26 -1 55 l-19
30 5 -40z"/>
<path d="M2600 1726 c0 -9 40 -13 46 -5 3 5 -6 9 -20 9 -14 0 -26 -2 -26 -4z"/>
<path d="M855 1674 c-38 -34 -40 -35 -43 -13 -2 12 2 26 10 30 9 6 9 9 1 9 -7
0 -16 -8 -22 -17 -13 -26 -26 -349 -13 -357 5 -3 9 0 9 7 -4 51 17 297 26 297
6 0 21 10 34 21 13 13 37 22 55 23 18 1 33 6 33 11 0 6 -8 9 -17 8 -10 -2 -18
2 -18 7 0 17 -13 10 -55 -26z"/>
<path d="M1490 1690 c-29 -7 -19 -15 32 -24 22 -4 53 -21 75 -41 21 -19 40
-35 43 -35 3 0 6 -10 7 -22 1 -12 21 -40 44 -62 23 -23 39 -33 36 -24 -3 10
-2 20 4 23 5 4 8 3 7 -2 -1 -4 2 -18 6 -31 6 -19 0 -29 -39 -64 -25 -22 -43
-43 -41 -46 3 -3 1 -11 -5 -19 -9 -10 -8 -13 3 -13 8 0 29 16 48 35 19 19 40
35 47 35 7 0 23 11 35 25 11 13 25 22 30 19 4 -3 8 1 8 9 0 8 -7 17 -15 21 -8
3 -15 1 -15 -4 0 -5 -21 11 -47 35 -27 25 -54 43 -61 40 -10 -3 -10 0 -2 16
11 20 19 19 55 -10 18 -15 19 -15 6 2 -8 10 -28 28 -45 40 -22 15 -27 16 -17
4 23 -29 -2 -18 -44 19 -56 49 -124 82 -155 74z"/>
<path d="M2372 1688 c3 -7 13 -15 24 -17 16 -3 17 -1 5 13 -16 19 -34 21 -29
4z"/>
<path d="M2320 1681 c0 -6 5 -13 10 -16 7 -4 6 -14 -1 -28 -7 -12 -8 -19 -4
-15 5 4 14 3 22 -3 9 -8 13 -8 13 -1 0 6 -5 14 -10 17 -6 4 -8 10 -5 15 7 11
-5 40 -16 40 -5 0 -9 -4 -9 -9z"/>
<path d="M2235 1640 c11 -12 30 -20 49 -20 l31 1 -24 19 c-13 11 -35 20 -49
20 -24 0 -25 0 -7 -20z"/>
<path d="M2573 1635 c7 -13 18 -27 25 -30 9 -3 7 5 -5 25 -21 36 -36 40 -20 5z"/>
<path d="M886 1641 c-9 -15 53 -19 65 -4 9 10 4 13 -24 13 -20 0 -38 -4 -41
-9z"/>
<path d="M870 1611 c0 -15 38 -56 45 -49 4 4 -1 18 -12 32 -18 26 -33 33 -33
17z"/>
<path d="M910 1611 c0 -11 31 -24 39 -16 3 3 -1 10 -9 15 -19 12 -30 12 -30 1z"/>
<path d="M2270 1592 l-35 -17 28 -3 c15 -2 27 -8 27 -13 0 -15 47 -10 61 8 16
19 16 23 -3 34 -19 13 -39 11 -78 -9z"/>
<path d="M605 1540 c3 -5 15 -10 26 -10 11 0 17 5 14 10 -3 6 -15 10 -26 10
-11 0 -17 -4 -14 -10z"/>
<path d="M2610 1540 c-12 -8 -12 -10 3 -16 9 -3 29 -3 44 1 21 5 24 8 12 16
-18 11 -40 11 -59 -1z"/>
<path d="M2436 1492 c7 -49 9 -186 5 -239 -4 -38 -6 -41 -23 -32 -17 9 -18 8
-6 -10 16 -27 23 -26 42 1 12 17 16 48 15 133 0 124 -8 179 -26 182 -9 2 -11
-8 -7 -35z"/>
<path d="M654 1495 c-3 -14 -10 -22 -15 -19 -5 3 -9 0 -9 -5 0 -6 -7 -11 -15
-11 -8 0 -15 -4 -15 -10 0 -13 6 -13 40 5 19 10 30 23 30 37 0 19 4 20 41 14
26 -4 38 -3 34 4 -3 5 -24 10 -45 10 -34 0 -41 -4 -46 -25z"/>
<path d="M2520 1510 c20 -13 43 -13 35 0 -3 6 -16 10 -28 10 -18 0 -19 -2 -7
-10z"/>
<path d="M585 1500 c-4 -6 6 -10 22 -10 22 0 25 2 13 10 -19 12 -27 12 -35 0z"/>
<path d="M2305 1481 c6 -19 4 -21 -18 -16 -14 4 -28 2 -31 -3 -7 -12 22 -25
36 -16 6 4 19 -4 29 -17 25 -33 35 -17 15 25 -19 41 -42 60 -31 27z"/>
<path d="M2500 1481 c0 -17 24 -51 36 -51 14 0 1 51 -16 60 -17 9 -20 8 -20
-9z"/>
<path d="M2587 1489 c-9 -5 -22 -7 -28 -3 -18 11 0 -38 22 -61 18 -18 19 -18
19 -2 0 10 -4 26 -9 36 -8 15 -5 16 27 13 33 -4 35 -3 23 12 -15 18 -29 20
-54 5z"/>
<path d="M841 1466 c-16 -19 -11 -29 8 -17 7 5 12 14 9 21 -3 9 -8 7 -17 -4z"/>
<path d="M430 1434 c0 -3 5 -15 11 -27 19 -36 54 -52 42 -19 -11 32 -53 69
-53 46z"/>
<path d="M1503 1411 l-23 -19 26 -6 c36 -9 27 -38 -16 -50 -19 -5 -37 -13 -40
-17 -8 -12 -112 -17 -143 -6 -31 10 -97 1 -97 -14 0 -6 14 -8 32 -5 17 3 40 0
51 -6 11 -5 35 -10 54 -10 50 0 163 24 157 34 -3 4 0 8 5 8 6 0 11 -4 11 -10
0 -8 29 -15 31 -7 8 42 8 90 -1 106 -13 25 -19 26 -47 2z"/>
<path d="M2370 1411 c-5 -11 -10 -30 -10 -42 0 -18 -3 -20 -12 -11 -16 16 -51
16 -46 0 6 -18 55 -28 67 -15 11 14 26 87 17 87 -3 0 -10 -9 -16 -19z"/>
<path d="M2262 1409 c4 -12 66 -35 74 -27 9 10 -16 28 -45 34 -26 5 -33 4 -29
-7z"/>
<path d="M2621 1405 c0 -11 4 -29 9 -40 9 -20 9 -20 9 0 0 11 -4 29 -9 40 -9
20 -9 20 -9 0z"/>
<path d="M517 1388 c-7 -25 0 -41 14 -33 12 8 12 55 0 55 -5 0 -11 -10 -14
-22z"/>
<path d="M630 1395 c0 -8 4 -15 9 -15 5 0 11 7 15 15 3 9 0 15 -9 15 -8 0 -15
-7 -15 -15z"/>
<path d="M347 1385 c-25 -18 -21 -28 8 -21 27 7 67 -10 101 -42 14 -14 26 -17
35 -11 11 7 11 9 1 9 -7 0 -39 18 -70 39 -49 33 -60 37 -75 26z"/>
<path d="M961 1391 c-11 -7 -11 -15 0 -47 7 -22 12 -50 11 -64 l-1 -25 13 25
c24 44 23 120 -2 120 -4 0 -13 -4 -21 -9z"/>
<path d="M305 1340 c-4 -6 7 -10 24 -10 17 0 31 5 31 10 0 6 -11 10 -24 10
-14 0 -28 -4 -31 -10z"/>
<path d="M372 1328 c-6 -7 -13 -25 -17 -41 -11 -41 11 -33 25 9 13 38 9 52 -8
32z"/>
<path d="M399 1314 c-12 -14 -11 -16 5 -13 11 2 21 10 24 17 5 17 -13 15 -29
-4z"/>
<path d="M2550 1325 c0 -2 5 -16 10 -31 10 -24 14 -26 50 -21 37 5 39 4 29
-15 -8 -15 -14 -17 -22 -9 -6 6 -18 11 -26 11 -11 0 -9 -6 7 -23 21 -23 22
-25 6 -76 -17 -57 -12 -102 8 -68 5 10 11 28 13 40 2 12 9 42 15 67 6 24 13
65 15 90 4 37 2 42 -8 29 -7 -9 -23 -19 -36 -24 -19 -6 -22 -4 -17 12 4 14 0
18 -19 19 -14 1 -25 0 -25 -1z"/>
<path d="M556 1311 c-7 -10 52 -24 65 -15 5 3 7 10 4 15 -8 11 -62 12 -69 0z"/>
<path d="M1653 1308 c-6 -7 -13 -21 -16 -30 -3 -9 -14 -18 -24 -21 -10 -2 -6
-3 9 -1 15 2 29 -2 32 -9 3 -7 5 -6 4 3 -2 26 14 50 33 50 17 0 24 -11 20 -32
0 -5 6 -8 14 -8 8 0 15 -4 15 -10 0 -5 -12 -9 -27 -8 -53 1 -124 -9 -136 -21
-18 -18 2 -25 22 -7 11 10 22 13 25 8 3 -6 -5 -17 -18 -26 -22 -14 -23 -19
-14 -55 10 -40 40 -81 59 -81 12 0 54 41 61 61 4 11 12 8 34 -12 16 -15 50
-36 77 -47 26 -12 57 -28 70 -37 22 -17 22 -17 -10 -13 -20 3 -33 0 -33 -7 0
-13 40 -48 47 -41 7 7 142 -61 250 -127 185 -113 264 -169 259 -183 -7 -18 4
-45 15 -38 14 8 10 58 -6 82 -15 20 -15 21 2 15 10 -3 44 -29 76 -56 l59 -50
-29 -23 c-15 -12 -71 -63 -123 -113 -52 -50 -100 -91 -107 -91 -17 0 -16 -18
1 -36 21 -21 39 -17 33 6 -3 11 -1 23 4 26 5 3 9 0 9 -7 0 -8 4 -8 15 1 8 7
13 16 10 20 -3 4 3 14 13 21 15 13 16 12 3 -3 -20 -26 -5 -22 35 8 19 15 33
33 32 42 -2 8 6 16 17 18 19 3 54 36 73 71 8 14 21 6 86 -53 42 -38 97 -93
122 -121 25 -29 51 -53 59 -53 71 0 -42 159 -211 296 -183 150 -198 160 -464
322 -161 98 -308 172 -343 172 -11 0 -17 3 -14 7 4 3 2 12 -5 20 -17 21 -1 28
40 17 20 -5 60 -6 87 -2 28 4 124 12 215 18 236 16 280 21 280 30 0 4 -24 18
-52 31 -46 20 -71 23 -183 25 -92 1 -111 0 -65 -5 l65 -7 -45 -6 c-25 -4 -94
-10 -155 -13 -60 -3 -128 -10 -150 -15 -46 -10 -62 -1 -46 28 8 16 7 27 -7 51
-14 26 -23 31 -53 31 -20 0 -41 -6 -46 -12z m47 -114 c0 -15 6 -24 15 -24 8 0
15 -4 15 -10 0 -12 -17 -13 -24 -1 -3 5 -15 7 -26 4 -11 -3 -20 0 -20 6 0 6 5
11 10 11 6 0 10 12 10 26 0 14 4 23 10 19 6 -3 10 -17 10 -31z m-53 -24 c1
-11 -3 -20 -8 -20 -6 0 -7 -4 -4 -10 3 -5 2 -10 -3 -10 -11 0 -23 40 -16 52
10 15 30 8 31 -12z m31 -52 c-6 -16 -36 -34 -44 -25 -9 9 15 37 33 37 8 0 13
-5 11 -12z"/>
<path d="M2377 1313 c-3 -4 1 -17 9 -28 10 -13 14 -15 14 -4 0 20 -16 43 -23
32z"/>
<path d="M525 1280 c20 -106 32 -151 43 -162 9 -9 12 -8 12 7 0 33 -32 149
-47 170 -14 19 -15 18 -8 -15z"/>
<path d="M770 1302 c0 -4 -3 -71 -6 -149 -6 -132 -5 -143 13 -167 19 -24 22
-24 34 -9 12 15 12 16 -5 10 -13 -5 -17 -3 -13 6 3 7 1 35 -4 63 -5 27 -5 88
-1 137 5 58 4 87 -3 87 -5 0 -4 4 3 9 11 7 11 9 -2 14 -9 4 -16 3 -16 -1z"/>
<path d="M415 1270 c-8 -13 3 -50 16 -50 12 0 12 47 0 55 -5 3 -12 1 -16 -5z"/>
<path d="M908 1248 c-28 -57 -23 -73 11 -39 12 12 27 17 40 14 12 -3 21 -1 21
6 0 6 -11 11 -24 11 -18 0 -25 6 -28 23 -3 19 -5 18 -20 -15z"/>
<path d="M2540 1227 c0 -15 40 -61 46 -54 3 2 -1 16 -7 30 -13 28 -39 44 -39
24z"/>
<path d="M310 1205 c7 -8 28 -15 47 -15 30 0 34 2 23 15 -7 8 -28 15 -47 15
-30 0 -34 -2 -23 -15z"/>
<path d="M851 1169 c-1 -21 5 -42 14 -49 18 -15 61 -6 69 15 7 19 -1 19 -36 1
-26 -14 -28 -14 -29 7 0 12 -4 31 -9 42 -7 16 -9 13 -9 -16z"/>
<path d="M50 1177 c0 -9 4 -26 9 -39 5 -13 15 -44 22 -70 8 -27 19 -48 26 -48
18 0 17 10 -15 89 -31 76 -42 94 -42 68z"/>
<path d="M431 1185 c-1 -5 -16 -10 -34 -11 -18 0 -44 -8 -57 -17 l-24 -17 36
0 c20 0 40 5 43 10 11 19 22 10 20 -15 -2 -14 0 -25 4 -25 14 0 28 45 20 65
-4 11 -8 16 -8 10z"/>
<path d="M595 1159 c-10 -43 -1 -46 12 -4 6 19 7 35 3 35 -5 0 -11 -14 -15
-31z"/>
<path d="M906 1174 c-9 -8 -16 -17 -16 -19 0 -9 66 9 80 21 12 12 10 14 -17
14 -17 0 -39 -7 -47 -16z"/>
<path d="M2447 1173 c-11 -10 -8 -63 3 -63 6 0 10 6 10 13 0 6 3 22 6 35 6 21
-5 30 -19 15z"/>
<path d="M460 1151 c0 -9 64 -61 74 -61 17 0 1 20 -34 43 -22 14 -40 22 -40
18z"/>
<path d="M2218 1118 c9 -9 6 -17 -15 -35 -21 -17 -24 -22 -11 -23 9 0 23 7 32
15 10 10 24 13 41 9 34 -8 25 16 -12 34 -34 15 -51 16 -35 0z"/>
<path d="M2310 1104 c0 -12 7 -27 15 -34 22 -18 18 -30 -9 -30 -26 0 -43 -15
-27 -24 5 -4 21 -2 35 4 32 12 35 47 6 81 -19 24 -19 24 -20 3z"/>
<path d="M570 1083 c1 -10 7 -49 15 -88 8 -38 17 -81 19 -95 7 -41 25 -80 36
-80 13 0 6 57 -15 124 -14 47 -14 49 8 67 l22 19 -29 -2 c-18 -2 -31 2 -34 11
-3 10 2 12 19 8 39 -10 67 2 67 28 0 17 -6 23 -25 23 -16 0 -22 -5 -19 -14 3
-9 -2 -14 -15 -14 -11 0 -22 7 -25 15 -8 21 -24 19 -24 -2z"/>
<path d="M836 1074 c-9 -23 -7 -36 3 -30 12 8 21 46 11 46 -4 0 -11 -7 -14
-16z"/>
<path d="M2445 1080 c3 -5 3 -10 -2 -10 -13 0 -10 -173 3 -177 7 -2 12 16 13
54 0 31 3 65 6 74 3 10 1 20 -5 24 -6 4 -8 15 -5 26 4 11 2 19 -5 19 -6 0 -8
-4 -5 -10z"/>
<path d="M373 1067 c4 -10 -2 -13 -19 -9 -29 5 -33 -17 -5 -25 12 -3 17 -11
14 -19 -7 -18 21 -19 36 -1 8 10 7 17 -2 26 -10 11 -8 11 11 1 32 -16 38 -6
13 19 -24 24 -56 29 -48 8z"/>
<path d="M2243 1058 c-26 -13 -29 -23 -9 -31 16 -6 69 26 59 36 -9 9 -24 8
-50 -5z"/>
<path d="M450 1033 c1 -12 79 -65 91 -61 5 2 -9 18 -32 36 -42 32 -59 39 -59
25z"/>
<path d="M2700 1009 c0 -17 -5 -40 -11 -52 -10 -21 -10 -21 5 -3 15 18 23 86
11 86 -3 0 -5 -14 -5 -31z"/>
<path d="M2509 1009 c-11 -11 -18 -23 -15 -26 9 -9 34 5 46 26 14 28 -3 28
-31 0z"/>
<path d="M410 990 c0 -23 4 -30 20 -30 13 0 20 7 20 20 0 10 -9 24 -20 30 -18
10 -20 8 -20 -20z"/>
<path d="M655 980 c-9 -16 -12 -30 -7 -30 12 0 42 34 42 48 0 22 -19 12 -35
-18z"/>
<path d="M460 961 c0 -17 4 -32 9 -35 11 -7 22 31 14 50 -9 24 -23 15 -23 -15z"/>
<path d="M1820 982 c0 -4 9 -35 21 -67 53 -149 79 -292 82 -443 3 -120 5 -134
24 -154 l22 -21 61 41 c33 23 65 42 70 42 6 0 10 5 10 10 0 6 9 10 20 10 12 0
32 11 45 24 13 14 34 27 45 31 11 3 20 15 20 25 0 13 5 17 20 13 14 -4 20 0
20 11 0 9 -4 16 -10 16 -5 0 -7 7 -4 15 9 21 -10 19 -31 -5 -10 -11 -26 -22
-35 -25 -10 -3 -20 -15 -23 -27 -4 -14 -11 -19 -21 -15 -10 4 -16 1 -16 -9 0
-8 -5 -12 -10 -9 -6 4 -17 1 -25 -5 -8 -6 -20 -8 -26 -4 -8 4 -9 3 -5 -4 4 -7
3 -12 -3 -12 -19 0 -82 -43 -72 -49 11 -7 5 -19 -22 -40 -17 -14 -18 -10 -16
70 3 106 -6 229 -20 294 -26 113 -43 179 -59 225 -3 8 -4 19 -3 23 1 5 -2 6
-7 3 -5 -3 -14 6 -20 19 -11 23 -32 35 -32 17z"/>
<path d="M770 926 c0 -19 5 -38 10 -41 6 -4 10 8 10 29 0 19 -4 38 -10 41 -6
4 -10 -8 -10 -29z"/>
<path d="M970 925 c-11 -13 -8 -15 17 -15 16 0 38 7 49 15 18 13 17 14 -17 15
-21 0 -42 -7 -49 -15z"/>
<path d="M883 918 c-5 -7 -10 -23 -11 -35 -1 -32 26 -29 34 3 8 30 -8 52 -23
32z"/>
<path d="M942 894 c-21 -9 -3 -24 29 -24 20 0 29 4 27 13 -5 13 -35 19 -56 11z"/>
<path d="M477 861 c-20 -34 -14 -60 9 -40 10 8 14 8 15 0 1 -6 3 -15 4 -21 1
-5 3 -17 4 -25 2 -22 31 -18 31 3 0 11 -9 27 -19 36 -11 10 -21 31 -23 48 l-3
30 -18 -31z"/>
<path d="M2425 830 c-7 -49 -2 -70 16 -70 5 0 9 27 9 60 0 73 -15 79 -25 10z"/>
<path d="M775 860 c-8 -12 2 -30 17 -30 7 0 7 4 -1 13 -6 8 -8 17 -4 20 3 4 4
7 0 7 -3 0 -9 -4 -12 -10z"/>
<path d="M555 841 c4 -22 31 -50 48 -51 12 0 8 8 -23 41 -27 30 -29 31 -25 10z"/>
<path d="M926 851 c-3 -5 1 -12 10 -15 27 -11 37 -7 24 9 -14 17 -26 19 -34 6z"/>
<path d="M994 815 c11 -8 29 -15 39 -15 16 0 17 3 7 15 -7 8 -24 15 -39 15
-25 -1 -25 -1 -7 -15z"/>
<path d="M686 785 c7 -17 43 -40 51 -32 2 3 0 15 -7 26 -13 25 -53 30 -44 6z"/>
<path d="M1700 771 c-12 -24 -13 -34 -1 -27 9 6 22 46 15 46 -2 0 -8 -9 -14
-19z"/>
<path d="M2340 625 c-18 -19 -26 -22 -32 -13 -5 9 -8 6 -8 -8 0 -11 -3 -24 -7
-28 -4 -4 -9 -18 -10 -32 -4 -24 -3 -25 24 -10 44 24 82 62 79 80 -5 33 -22
37 -46 11z m4 -30 c-6 -16 -24 -21 -24 -7 0 11 11 22 21 22 5 0 6 -7 3 -15z"/>
<path d="M495 599 c-12 -19 5 -23 22 -6 16 16 16 17 1 17 -9 0 -20 -5 -23 -11z"/>
<path d="M617 594 c3 -8 12 -13 20 -10 8 3 17 6 19 6 3 0 2 5 -1 10 -11 17
-45 12 -38 -6z"/>
<path d="M563 588 c-19 -25 -24 -38 -14 -38 11 0 35 39 28 46 -2 3 -9 -1 -14
-8z"/>
<path d="M590 567 c0 -7 10 -18 21 -26 18 -10 23 -10 30 0 5 8 -1 17 -18 26
-31 16 -33 16 -33 0z"/>
<path d="M915 507 c0 -30 -2 -33 -17 -24 -9 6 -21 20 -27 32 -5 11 -10 14 -10
7 -1 -17 39 -75 46 -68 3 3 17 -3 31 -14 13 -11 28 -17 33 -14 14 8 0 24 -20
24 -13 0 -17 8 -17 35 0 19 -5 40 -10 45 -7 7 -10 0 -9 -23z"/>
<path d="M978 504 c-16 -8 -28 -19 -28 -24 0 -18 28 -10 57 15 32 28 15 33
-29 9z"/>
<path d="M1030 483 c0 -5 11 -20 25 -33 18 -17 28 -21 36 -13 8 8 8 13 0 17
-6 4 -11 4 -11 0 0 -4 -11 3 -25 16 -14 13 -25 19 -25 13z"/>
<path d="M1753 455 c-15 -17 -17 -32 -4 -39 5 -3 8 2 7 12 0 10 6 17 16 16 10
-1 14 4 11 12 -6 17 -15 17 -30 -1z"/>
<path d="M870 440 c6 -11 17 -20 25 -20 13 0 13 3 3 20 -7 11 -19 20 -26 20
-10 0 -10 -5 -2 -20z"/>
<path d="M918 390 c-12 -39 -10 -86 3 -73 5 5 9 30 7 54 -3 37 -4 40 -10 19z"/>
<path d="M961 400 c-11 -6 -8 -11 9 -20 15 -8 25 -9 32 -2 14 14 -24 33 -41
22z"/>
<path d="M852 388 c-16 -16 -15 -28 3 -28 8 0 19 9 25 20 8 15 8 20 -3 20 -7
0 -18 -5 -25 -12z"/>
<path d="M1483 352 c-65 -18 -90 -32 -56 -32 32 0 123 30 123 40 0 6 -1 10 -2
9 -2 0 -31 -8 -65 -17z"/>
<path d="M2225 324 c-16 -14 -24 -23 -17 -19 7 4 12 -1 12 -14 0 -24 -15 -28
-24 -6 -4 13 -9 13 -25 3 -11 -7 -18 -15 -15 -19 2 -4 -41 -36 -95 -70 -140
-90 -133 -104 14 -32 98 47 117 59 127 77 5 9 14 16 21 16 7 0 27 13 46 29 32
26 34 30 19 45 -22 21 -28 20 -63 -10z"/>
<path d="M1511 314 c-19 -9 -44 -13 -55 -10 -12 3 -27 1 -35 -3 -10 -6 -5 -11
18 -16 39 -8 79 0 111 25 30 23 11 25 -39 4z"/>
<path d="M1075 311 c-3 -5 4 -13 16 -16 28 -9 33 -2 9 13 -11 6 -21 8 -25 3z"/>
<path d="M1830 313 c5 -2 10 -9 10 -14 0 -12 -32 -8 -43 6 -5 6 -7 4 -4 -5 5
-19 52 -20 52 -1 0 8 -6 15 -13 17 -7 1 -8 0 -2 -3z"/>
<path d="M1445 214 c-17 -8 -22 -12 -12 -9 10 3 37 5 59 5 45 0 48 6 8 13 -14
3 -39 -1 -55 -9z"/>
<path d="M1466 181 c-16 -3 -31 -12 -34 -19 -3 -11 0 -12 16 -3 11 6 28 8 36
5 11 -4 16 -1 16 10 0 9 -1 15 -2 15 -2 -1 -16 -4 -32 -8z"/>
</g>
</svg>
