<?xml version="1.0" standalone="no"?>
<!DOCTYPE svg PUBLIC "-//W3C//DTD SVG 20010904//EN"
 "http://www.w3.org/TR/2001/REC-SVG-20010904/DTD/svg10.dtd">
<svg version="1.0" xmlns="http://www.w3.org/2000/svg"
 width="300.000000pt" height="376.000000pt" viewBox="0 0 300.000000 376.000000"
 preserveAspectRatio="xMidYMid meet">
<metadata>
Created by potrace 1.10, written by Peter Selinger 2001-2011
</metadata>
<g transform="translate(0.000000,376.000000) scale(0.100000,-0.100000)"
fill="#00000" stroke="none">
<path d="M1688 3621 c17 -16 32 -33 32 -39 0 -5 7 -12 15 -15 11 -5 12 -1 5
18 -5 14 -6 25 -2 25 9 0 -35 23 -63 33 -13 5 -9 -2 13 -22z"/>
<path d="M1740 3546 c0 -2 11 -27 25 -54 14 -28 25 -55 25 -60 0 -6 3 -12 8
-14 4 -1 17 -23 29 -48 37 -75 123 -261 123 -265 0 -3 28 -66 125 -280 16 -36
86 -234 129 -367 22 -69 36 -98 47 -98 25 0 29 11 13 36 -16 23 -83 204 -88
234 -1 8 -7 24 -13 35 -6 11 -14 38 -18 60 -9 53 -70 211 -98 255 -24 38 -48
86 -69 137 -7 17 -15 30 -19 27 -4 -2 -9 3 -13 11 -3 8 -1 15 5 15 6 0 9 6 6
13 -2 6 -10 11 -17 9 -8 -2 -10 3 -6 14 7 18 -71 190 -98 217 -8 8 -22 29 -31
48 -24 52 -39 74 -53 77 -6 1 -12 0 -12 -2z"/>
<path d="M2031 3141 c6 -17 15 -34 21 -37 6 -4 6 1 -1 13 -6 11 -8 23 -5 25 2
3 -2 11 -11 18 -13 11 -13 8 -4 -19z"/>
<path d="M1660 2970 c12 -16 18 -36 14 -42 -4 -7 1 -6 11 4 17 15 17 17 -1 42
-11 14 -25 26 -32 26 -9 0 -7 -9 8 -30z"/>
<path d="M1602 2944 c-9 -9 -18 -12 -25 -6 -20 14 -134 6 -161 -12 -14 -9 -34
-16 -44 -16 -12 0 -22 -12 -31 -35 -7 -19 -16 -35 -20 -35 -4 0 -8 -7 -8 -15
0 -8 4 -12 9 -9 20 12 5 -18 -20 -43 -24 -23 -30 -40 -35 -90 -6 -59 -5 -64
18 -79 23 -15 37 -43 15 -29 -10 6 -14 -18 -11 -60 2 -17 0 -17 -8 -5 -9 12
-11 10 -12 -10 -1 -14 -1 -29 0 -33 1 -5 -3 -6 -8 -2 -6 3 -17 -8 -26 -25 -17
-32 -12 -36 33 -23 16 4 20 8 12 13 -8 5 5 11 30 15 l42 7 -27 18 c-26 17 -26
18 -7 24 11 4 22 18 25 34 l5 27 -19 -24 c-11 -13 -23 -20 -27 -16 -4 4 -2 10
5 12 7 2 10 10 7 18 -4 9 4 15 26 17 32 3 32 3 13 24 -10 11 -25 23 -33 27 -8
3 2 6 23 6 20 1 37 6 37 12 0 15 -26 39 -34 32 -3 -4 -6 1 -6 10 0 10 11 17
33 20 31 4 31 4 -5 5 -21 1 -38 7 -38 13 0 5 5 7 10 4 6 -3 10 -1 10 4 0 6 -5
11 -12 11 -7 0 -6 5 4 13 9 6 19 32 22 56 7 47 34 107 43 97 4 -3 18 4 31 16
14 13 22 18 18 11 -4 -7 0 -12 11 -11 10 0 37 -3 61 -7 32 -6 42 -4 42 6 0 10
3 10 12 1 17 -17 33 -15 18 3 -7 8 -8 15 -3 15 15 0 40 -31 53 -64 8 -22 14
-26 22 -18 8 8 4 20 -16 47 -15 19 -32 35 -38 35 -6 0 -8 3 -5 7 18 18 117
-130 117 -175 0 -14 10 -15 30 -2 8 5 10 10 4 10 -6 0 -28 31 -48 70 -20 38
-41 72 -47 75 -5 4 -7 11 -4 16 4 5 -6 14 -20 19 -31 12 -27 13 -43 -6z m-225
-71 c-8 -16 -16 -35 -19 -42 -4 -13 -5 -12 -10 1 -4 9 3 27 15 42 27 33 31 33
14 -1z m-58 -180 c6 -31 9 -58 7 -61 -3 -2 -8 12 -11 32 -4 20 -11 39 -16 42
-12 7 -12 44 0 44 4 0 13 -26 20 -57z"/>
<path d="M1700 2903 c0 -5 18 -38 41 -73 28 -44 43 -60 51 -52 6 6 17 8 25 5
12 -5 12 0 -2 28 -25 49 -56 91 -63 85 -2 -3 1 -12 8 -21 26 -32 -1 -27 -30 5
-17 19 -30 29 -30 23z"/>
<path d="M1616 2843 c10 -47 12 -51 35 -63 15 -8 19 -9 15 -1 -4 6 -3 11 1 11
5 0 14 -9 21 -20 7 -11 16 -20 22 -20 17 0 0 26 -30 43 -17 10 -31 29 -35 47
-4 17 -13 30 -21 30 -10 0 -13 -7 -8 -27z"/>
<path d="M1590 2837 c0 -8 -3 -22 -6 -30 -3 -8 1 -17 10 -20 11 -4 14 1 10 25
-4 33 -14 51 -14 25z"/>
<path d="M1535 2781 c5 -28 3 -40 -8 -44 -9 -3 -14 1 -14 11 0 41 -2 45 -17
33 -12 -10 -15 -8 -19 11 -2 13 -3 -1 -3 -29 1 -51 2 -53 29 -53 15 0 27 6 27
13 0 9 2 9 8 -1 5 -7 16 -10 25 -6 22 8 22 20 0 28 -14 6 -15 9 -4 16 9 5 11
14 6 26 -5 11 -7 22 -7 27 1 4 -5 7 -14 7 -13 0 -15 -7 -9 -39z"/>
<path d="M2172 2784 c4 -23 27 -31 24 -8 -2 10 -8 20 -15 22 -8 3 -12 -3 -9
-14z"/>
<path d="M1431 2745 c1 -40 1 -40 10 -10 5 18 5 33 -1 39 -7 7 -10 -4 -9 -29z"/>
<path d="M1590 2746 c0 -18 6 -26 22 -28 12 -2 23 -9 26 -17 3 -8 0 -11 -7 -7
-6 4 -11 4 -11 -1 0 -8 -62 -33 -87 -35 -7 -1 -13 -7 -13 -13 0 -16 70 -11 81
6 4 8 7 -15 6 -53 l-2 -67 -40 -7 c-25 -4 -40 -3 -43 5 -3 8 -9 8 -24 0 -12
-6 -38 -9 -59 -6 -22 3 -39 1 -39 -4 0 -5 23 -9 51 -9 31 0 48 -4 44 -10 -3
-5 -1 -10 4 -10 6 0 11 5 11 10 0 7 20 9 51 7 44 -4 52 -2 59 17 4 11 4 29 -1
38 -6 11 -4 22 7 32 8 9 11 16 5 16 -14 0 -14 37 0 45 17 11 23 -3 8 -22 -8
-9 -9 -14 -3 -10 8 4 12 -11 12 -48 0 -30 -3 -55 -6 -55 -4 0 -7 -21 -7 -48
-1 -26 -4 -60 -8 -75 -7 -26 -10 -27 -45 -20 -62 13 -264 8 -297 -8 -18 -9
-39 -31 -52 -59 -29 -60 -29 -69 3 -34 l25 29 -18 -37 c-10 -21 -24 -38 -31
-38 -7 0 -10 -4 -7 -10 3 -5 1 -10 -4 -10 -6 0 -11 -4 -11 -10 0 -5 6 -7 14
-4 19 7 9 -36 -12 -52 -8 -6 -12 -20 -9 -35 4 -23 4 -23 6 4 1 37 18 35 19 -3
0 -19 -4 -30 -13 -30 -7 0 -16 -8 -20 -17 -10 -27 -16 -244 -7 -278 8 -27 13
-31 63 -38 30 -4 124 -18 209 -32 85 -13 169 -26 185 -27 31 -3 47 -16 39 -30
-3 -4 -11 -8 -17 -8 -7 0 -6 4 3 10 11 8 9 9 -10 5 -14 -3 -77 4 -140 15 -63
11 -153 25 -200 31 -47 5 -97 14 -112 19 -16 5 -28 5 -28 0 0 -10 25 -15 140
-31 77 -10 268 -42 329 -55 13 -3 21 -7 18 -10 -3 -3 -67 4 -142 16 -75 12
-138 20 -141 18 -4 -5 67 -19 205 -41 46 -8 76 -18 79 -26 3 -9 0 -11 -7 -7
-6 4 -35 10 -64 12 -29 3 -77 12 -108 20 -31 7 -72 14 -91 14 -49 0 -148 -21
-148 -31 0 -5 -8 -9 -17 -9 -34 -1 30 -27 82 -34 28 -4 78 -14 113 -23 48 -12
66 -13 74 -5 9 9 0 12 -36 12 -43 0 -47 2 -36 15 7 9 19 14 25 11 7 -2 18 0
26 6 9 6 -4 7 -39 3 -67 -9 -185 3 -176 17 3 5 21 7 38 4 18 -3 54 -2 81 3 60
11 196 -9 253 -38 20 -10 43 -16 50 -14 6 3 12 1 12 -5 0 -17 -13 -21 -34 -11
-11 6 -5 -3 14 -19 39 -34 33 -43 -8 -13 -64 44 -157 76 -147 49 3 -7 15 -14
28 -15 23 -1 54 -13 95 -37 17 -10 20 -15 10 -19 -8 -3 -6 -6 6 -6 11 -1 28
-8 38 -18 17 -15 18 -15 18 5 0 22 10 28 23 15 4 -3 0 -16 -8 -29 -21 -32 1
-127 53 -232 23 -45 46 -100 52 -122 7 -25 15 -38 22 -34 7 4 8 3 4 -4 -6 -10
5 -66 21 -108 3 -8 -1 -14 -10 -14 -9 0 -22 27 -37 80 -19 66 -25 78 -37 68
-8 -6 -30 -11 -49 -10 -25 1 -33 -2 -28 -11 4 -7 4 -9 -1 -5 -4 4 -14 3 -22
-3 -9 -9 -13 -8 -13 0 0 6 -4 11 -10 11 -5 0 -7 -7 -4 -15 7 -17 78 -12 100 6
8 7 19 7 30 1 14 -8 11 -11 -16 -21 -18 -6 -42 -11 -53 -11 -11 0 -17 -3 -13
-7 3 -4 24 -6 46 -5 37 3 39 1 51 -37 7 -22 16 -38 20 -35 5 3 6 -3 2 -13 -3
-10 -3 -15 2 -11 4 4 14 3 21 -3 10 -8 18 -7 30 5 22 23 35 11 34 -32 -2 -53
3 -74 20 -93 8 -9 24 -28 35 -42 11 -14 26 -26 33 -27 6 0 12 -4 12 -8 0 -4
14 -16 30 -25 17 -10 30 -16 30 -12 0 13 -54 64 -81 75 -16 7 -27 16 -24 20 3
5 1 10 -4 12 -5 1 -14 46 -20 98 -11 92 -39 205 -49 196 -2 -3 3 -26 12 -52
18 -53 20 -74 8 -74 -5 0 -19 38 -31 85 -13 46 -31 95 -41 107 -9 13 -35 52
-57 88 -34 56 -41 76 -46 140 l-6 75 19 -60 c11 -33 20 -66 20 -74 0 -27 12
-1 21 44 8 44 7 50 -26 93 -19 26 -44 57 -56 68 -17 17 -19 26 -10 40 10 18
10 18 11 -1 0 -45 20 -44 71 6 27 26 49 54 49 61 0 8 -4 6 -11 -4 -5 -10 -16
-18 -23 -18 -7 0 -23 -11 -36 -25 -35 -38 -45 -30 -13 10 15 19 32 35 37 35
13 0 76 70 76 85 0 9 -39 35 -55 35 -2 0 -22 -30 -45 -66 -33 -53 -39 -69 -28
-76 10 -8 9 -9 -4 -4 -10 3 -20 1 -23 -4 -4 -6 -13 -10 -22 -10 -11 0 -14 7
-10 23 3 12 8 33 11 46 22 93 39 166 41 169 1 1 19 -5 40 -14 29 -12 44 -13
62 -5 16 8 30 7 48 -1 22 -10 33 -6 97 38 40 26 96 71 123 99 47 49 52 51 85
43 97 -23 110 -29 110 -48 0 -23 10 -26 28 -8 10 10 15 10 21 -1 6 -9 11 -10
15 -2 4 6 17 11 30 11 12 0 28 6 36 13 8 6 6 2 -4 -10 -9 -11 -28 -24 -42 -27
-26 -7 -29 -17 -14 -46 12 -22 41 -17 67 13 16 19 16 20 1 8 -11 -8 -18 -9
-18 -3 0 6 9 16 20 22 15 8 19 17 14 34 -3 13 -1 27 5 30 7 5 11 -3 12 -21 0
-26 1 -27 11 -7 15 33 -35 131 -72 139 -23 5 -30 14 -39 50 -10 40 -9 47 14
81 13 20 27 50 30 68 8 41 -10 90 -31 82 -8 -3 -17 1 -20 9 -4 8 -17 15 -30
15 -27 0 -33 -20 -6 -21 19 -1 -74 -37 -98 -38 -13 -1 -13 0 0 9 18 11 6 25
-15 16 -10 -3 -14 -13 -11 -23 9 -30 -8 -47 -34 -33 -12 6 -33 9 -46 6 -15 -4
-39 1 -64 14 -28 14 -46 18 -57 12 -10 -6 -32 -4 -63 7 -42 14 -47 19 -56 58
-10 42 -10 42 20 45 37 4 43 21 17 47 -25 25 -63 27 -95 6 -36 -24 -64 -26
-71 -6 -3 10 -11 18 -18 18 -6 0 -21 4 -32 8 -20 7 -20 6 -1 -9 11 -9 26 -16
33 -16 7 0 13 -7 13 -15 0 -7 8 -18 17 -24 10 -5 15 -13 11 -17 -4 -4 -13 -2
-20 4 -9 7 -18 6 -32 -4 -10 -7 -23 -11 -27 -8 -5 3 -6 -2 -3 -10 3 -9 9 -15
12 -14 18 2 22 -4 13 -21 -8 -14 -7 -22 4 -31 17 -14 21 -35 5 -25 -5 3 -3 -7
5 -22 8 -15 17 -37 20 -48 6 -20 6 -20 21 0 13 18 13 20 0 23 -15 3 -18 10
-20 57 -1 11 -6 19 -13 18 -6 -2 -11 6 -10 17 1 14 5 16 13 9 8 -6 14 -6 18
-1 3 6 -1 12 -9 16 -8 3 -15 10 -15 16 0 11 29 14 31 3 7 -40 10 -62 11 -85 1
-15 5 -25 9 -22 5 2 5 12 2 21 -5 13 -2 15 18 10 13 -4 27 -7 32 -7 13 0 7
-32 -12 -58 -26 -37 -34 -69 -20 -77 13 -9 30 14 26 35 -1 8 5 23 14 33 9 10
20 33 23 50 6 30 8 31 18 12 7 -11 11 -35 10 -53 -2 -22 1 -31 8 -27 6 3 8 10
5 14 -10 17 22 42 60 48 36 6 39 5 26 -10 -7 -9 -18 -14 -25 -10 -7 4 -7 1 1
-8 10 -12 10 -18 0 -29 -6 -8 -3 -7 9 3 11 9 25 17 31 17 6 0 13 6 16 13 3 9
16 12 36 9 l32 -4 -31 -23 c-17 -13 -46 -40 -65 -61 -21 -24 -34 -33 -35 -24
0 12 -2 13 -9 1 -14 -22 -51 -4 -52 27 -1 21 -2 23 -6 7 -3 -11 -10 -25 -15
-32 -5 -7 -7 -17 -3 -23 3 -5 1 -10 -4 -10 -6 0 -11 12 -12 28 0 23 -1 24 -8
7 -8 -20 -8 -20 -13 0 -4 19 -5 19 -17 -3 -16 -30 -11 -35 43 -37 24 -1 48 -5
53 -8 15 -9 87 13 96 29 4 8 26 23 48 34 36 19 52 40 29 40 -5 0 -10 -5 -10
-11 0 -5 -5 -7 -10 -4 -15 9 -3 23 40 45 47 24 50 24 50 4 0 -9 -5 -12 -12 -8
-8 5 -9 -2 -5 -26 6 -28 1 -39 -35 -84 -76 -93 -106 -120 -122 -107 -20 17
-28 -1 -16 -33 5 -14 7 -26 3 -26 -3 0 6 -10 21 -21 15 -12 25 -28 22 -35 -4
-11 1 -10 20 3 33 21 114 121 114 140 0 8 5 11 10 8 6 -3 10 1 10 10 0 9 5 13
10 10 6 -3 10 -1 10 6 0 7 7 21 17 31 13 14 13 18 2 18 -11 0 -85 -84 -167
-188 -11 -15 -13 -15 -29 0 -15 15 -11 22 45 83 34 37 60 70 59 74 -3 12 35
61 44 55 5 -3 6 2 2 12 -5 13 -2 15 13 10 16 -5 20 -1 21 22 0 15 -1 19 -4 10
-6 -22 -17 -23 -33 -3 -9 10 -9 15 -1 15 6 0 11 8 11 18 0 13 2 14 9 3 5 -7
10 -9 12 -4 2 5 25 24 51 42 42 30 50 33 75 22 15 -6 36 -25 45 -42 16 -26 16
-33 4 -50 -13 -19 -14 -18 -40 16 -33 43 -47 44 -67 1 l-15 -34 23 11 c13 5
23 15 23 20 0 6 10 0 22 -12 17 -19 19 -27 10 -42 -15 -24 -15 -32 1 -23 6 4
9 4 5 -1 -4 -4 -3 -17 3 -27 8 -15 8 -23 -1 -32 -9 -8 -11 -7 -10 4 4 27 0 40
-11 40 -12 0 -4 -80 9 -90 11 -8 8 -45 -3 -42 -6 2 -9 10 -9 18 3 24 -6 16
-17 -16 -6 -16 -15 -27 -20 -24 -14 9 -10 54 6 60 11 5 12 9 2 19 -13 14 -31
9 -22 -6 4 -5 1 -9 -6 -9 -7 0 -9 -3 -6 -7 4 -3 2 -12 -4 -20 -9 -10 -8 -13 2
-14 8 0 5 -4 -6 -8 -22 -9 -57 7 -48 22 3 5 10 3 15 -4 7 -10 8 -8 4 7 -5 15
3 28 28 49 19 16 33 32 30 36 -2 4 0 10 6 14 16 10 11 23 -7 21 -11 -2 -18
-12 -18 -23 0 -32 -194 -217 -260 -249 -30 -14 -61 -32 -69 -39 -9 -10 -23
-11 -49 -5 -20 4 -39 5 -42 2 -12 -12 -47 -12 -42 0 3 10 -8 12 -42 10 -45 -4
-46 -4 -48 -39 -2 -45 -16 -61 -38 -43 -13 11 -14 10 -9 -4 3 -9 12 -16 19
-16 15 0 8 -41 -9 -52 -19 -13 -56 -9 -62 7 -5 12 -9 13 -20 4 -11 -9 -21 -9
-42 2 -28 14 -36 16 -65 18 -12 1 -16 5 -11 14 6 9 5 9 -8 -1 -12 -10 -18 -9
-28 3 -7 8 -20 14 -29 13 -9 -2 -15 2 -14 8 3 14 -24 21 -89 23 -39 2 -47 -1
-42 -14 9 -22 -13 -18 -26 5 -13 25 -27 26 -32 3 -2 -10 -7 19 -11 65 -4 46
-4 88 -1 94 4 6 8 29 9 52 3 61 4 66 14 66 4 0 6 -23 3 -51 -4 -41 -2 -51 9
-47 10 3 16 35 21 119 4 63 13 132 21 154 12 34 19 41 51 47 20 4 46 12 56 18
13 7 20 6 22 -2 3 -8 9 -8 25 1 28 14 46 14 37 -1 -4 -7 -3 -8 5 -4 19 12 121
17 121 6 0 -6 5 -10 10 -10 6 0 10 7 10 15 0 8 7 15 16 15 12 0 15 -6 10 -26
-4 -15 -2 -32 5 -40 9 -11 7 -14 -9 -14 -11 0 -22 -8 -25 -19 -6 -24 22 -83
36 -74 6 3 7 1 3 -5 -4 -7 -13 -12 -21 -12 -7 0 -15 -5 -17 -12 -3 -7 -12 -9
-22 -5 -10 4 -14 12 -10 19 4 6 6 31 5 55 -1 28 3 43 11 43 9 0 9 3 1 11 -17
17 -42 4 -36 -19 2 -11 0 -29 -6 -41 -8 -13 -8 -21 -2 -21 13 0 -5 -51 -22
-63 -8 -6 -5 -7 8 -4 15 3 21 -1 21 -15 0 -11 -6 -16 -13 -14 -7 3 -10 -1 -6
-11 4 -9 -1 -19 -10 -25 -26 -14 -8 -38 29 -38 29 0 34 -3 34 -24 0 -14 -3
-27 -7 -29 -5 -3 -73 -10 -153 -17 -80 -6 -147 -14 -149 -16 -22 -22 85 -36
149 -20 14 3 45 9 70 12 25 3 56 12 70 19 40 21 83 72 77 90 -4 9 2 22 13 32
11 10 20 24 21 33 0 13 1 13 6 0 4 -8 14 -21 24 -28 16 -11 15 -14 -12 -42
-17 -16 -28 -34 -24 -40 9 -14 65 17 65 35 0 8 5 15 12 15 7 0 23 11 37 24
l26 24 39 -33 c27 -22 37 -38 33 -49 -6 -14 -11 -13 -43 9 -40 27 -54 31 -54
15 0 -5 4 -10 8 -10 5 0 22 -13 39 -30 28 -28 31 -28 45 -12 7 9 19 28 25 42
15 33 23 119 12 126 -8 5 -14 -17 -10 -38 2 -14 -7 -8 -46 27 -39 36 -57 43
-68 25 -4 -6 5 -10 19 -10 14 0 26 -4 26 -9 0 -17 -19 -22 -40 -11 -22 12 -27
1 -9 -17 9 -9 6 -18 -9 -37 l-20 -26 -23 20 -24 20 28 25 c36 32 31 54 -6 25
-18 -14 -34 -19 -48 -15 -25 8 -20 29 9 33 12 2 22 10 22 17 0 11 6 12 31 3
37 -13 52 -2 15 11 -14 6 -26 15 -26 21 0 16 14 12 38 -10 26 -24 32 -25 32
-5 0 24 -50 71 -60 56 -5 -9 -10 -3 -14 16 -8 30 -64 95 -77 87 -4 -2 -10 0
-14 6 -3 5 6 21 20 34 23 21 25 28 15 47 -8 14 -8 19 -1 15 6 -4 12 -1 12 6 5
37 3 54 -5 66 -5 7 -4 12 3 12 7 0 11 6 10 13 -1 6 2 21 6 31 8 19 9 19 16 0
7 -17 8 -17 8 4 1 20 -9 27 -34 23 -5 -1 -2 6 7 15 14 14 21 16 30 6 16 -16
28 -15 28 3 0 12 4 13 18 4 19 -12 24 -73 8 -98 -6 -10 -6 -16 2 -19 7 -2 9
-9 6 -14 -4 -7 -2 -8 5 -4 6 4 9 12 5 17 -3 5 0 16 6 24 6 8 9 19 6 24 -4 6
-1 19 6 30 18 30 -20 67 -70 69 -23 1 -42 8 -49 19 -7 10 -17 23 -22 30 -7 8
-7 13 2 16 7 3 2 6 -9 6 -12 1 -25 8 -28 17 -3 8 -10 12 -16 9 -6 -3 -7 1 -4
9 3 9 1 16 -5 16 -6 0 -11 -11 -11 -24z m309 -270 c7 -9 8 -17 2 -20 -11 -7
-57 9 -66 23 -10 17 51 13 64 -3z m-53 -51 c7 -19 14 -43 14 -54 0 -16 -4 -18
-27 -12 -36 10 -53 66 -26 87 24 18 22 19 39 -21z m-546 -90 c0 -13 4 -14 20
-5 11 6 64 12 117 15 l98 4 -95 -10 c-52 -6 -105 -17 -117 -25 -26 -16 -59 -9
-43 11 5 6 7 15 3 18 -3 4 -1 7 5 7 7 0 12 -7 12 -15z m400 -82 c0 -15 -16
-17 -25 -3 -13 21 -24 9 -13 -15 6 -14 15 -25 20 -25 5 0 6 5 3 10 -3 6 -2 10
4 10 17 0 23 -20 12 -34 -20 -23 -59 -25 -78 -4 -17 19 -17 20 0 33 9 6 17 20
17 29 0 9 5 16 11 16 6 0 7 5 2 13 -4 6 -9 21 -10 32 -2 16 4 12 27 -15 17
-19 30 -40 30 -47z m220 62 c0 -8 -4 -15 -10 -15 -5 0 -10 7 -10 15 0 8 5 15
10 15 6 0 10 -7 10 -15z m-274 -207 c4 -6 0 -16 -9 -23 -10 -7 -17 -18 -17
-26 0 -10 -4 -10 -16 3 -13 12 -14 20 -5 37 13 23 36 28 47 9z m-70 -25 c-2
-16 -4 -38 -5 -50 -1 -14 -7 -23 -17 -23 -12 0 -14 6 -8 33 4 17 7 40 6 50 0
9 5 17 13 17 9 0 13 -9 11 -27z m281 -5 c28 -26 32 -54 6 -39 -37 22 -55 40
-48 50 9 16 16 14 42 -11z m503 -7 c0 -27 -17 -35 -23 -11 -5 19 0 30 15 30 4
0 8 -9 8 -19z m65 -45 c8 -34 7 -40 -14 -57 -33 -27 -46 -23 -26 7 16 25 16
37 0 78 -6 14 -4 17 11 14 12 -2 22 -16 29 -42z m-52 -11 c4 -8 2 -17 -3 -20
-6 -4 -10 -17 -10 -31 0 -13 -4 -24 -10 -24 -5 0 -10 7 -10 15 0 8 -6 15 -14
15 -9 0 -14 9 -13 20 1 21 12 26 22 10 11 -18 26 -10 20 10 -7 23 10 28 18 5z"/>
<path d="M1770 2754 c-25 -13 -25 -13 -2 -14 12 0 22 -5 22 -11 0 -6 -9 -8
-22 -3 -25 8 -30 8 -66 6 -28 -2 -19 -22 9 -22 11 0 30 -11 43 -25 21 -22 29
-24 70 -19 57 8 63 17 31 42 -14 11 -25 25 -25 31 0 21 -34 30 -60 15z"/>
<path d="M2195 2727 c3 -11 8 -30 11 -43 3 -13 13 -24 21 -24 13 0 13 2 2 16
-8 10 -20 29 -27 43 -7 14 -10 18 -7 8z"/>
<path d="M1443 2693 c15 -2 37 -2 50 0 12 2 0 4 -28 4 -27 0 -38 -2 -22 -4z"/>
<path d="M1486 2655 c4 -10 -1 -13 -21 -9 -30 5 -64 -20 -43 -32 6 -4 14 -2
16 4 2 7 19 12 38 12 35 0 48 22 20 33 -10 4 -13 1 -10 -8z"/>
<path d="M2223 2640 c6 -36 52 -160 59 -160 11 0 10 17 -1 24 -5 4 -12 25 -16
49 -4 23 -10 44 -14 47 -4 3 -12 16 -19 30 -6 14 -11 18 -9 10z"/>
<path d="M1417 2594 c-4 -4 -7 -19 -7 -33 1 -20 3 -23 10 -10 5 9 25 16 50 17
27 2 39 -1 35 -8 -9 -15 4 -12 22 6 20 19 2 44 -19 27 -20 -17 -62 -20 -73 -5
-6 7 -14 10 -18 6z"/>
<path d="M1684 2483 c3 -4 17 -8 29 -10 17 -2 19 -1 7 7 -17 11 -47 14 -36 3z"/>
<path d="M1465 2469 c-16 -4 -22 -7 -13 -8 9 0 18 -7 21 -13 4 -10 7 -10 18 0
22 20 107 12 93 -9 -3 -5 -1 -9 3 -9 5 0 14 9 21 21 12 19 11 20 -10 19 -13
-1 -25 -1 -28 -1 -17 6 -80 6 -105 0z"/>
<path d="M1350 2410 c-11 -8 -7 -10 18 -8 17 1 32 6 32 10 0 11 -32 10 -50 -2z"/>
<path d="M1520 2411 c0 -5 12 -8 26 -8 18 0 22 2 13 8 -18 11 -39 11 -39 0z"/>
<path d="M1279 2396 c-2 -2 -20 -6 -39 -8 -34 -3 -70 -28 -70 -48 0 -5 -4 -10
-10 -10 -5 0 -12 -16 -16 -35 -3 -19 -10 -38 -15 -41 -5 -3 -7 -10 -4 -15 4
-5 2 -9 -3 -9 -5 0 -15 -20 -22 -45 -7 -25 -17 -45 -21 -45 -5 0 -8 -3 -7 -7
2 -9 -21 -82 -31 -98 -3 -5 -11 -29 -17 -52 -20 -76 2 -46 35 50 18 50 56 144
84 207 43 93 57 116 77 121 47 11 70 21 70 30 0 10 -4 11 -11 5z"/>
<path d="M1665 2360 c-4 -7 0 -19 9 -28 15 -16 16 -15 13 5 -4 29 -13 38 -22
23z"/>
<path d="M325 2334 c-18 -16 -22 -22 -9 -15 18 9 53 42 43 41 -2 -1 -17 -12
-34 -26z"/>
<path d="M2238 2286 c-10 -7 -18 -18 -18 -25 0 -20 16 -12 28 14 13 29 13 29
-10 11z"/>
<path d="M1413 2271 c-7 -12 -13 -31 -12 -43 0 -15 2 -18 6 -8 3 8 10 18 15
21 6 4 8 16 6 28 -3 22 -3 22 -15 2z"/>
<path d="M1342 2260 c-16 -26 -15 -30 3 -30 9 0 15 9 15 25 0 30 -2 31 -18 5z"/>
<path d="M1477 2263 c-12 -11 -8 -23 8 -23 8 0 15 7 15 15 0 16 -12 20 -23 8z"/>
<path d="M1468 2218 c-5 -44 -4 -68 3 -68 9 0 11 8 13 53 2 26 -12 39 -16 15z"/>
<path d="M2213 2209 c4 -13 7 -27 7 -31 0 -5 4 -8 9 -8 11 0 1 49 -12 57 -6 4
-8 -2 -4 -18z"/>
<path d="M1329 2210 c-6 -41 -5 -70 2 -70 14 0 20 36 10 61 -6 15 -11 18 -12
9z"/>
<path d="M1390 2170 c0 -16 5 -30 11 -30 6 0 9 7 5 15 -3 8 -1 15 4 15 6 0 10
7 10 15 0 8 -7 15 -15 15 -10 0 -15 -10 -15 -30z"/>
<path d="M2055 2154 c-49 -44 -50 -45 -13 -27 21 10 38 22 38 27 0 5 8 15 17
22 10 7 16 15 13 17 -3 3 -27 -15 -55 -39z"/>
<path d="M1250 2170 c0 -5 7 -10 15 -10 8 0 15 5 15 10 0 6 -7 10 -15 10 -8 0
-15 -4 -15 -10z"/>
<path d="M1454 2128 c-4 -7 -3 -13 3 -15 8 -3 8 -14 2 -36 -11 -40 -12 -37 6
-37 9 0 14 9 13 23 -1 12 2 32 6 43 7 24 -18 42 -30 22z"/>
<path d="M1315 2120 c-8 -13 3 -50 15 -50 12 0 23 37 15 50 -3 5 -10 10 -15
10 -5 0 -12 -5 -15 -10z"/>
<path d="M1380 2121 c0 -18 12 -41 22 -41 5 0 7 4 4 9 -4 5 -1 11 6 13 6 2 8
10 4 16 -8 14 -36 16 -36 3z"/>
<path d="M1250 2105 c0 -9 5 -15 11 -13 6 2 11 8 11 13 0 5 -5 11 -11 13 -6 2
-11 -4 -11 -13z"/>
<path d="M1985 2110 c-3 -5 -12 -7 -20 -3 -8 3 -15 1 -15 -3 0 -12 18 -40 22
-34 14 22 27 50 24 50 -3 0 -7 -4 -11 -10z"/>
<path d="M1920 2073 c0 -13 5 -23 10 -23 13 0 13 11 0 30 -8 12 -10 11 -10 -7z"/>
<path d="M1392 2058 c-16 -16 -15 -28 3 -28 8 0 15 9 15 20 0 23 -2 24 -18 8z"/>
<path d="M1317 2053 c-11 -11 -8 -63 4 -63 6 0 9 7 5 15 -3 8 -1 15 4 15 6 0
10 9 10 20 0 20 -11 26 -23 13z"/>
<path d="M1250 2036 c0 -9 7 -16 16 -16 17 0 14 22 -4 28 -7 2 -12 -3 -12 -12z"/>
<path d="M1451 2011 c-9 -16 -8 -18 9 -14 21 6 26 18 11 28 -6 3 -15 -3 -20
-14z"/>
<path d="M1920 1990 c-11 -11 -20 -24 -20 -30 0 -5 -10 -19 -22 -30 l-23 -22
30 4 c24 2 31 9 36 33 3 19 10 29 20 27 8 -2 11 0 7 4 -4 4 -3 13 3 21 19 22
-8 16 -31 -7z"/>
<path d="M1723 1966 c-14 -17 -7 -26 22 -26 12 0 31 -9 43 -20 20 -19 22 -19
19 -3 -1 10 -6 19 -10 21 -4 1 -16 11 -27 22 -23 23 -31 24 -47 6z"/>
<path d="M1400 1958 c0 -4 9 -8 20 -8 11 0 20 4 20 9 0 6 -9 9 -20 8 -11 -1
-20 -5 -20 -9z"/>
<path d="M1204 1951 c-13 -9 -17 -51 -5 -51 6 0 11 4 11 9 0 5 9 13 21 16 11
4 18 12 17 17 -5 13 -31 19 -44 9z"/>
<path d="M1290 1950 c-12 -8 -11 -10 8 -10 12 0 22 5 22 10 0 13 -11 13 -30 0z"/>
<path d="M1350 1951 c0 -6 9 -9 20 -8 11 1 20 5 20 9 0 4 -9 8 -20 8 -11 0
-20 -4 -20 -9z"/>
<path d="M993 1873 c-1 -19 1 -22 8 -12 11 17 12 39 2 39 -5 0 -9 -12 -10 -27z"/>
<path d="M1190 1861 c0 -27 15 -49 26 -39 7 8 -8 68 -17 68 -5 0 -9 -13 -9
-29z"/>
<path d="M1252 1839 c-11 -17 -9 -19 25 -20 21 0 46 -2 56 -4 9 -2 17 1 17 5
0 12 -37 23 -50 15 -6 -4 -9 -1 -8 5 5 20 -28 19 -40 -1z"/>
<path d="M985 1768 c3 -7 21 -13 41 -14 20 0 40 -7 45 -15 6 -9 9 -10 9 -2 0
7 7 10 17 6 11 -4 14 -3 9 6 -4 6 -13 11 -19 10 -11 -2 -35 3 -89 18 -12 3
-16 0 -13 -9z"/>
<path d="M1151 1676 c2 -19 0 -38 -4 -42 -4 -4 -6 -21 -6 -38 1 -17 3 -23 6
-14 4 16 8 15 41 -6 34 -22 92 -42 92 -32 0 2 -17 10 -37 17 -80 25 -122 79
-51 63 26 -5 30 -3 25 9 -4 10 1 17 11 20 9 2 6 3 -8 1 -26 -3 -60 16 -60 33
0 7 21 5 58 -3 31 -8 75 -13 97 -13 29 1 17 5 -41 14 -44 7 -91 16 -103 20
-21 6 -22 4 -20 -29z"/>
<path d="M251 1621 c-11 -7 -9 -11 7 -20 24 -13 39 1 19 17 -7 6 -18 7 -26 3z"/>
<path d="M593 1613 c-7 -2 -13 -9 -13 -14 0 -6 4 -8 9 -5 5 4 11 0 14 -6 3 -7
4 -3 4 10 -1 12 -1 22 -2 21 0 0 -6 -3 -12 -6z"/>
<path d="M728 1596 c-9 -7 -13 -17 -10 -23 5 -8 12 -8 24 1 9 7 13 17 10 23
-5 8 -12 8 -24 -1z"/>
<path d="M1119 1543 c-25 -31 -46 -77 -53 -113 -7 -34 -31 -120 -66 -232 -15
-47 -16 -57 -4 -62 18 -7 47 23 40 41 -3 8 -1 11 4 8 6 -3 11 6 11 22 1 23 3
24 6 6 2 -12 -1 -32 -7 -43 -9 -18 -8 -25 6 -41 9 -10 22 -18 28 -17 6 1 36
-2 66 -7 30 -4 63 -9 72 -10 10 -1 21 -4 24 -8 8 -8 -4 -27 -17 -27 -6 0 -7 5
-3 12 4 7 3 8 -4 4 -7 -4 -12 -11 -12 -17 0 -14 38 -11 43 4 3 7 6 5 6 -5 1
-14 10 -18 36 -18 19 0 35 5 35 11 0 6 7 8 16 5 11 -4 18 1 21 14 3 11 9 17
14 14 5 -3 7 -10 4 -15 -4 -5 1 -9 10 -9 9 0 15 -6 12 -12 -2 -7 -9 -12 -15
-11 -6 2 -9 -3 -6 -10 8 -23 32 -15 32 10 0 31 11 42 22 23 6 -8 10 -10 10 -4
0 6 11 12 25 12 28 0 32 -10 11 -27 -11 -9 -15 -9 -18 0 -2 7 -9 5 -18 -6 -13
-15 -9 -16 51 -14 69 2 109 13 121 32 6 9 8 9 8 0 0 -7 5 -13 11 -13 8 0 7 5
-1 15 -12 14 -15 14 -31 -1 -19 -17 -25 -9 -11 13 7 12 30 17 107 27 55 7 85
18 85 30 0 7 -17 48 -38 92 -21 43 -46 108 -56 144 -10 36 -23 70 -28 77 -5 7
-7 17 -3 23 5 7 -2 9 -22 4 -33 -8 -42 -14 -21 -14 9 0 18 -7 22 -15 3 -9 0
-15 -8 -15 -8 0 -16 6 -18 12 -3 9 -39 15 -108 19 -61 4 -106 11 -108 17 -2 7
-11 8 -28 2 -13 -5 -24 -6 -24 -2 0 4 -41 8 -92 10 -61 1 -99 7 -115 17 -13 9
-23 11 -23 6 0 -5 7 -11 14 -14 12 -5 13 -12 4 -39 -10 -32 -15 -70 -17 -115
-1 -13 -6 -23 -12 -23 -6 0 -9 7 -5 15 3 8 1 15 -4 15 -6 0 -10 9 -10 21 0 11
4 18 9 15 5 -3 11 5 13 19 3 14 2 25 -3 25 -14 0 -21 42 -9 54 10 8 11 8 6 -1
-4 -7 -3 -20 2 -30 9 -14 10 -14 17 6 4 12 2 28 -4 35 -12 15 -5 46 11 46 11
0 39 -26 33 -31 -2 -3 15 -5 38 -5 43 -1 40 2 -25 26 -16 5 -28 16 -28 25 0
20 -14 19 -31 -2z m209 -89 c26 -5 30 -9 22 -24 -6 -12 -5 -17 5 -17 8 0 12 4
10 8 -12 18 7 36 31 31 18 -3 22 -7 13 -13 -7 -4 -17 -5 -21 -3 -4 3 -5 -2 -2
-10 3 -8 12 -12 20 -9 12 5 20 -19 15 -49 0 -5 4 -8 9 -8 6 0 10 7 10 15 0 10
10 15 33 15 23 0 28 3 17 10 -8 5 -11 13 -6 17 4 4 13 1 19 -8 15 -19 50 -21
43 -2 -7 17 4 16 28 -2 24 -18 40 -19 33 -2 -3 8 6 12 26 11 17 0 33 -6 35
-12 2 -7 -3 -10 -12 -6 -13 5 -15 2 -9 -12 3 -11 12 -22 18 -26 7 -4 12 -22
13 -40 l1 -33 -19 25 c-11 14 -20 37 -20 53 0 15 -5 27 -11 27 -6 0 -8 -7 -5
-16 3 -8 1 -24 -4 -35 -13 -24 -50 -25 -51 -1 -1 15 -2 15 -6 1 -2 -10 -13
-19 -24 -22 -14 -4 -19 0 -20 16 0 12 -3 16 -6 9 -2 -6 -8 -10 -13 -7 -4 3
-10 -4 -13 -15 -4 -15 0 -20 15 -20 10 0 16 -4 13 -10 -3 -5 -2 -10 3 -10 6 0
12 7 16 15 3 8 17 15 31 15 15 0 24 -4 20 -9 -3 -5 -1 -12 5 -16 5 -3 10 1 10
9 0 19 46 22 53 4 4 -14 -12 -48 -28 -60 -5 -4 2 -8 18 -8 17 0 27 -6 28 -15
3 -51 1 -63 -18 -82 -14 -14 -32 -20 -59 -19 -21 1 -45 -3 -53 -9 -10 -7 -15
-7 -18 1 -2 6 -14 9 -27 7 -13 -3 -27 0 -30 6 -4 6 -2 11 3 11 6 0 11 10 11
23 0 13 9 33 21 45 l20 23 -28 -7 c-15 -4 -37 -13 -48 -20 -28 -20 -30 -18
-45 27 -12 34 -12 44 0 62 12 19 11 21 -2 9 -13 -10 -18 -9 -29 5 -9 11 -10
14 -1 9 7 -4 12 -1 12 8 0 9 -7 16 -15 16 -8 0 -15 5 -15 11 0 5 5 7 10 4 15
-10 12 25 -4 41 -8 8 -20 14 -26 14 -7 0 -10 7 -6 15 3 8 1 15 -5 15 -5 0 -12
-7 -15 -15 -10 -24 -44 -19 -44 7 0 14 -4 18 -9 13 -14 -14 -22 -65 -10 -65 5
0 9 6 9 14 0 9 8 12 24 9 20 -4 24 -10 20 -35 -2 -17 1 -39 7 -49 6 -13 6 -19
-1 -19 -5 0 -10 5 -10 10 0 6 -4 10 -9 10 -5 0 -7 -9 -4 -20 3 -11 12 -20 21
-20 8 0 12 -3 8 -7 -4 -5 -13 -8 -18 -8 -6 0 -13 -6 -15 -12 -3 -8 4 -13 16
-13 12 0 21 -6 21 -15 0 -8 -6 -15 -14 -15 -8 0 -18 -9 -21 -21 -7 -22 -1 -34
18 -34 7 0 13 -9 15 -20 2 -15 1 -17 -6 -6 -7 9 -22 12 -48 9 -22 -3 -49 0
-62 5 -16 7 -26 7 -30 1 -4 -6 -15 -2 -26 9 -19 20 -18 20 35 13 29 -4 50 -4
45 1 -4 4 -9 6 -11 3 -2 -3 -11 4 -20 15 -12 14 -18 16 -21 8 -3 -7 -13 -13
-22 -13 -10 0 -13 3 -7 8 13 9 19 46 7 38 -5 -3 -12 3 -15 14 -3 13 0 20 8 20
14 0 15 17 2 37 -4 6 -3 42 3 80 5 37 10 74 10 81 0 13 121 17 178 6z m220
-21 c-10 -2 -28 -2 -40 0 -13 2 -5 4 17 4 22 1 32 -1 23 -4z m-210 -113 c-1
-22 -5 -40 -10 -40 -4 0 -8 18 -8 40 0 22 4 40 10 40 5 0 9 -18 8 -40z m-224
-78 c-2 -31 -3 -60 -4 -64 0 -5 -5 -8 -10 -8 -7 0 -9 19 -6 52 2 32 1 46 -5
37 -6 -10 -9 -7 -9 11 0 18 6 26 19 27 17 1 18 -5 15 -55z m585 0 c8 -24 24
-44 44 -56 17 -10 27 -20 21 -24 -6 -4 -13 -15 -17 -25 -6 -17 -44 -21 -41 -5
4 22 -25 113 -35 111 -13 -3 -13 -1 -5 21 10 25 20 19 33 -22z m-359 -7 c0
-19 -4 -35 -10 -35 -5 0 -10 16 -10 35 0 19 5 35 10 35 6 0 10 -16 10 -35z
m-247 -77 c6 -4 8 -10 4 -15 -12 -11 -27 18 -25 47 l1 25 4 -25 c3 -14 10 -28
16 -32z m250 -15 c0 -20 -4 -38 -10 -40 -14 -5 -22 76 -8 81 15 5 18 -1 18
-41z m101 13 c-16 -12 -17 -18 -7 -35 10 -16 9 -20 -3 -25 -26 -10 -31 -7 -28
17 1 12 3 30 3 40 1 12 9 17 28 17 26 0 26 -1 7 -14z m241 -36 c-3 -5 -13 -6
-21 -3 -12 4 -13 8 -3 14 15 9 32 2 24 -11z m-349 -41 c5 -9 -9 -19 -38 -24
-20 -4 -37 9 -38 28 0 9 70 6 76 -4z m254 -8 c-1 -14 -20 -35 -26 -28 -4 4
-14 1 -22 -6 -13 -10 -15 -9 -8 7 7 19 6 19 -14 1 -21 -19 -26 -14 -11 13 8
16 81 27 81 13z"/>
<path d="M1184 1425 c-4 -8 -13 -15 -21 -15 -12 0 -12 -2 1 -15 20 -20 23 -19
35 15 10 31 -4 45 -15 15z"/>
<path d="M1392 1340 c0 -19 2 -27 5 -17 2 9 2 25 0 35 -3 9 -5 1 -5 -18z"/>
<path d="M1170 1345 c0 -8 5 -15 10 -15 6 0 10 7 10 15 0 8 -4 15 -10 15 -5 0
-10 -7 -10 -15z"/>
<path d="M1230 1340 c0 -19 11 -26 23 -14 8 8 -3 34 -14 34 -5 0 -9 -9 -9 -20z"/>
<path d="M1430 1328 c-2 -32 -3 -58 -1 -93 1 -23 3 -25 23 -14 20 11 20 13 5
24 -20 14 -22 26 -5 23 7 -2 14 7 16 20 2 12 -2 22 -8 22 -6 0 -15 10 -20 23
-8 21 -9 21 -10 -5z"/>
<path d="M1200 1294 c0 -14 3 -14 15 -4 8 7 15 14 15 16 0 2 -7 4 -15 4 -8 0
-15 -7 -15 -16z"/>
<path d="M1167 1266 c-3 -8 1 -17 9 -20 22 -9 23 -8 17 14 -6 23 -19 26 -26 6z"/>
<path d="M1227 1256 c-3 -8 1 -17 10 -20 20 -8 27 -1 20 19 -8 19 -23 20 -30
1z"/>
<path d="M1237 1166 c-3 -8 -2 -18 3 -21 13 -8 20 9 11 24 -6 10 -10 9 -14 -3z"/>
<path d="M1716 1165 c-7 -20 9 -28 23 -11 9 10 8 15 -3 19 -8 3 -17 -1 -20 -8z"/>
<path d="M1242 1516 c22 -16 143 -21 133 -6 -3 5 1 10 9 10 9 0 13 -6 10 -14
-6 -17 17 -22 141 -31 104 -7 81 6 -55 33 -72 15 -118 19 -145 14 -22 -5 -56
-5 -75 -1 -30 6 -32 6 -18 -5z"/>
<path d="M1846 1188 c3 -5 9 -7 12 -4 3 3 14 -2 24 -11 18 -16 18 -16 12 0 -3
9 -9 17 -13 18 -3 0 -14 2 -24 4 -9 2 -14 -1 -11 -7z"/>
<path d="M1923 1052 c22 -66 34 -89 41 -81 8 8 8 13 -1 16 -7 2 -9 11 -6 19 3
8 1 14 -4 14 -5 0 -14 19 -20 43 -7 23 -19 51 -27 62 -8 11 -1 -21 17 -73z"/>
<path d="M1030 1105 c0 -8 0 -18 1 -21 0 -4 -5 -10 -11 -14 -8 -5 -7 -9 3 -13
11 -4 15 0 12 14 -4 18 5 25 18 13 8 -8 -10 -52 -29 -71 -8 -8 -12 -18 -9 -22
4 -3 11 2 16 12 6 9 17 17 25 17 8 0 13 4 10 9 -3 4 4 17 16 27 12 11 18 14
15 7 -4 -6 -3 -14 3 -18 5 -3 10 -1 10 5 0 6 4 9 8 6 5 -3 9 1 9 9 0 8 -3 12
-6 10 -10 -6 -71 23 -71 35 0 5 -4 10 -10 10 -5 0 -10 -7 -10 -15z"/>
<path d="M969 1048 c0 -2 -2 -12 -4 -22 -2 -10 -10 -23 -17 -28 -10 -8 -10
-11 0 -15 6 -2 10 -8 7 -13 -3 -4 2 -10 10 -14 18 -6 30 11 18 27 -5 7 -8 24
-7 40 1 22 -3 36 -7 25z"/>
<path d="M1130 1041 c0 -7 -4 -9 -10 -6 -5 3 -10 1 -10 -5 0 -6 -4 -8 -10 -5
-5 3 -7 0 -4 -8 3 -8 -2 -20 -11 -27 -8 -7 -15 -17 -15 -23 0 -6 6 -2 14 9 14
18 15 18 21 2 4 -10 11 -16 16 -13 4 3 5 13 2 22 -5 13 -2 15 15 11 13 -4 22
-1 23 5 0 7 7 -2 15 -20 16 -37 30 -48 40 -32 5 8 3 9 -6 4 -10 -6 -12 -4 -7
8 3 8 -1 21 -9 27 -8 7 -14 15 -14 19 0 9 43 7 59 -3 7 -4 15 -6 18 -3 3 3 16
1 30 -4 21 -8 24 -7 20 5 -4 10 -1 13 9 9 7 -3 14 -1 14 5 0 5 -24 12 -52 15
-29 3 -74 9 -100 13 -35 5 -48 3 -48 -5z"/>
<path d="M740 1007 c0 -7 5 -18 12 -25 14 -14 19 -13 -100 -15 -61 0 -91 -4
-89 -11 4 -12 61 -13 170 -3 62 5 106 17 63 17 -9 0 -21 11 -26 25 -10 26 -30
34 -30 12z"/>
<path d="M1475 1002 c-73 -3 -88 -10 -62 -29 12 -11 29 -10 59 2 11 4 18 1 21
-12 4 -16 6 -15 12 5 6 19 13 23 40 19 18 -2 40 2 51 10 17 13 16 13 -14 11
-17 -2 -66 -4 -107 -6z"/>
<path d="M1260 970 c6 -11 15 -20 21 -20 6 0 6 7 -1 20 -6 11 -15 20 -21 20
-6 0 -6 -7 1 -20z"/>
<path d="M324 973 c3 -6 0 -13 -6 -16 -7 -2 -11 -7 -8 -10 3 -3 12 -2 20 3 13
8 13 11 1 22 -8 8 -11 8 -7 1z"/>
<path d="M877 974 c-11 -12 3 -24 29 -24 27 0 32 15 8 24 -20 8 -29 8 -37 0z"/>
<path d="M246 961 c-11 -4 -15 -10 -9 -14 5 -3 19 0 29 8 20 15 11 18 -20 6z"/>
<path d="M372 961 c-11 -7 -11 -9 2 -14 8 -3 18 -2 21 4 4 5 11 6 17 3 7 -4 8
-2 4 4 -8 14 -26 15 -44 3z"/>
<path d="M1056 942 c-5 -5 -27 -9 -63 -11 -7 -1 -13 -6 -13 -12 0 -6 9 -8 21
-4 15 5 20 3 17 -6 -3 -8 -20 -17 -39 -20 -40 -7 -146 -80 -208 -144 l-44 -45
31 0 c18 0 32 -4 32 -10 0 -5 -13 -7 -30 -3 -27 5 -30 3 -30 -19 0 -13 -14
-46 -30 -72 -43 -68 -48 -101 -19 -117 13 -7 28 -12 32 -11 5 1 6 -2 2 -8 -3
-5 1 -10 10 -10 8 0 18 7 21 15 4 8 10 12 15 9 5 -3 9 -2 8 3 -1 4 -1 17 0 28
1 17 3 18 11 5 7 -11 10 -11 10 -2 0 8 5 10 13 6 6 -4 9 -4 5 0 -9 11 33 57
45 49 6 -3 7 -1 3 5 -8 14 -35 3 -55 -22 -7 -8 -19 -12 -27 -9 -9 3 -27 -6
-43 -21 -18 -17 -34 -24 -44 -20 -10 3 -17 9 -17 13 0 10 50 81 57 81 4 0 16
-9 28 -20 l22 -21 24 20 c26 22 22 24 -27 21 -42 -2 -50 14 -22 44 31 33 62
40 79 20 11 -14 11 -18 -6 -30 -17 -13 -16 -14 19 -14 35 0 37 -2 25 -17 -10
-11 -10 -14 -1 -9 6 4 12 2 12 -3 0 -6 3 -10 8 -9 14 4 52 -23 52 -36 0 -16
-92 -76 -115 -76 -7 0 -17 -4 -20 -10 -3 -5 0 -10 7 -10 7 0 0 -8 -17 -18 -27
-17 -31 -17 -42 -3 -7 9 -13 11 -13 5 0 -5 5 -15 11 -21 8 -8 8 -17 0 -32 -7
-12 -8 -21 -4 -22 4 0 -5 -7 -22 -14 l-30 -13 23 -9 c31 -12 16 -24 -60 -47
-48 -15 -68 -30 -68 -52 0 -7 23 -4 65 7 33 10 36 13 20 19 -15 5 -9 10 30 24
29 9 51 12 53 7 2 -6 10 -7 18 -4 12 4 10 12 -13 35 -18 19 -22 29 -13 28 32
-5 38 0 34 29 -5 27 1 33 81 83 48 29 100 61 117 72 29 18 30 18 57 -2 15 -11
39 -22 52 -24 22 -3 24 0 21 30 -1 17 1 32 5 33 42 4 68 23 57 40 -2 4 14 11
37 16 25 5 46 16 53 28 6 11 15 23 21 27 6 5 6 11 -2 19 -9 9 -20 8 -47 -5
-19 -9 -38 -21 -41 -26 -4 -6 -11 -8 -16 -4 -5 3 -9 2 -8 -3 4 -21 -2 -33 -16
-33 -8 0 -15 -5 -15 -11 0 -5 -4 -8 -9 -4 -5 3 -13 0 -16 -6 -4 -6 -21 -19
-39 -30 -17 -11 -24 -19 -16 -18 8 1 20 1 26 0 14 -1 26 -41 13 -41 -5 0 -9 7
-9 15 0 8 -8 15 -17 15 -9 0 -25 8 -36 17 -15 13 -18 14 -12 3 8 -13 7 -13 -9
0 -10 8 -24 15 -30 16 -6 0 -18 2 -27 2 -17 2 -69 46 -69 59 0 4 -15 15 -33
24 -17 9 -31 23 -29 30 2 8 1 11 -3 7 -4 -3 -15 1 -25 9 -18 16 -18 17 3 45
17 23 24 26 32 15 8 -11 18 -11 55 -1 25 7 38 13 30 13 -12 1 -12 4 3 12 9 5
17 14 17 19 0 6 -11 0 -25 -12 -28 -25 -70 -34 -80 -18 -7 11 51 65 69 65 6 0
14 5 18 10 4 6 15 10 25 10 10 1 17 6 16 13 -2 7 2 12 7 12 6 0 10 -8 10 -19
0 -14 10 -20 38 -25 20 -3 44 -6 52 -5 25 1 -22 18 -52 18 -33 1 -40 31 -8 31
11 0 23 7 26 15 8 19 34 20 34 2 0 -8 -10 -19 -22 -25 -29 -14 -8 -15 27 -2
14 5 23 14 20 20 -4 6 7 10 25 10 22 0 29 -4 24 -12 -6 -10 -5 -10 8 -1 8 7
17 10 20 7 3 -3 24 -5 47 -6 32 0 39 -3 31 -13 -8 -9 -6 -14 5 -19 9 -3 13 -2
10 4 -3 6 -1 10 4 10 8 0 7 7 -1 19 -7 11 -16 18 -20 15 -4 -3 -30 2 -58 10
-28 8 -58 12 -66 9 -9 -3 -20 0 -24 7 -9 15 -35 22 -44 12z"/>
<path d="M1977 939 c8 -8 47 -14 103 -15 49 -2 93 -5 97 -7 8 -5 63 -1 98 6
11 2 26 0 33 -6 10 -8 16 -7 22 3 7 11 11 11 23 1 11 -9 17 -9 22 -1 4 6 5 13
2 16 -6 7 -107 10 -109 3 -2 -3 -33 -3 -71 1 -39 3 -72 1 -77 -4 -7 -7 -10 -7
-10 0 0 5 -33 11 -72 12 -58 3 -71 1 -61 -9z"/>
<path d="M2635 939 c-16 -5 -36 -7 -42 -4 -7 2 -13 -2 -13 -9 0 -17 73 -14 94
3 10 8 16 9 19 1 3 -6 5 -6 3 1 -3 16 -23 18 -61 8z"/>
<path d="M2766 934 c-9 -24 -7 -31 4 -14 7 11 10 11 10 2 0 -7 5 -10 10 -7 14
9 12 22 -4 28 -8 3 -17 -1 -20 -9z"/>
<path d="M1425 930 c-7 -12 12 -40 26 -40 5 0 9 11 9 25 0 25 -23 35 -35 15z"/>
<path d="M2451 932 c-6 -2 -9 -7 -6 -12 6 -9 55 0 55 11 0 8 -26 9 -49 1z"/>
<path d="M2510 925 c0 -8 5 -15 10 -15 6 0 10 7 10 15 0 8 -4 15 -10 15 -5 0
-10 -7 -10 -15z"/>
<path d="M2815 929 c-4 -6 -4 -13 -1 -16 3 -4 6 -1 6 6 0 7 4 10 9 6 5 -3 12
-1 16 5 3 5 -1 10 -9 10 -8 0 -18 -5 -21 -11z"/>
<path d="M2967 925 c-3 -7 0 -12 8 -11 22 3 27 13 11 19 -8 3 -17 0 -19 -8z"/>
<path d="M1500 904 c0 -14 3 -14 15 -4 8 7 15 14 15 16 0 2 -7 4 -15 4 -8 0
-15 -7 -15 -16z"/>
<path d="M196 891 c-5 -8 23 -39 31 -33 10 7 21 0 31 -20 11 -21 11 -21 5 6
-4 19 -1 31 8 37 10 6 5 8 -16 7 -17 -1 -36 1 -42 5 -6 4 -14 3 -17 -2z"/>
<path d="M143 870 c-1 -11 2 -22 8 -25 5 -4 8 3 6 14 -4 28 -12 34 -14 11z"/>
<path d="M694 878 c4 -13 0 -18 -16 -18 -40 0 -7 -14 39 -17 46 -3 73 -16 73
-35 0 -10 -17 -8 -52 7 -29 12 -20 -11 8 -24 23 -10 30 -9 53 11 14 13 29 28
34 35 4 6 21 14 38 18 17 4 28 12 26 18 -3 7 -11 10 -18 8 -8 -2 -31 -6 -52
-9 -31 -3 -36 -7 -26 -18 7 -8 10 -17 7 -19 -10 -10 -38 7 -38 22 0 11 -7 14
-27 10 -18 -3 -32 1 -41 11 -13 16 -13 16 -8 0z"/>
<path d="M311 863 c0 -10 3 -13 5 -6 4 8 15 6 39 -8 l33 -20 -5 20 c-3 12 -8
21 -12 22 -3 0 -18 3 -33 5 -22 4 -28 1 -27 -13z"/>
<path d="M416 865 c5 -11 2 -13 -12 -8 -12 4 -15 3 -10 -5 12 -19 36 -14 36 8
0 11 -4 20 -10 20 -5 0 -7 -7 -4 -15z"/>
<path d="M455 870 c-7 -12 18 -24 37 -18 8 3 5 9 -9 16 -14 8 -24 9 -28 2z"/>
<path d="M3 857 c2 -6 10 -11 19 -13 10 -1 15 3 12 10 -6 15 -36 17 -31 3z"/>
<path d="M514 853 c2 -14 12 -18 45 -17 48 1 70 14 23 14 -17 0 -34 5 -37 10
-10 17 -33 11 -31 -7z"/>
<path d="M198 848 c10 -13 10 -17 0 -21 -8 -4 -7 -6 5 -6 9 -1 17 3 17 8 0 5
-8 15 -17 22 -16 13 -17 12 -5 -3z"/>
<path d="M2160 838 c-35 -12 -35 -12 -7 -16 15 -2 25 -8 22 -13 -3 -5 1 -6 9
-3 9 3 16 10 16 15 0 5 14 8 30 7 17 -1 30 -6 30 -11 0 -5 9 -7 21 -4 16 4 18
3 9 -8 -9 -11 -7 -12 10 -8 11 3 25 14 30 24 9 16 6 18 -17 17 -16 0 -48 2
-73 5 -25 4 -61 1 -80 -5z"/>
<path d="M2774 842 c3 -6 0 -12 -6 -15 -7 -2 -1 -4 14 -3 34 1 34 2 7 17 -13
6 -19 7 -15 1z"/>
<path d="M2080 832 c0 -5 -10 -8 -22 -8 -14 1 -22 -4 -20 -12 1 -8 -2 -11 -7
-8 -5 4 -12 2 -16 -4 -3 -5 3 -10 15 -10 11 0 23 6 26 14 3 8 16 12 35 10 20
-3 29 1 29 11 0 8 -9 15 -20 15 -11 0 -20 -4 -20 -8z"/>
<path d="M1086 823 c-13 -14 -4 -19 24 -15 40 6 39 -16 -1 -30 -17 -6 -51 -21
-74 -34 -29 -15 -42 -18 -39 -9 4 10 0 12 -15 8 -12 -3 -21 -9 -21 -15 0 -5
-9 -4 -21 2 -19 11 -20 10 -9 -10 6 -11 15 -18 20 -15 6 3 7 -1 4 -9 -7 -17
11 -22 21 -6 3 6 14 10 23 10 9 0 33 10 52 22 19 12 37 23 40 23 3 1 21 9 40
18 32 14 37 14 52 0 16 -15 16 -17 -3 -41 -22 -28 -45 -36 -56 -20 -4 7 1 9
15 6 13 -4 23 0 26 8 3 8 1 14 -5 14 -6 0 -7 6 -4 13 4 6 1 5 -7 -4 -7 -9 -23
-19 -36 -23 -12 -4 -20 -12 -17 -17 4 -5 -1 -9 -9 -9 -18 0 -21 -16 -6 -25 6
-3 10 -1 10 5 0 7 7 4 16 -5 9 -9 13 -19 9 -23 -4 -4 -10 -2 -12 5 -2 7 -11 9
-18 7 -9 -4 -16 3 -20 19 -6 23 -8 24 -35 11 -15 -8 -33 -21 -40 -29 -10 -12
-16 -13 -28 -3 -13 11 -14 11 -8 0 4 -7 2 -19 -4 -27 -10 -12 -7 -13 17 -8 15
3 34 6 41 6 6 0 12 4 12 9 0 5 5 6 12 2 8 -5 9 0 6 14 -4 16 -2 22 9 22 10 0
14 -6 10 -20 -6 -25 9 -36 28 -20 12 10 15 10 15 -1 0 -8 20 7 45 33 25 27 45
45 45 40 0 -4 4 -1 9 7 8 12 15 13 34 4 22 -10 24 -9 20 8 -3 10 -11 19 -18
19 -7 0 -18 7 -26 16 -10 13 -10 17 1 24 8 5 11 13 6 17 -5 4 -11 2 -13 -4 -6
-18 -33 -16 -33 1 0 8 3 16 8 19 4 2 2 2 -5 1 -6 -2 -14 2 -17 9 -3 9 -5 8 -5
-1 -1 -7 -5 -10 -11 -7 -16 10 -48 14 -54 8z"/>
<path d="M2607 823 c-4 -3 -2 -12 4 -19 12 -14 39 -8 39 9 0 6 -3 7 -7 4 -3
-4 -11 -2 -18 3 -7 5 -15 7 -18 3z"/>
<path d="M545 798 c1 -18 8 -21 42 -22 30 -1 39 2 36 12 -3 7 -8 11 -11 8 -2
-3 -14 -1 -25 5 -15 9 -18 8 -12 -3 3 -7 0 -5 -8 5 -19 23 -24 22 -22 -5z"/>
<path d="M2370 808 c-16 -7 -20 -12 -12 -15 8 -3 21 2 30 11 19 18 17 19 -18
4z"/>
<path d="M187 796 c-3 -8 0 -17 8 -20 9 -3 13 2 12 15 -2 22 -13 25 -20 5z"/>
<path d="M488 790 c38 -23 42 -24 42 -8 0 6 -3 9 -6 5 -4 -3 -13 0 -21 8 -8 8
-22 15 -31 15 -11 0 -5 -8 16 -20z"/>
<path d="M672 792 c8 -10 9 -13 1 -9 -6 4 -14 3 -18 -3 -3 -6 4 -10 18 -10 28
0 32 26 5 33 -17 5 -17 3 -6 -11z"/>
<path d="M990 801 c0 -4 18 -8 40 -8 22 0 37 4 34 8 -3 5 -21 9 -40 9 -19 0
-34 -4 -34 -9z"/>
<path d="M1383 794 c-3 -8 -3 -18 1 -21 3 -4 6 1 6 11 0 14 3 15 21 5 17 -8
20 -8 17 2 -6 18 -38 20 -45 3z"/>
<path d="M1460 780 c0 -5 7 -10 15 -10 8 0 15 5 15 10 0 6 -7 10 -15 10 -8 0
-15 -4 -15 -10z"/>
<path d="M170 746 c0 -8 5 -18 10 -21 6 -3 10 1 10 9 0 8 -4 18 -10 21 -5 3
-10 -1 -10 -9z"/>
<path d="M634 751 c3 -5 16 -11 28 -14 22 -6 22 -5 4 8 -22 17 -40 20 -32 6z"/>
<path d="M1400 711 c-8 -6 -17 -8 -20 -6 -3 2 -7 -5 -7 -16 -1 -10 -12 -33
-24 -51 -13 -17 -17 -28 -10 -24 10 7 10 4 0 -12 -7 -12 -17 -18 -23 -15 -5 4
-7 -1 -3 -10 7 -18 -19 -32 -29 -15 -4 6 -3 8 3 5 6 -4 14 5 17 21 4 15 9 35
12 45 11 36 -13 15 -35 -30 -47 -100 -84 -153 -98 -142 -7 6 -19 9 -28 6 -8
-4 -17 -2 -20 3 -3 5 -12 7 -21 3 -11 -4 -12 -9 -3 -19 22 -27 159 -11 159 19
0 5 15 23 33 41 18 17 48 65 66 106 34 75 60 116 47 73 -5 -16 -1 -25 15 -34
20 -10 21 -9 15 12 -4 13 -8 30 -8 37 -1 14 -17 15 -38 3z"/>
<path d="M1494 703 c-16 -29 -11 -57 11 -61 20 -3 20 -3 1 13 -11 8 -15 15 -9
15 6 0 11 11 11 25 0 30 0 30 -14 8z"/>
<path d="M1960 713 c0 -5 9 -19 20 -33 25 -32 27 -75 3 -66 -10 4 -14 4 -10 0
4 -4 2 -13 -4 -20 -6 -8 -7 -35 -3 -76 7 -58 8 -60 15 -29 4 18 3 47 -2 64 -9
33 -5 47 16 47 7 0 15 7 19 15 3 8 13 15 23 15 22 1 59 27 50 36 -4 4 -21 0
-39 -9 -30 -15 -33 -14 -46 4 -7 10 -11 23 -8 27 2 4 -4 13 -15 20 -10 7 -19
9 -19 5z"/>
<path d="M904 696 c-3 -9 -16 -16 -28 -17 -19 -1 -18 -2 4 -8 17 -5 28 -3 33
6 5 7 13 10 19 7 6 -4 9 -1 6 6 -7 21 -27 24 -34 6z"/>
<path d="M597 677 c-3 -8 -3 -18 0 -21 11 -11 43 -6 43 6 0 6 -3 8 -7 5 -3 -4
-11 1 -18 10 -10 14 -12 14 -18 0z"/>
<path d="M1736 666 c7 -18 23 -20 44 -5 12 9 12 10 -4 5 -10 -4 -25 -1 -32 5
-12 10 -13 9 -8 -5z"/>
<path d="M139 650 c0 -3 -2 -13 -4 -22 -2 -10 3 -18 11 -18 8 0 14 3 14 8 0 9
-19 39 -21 32z"/>
<path d="M1415 634 c4 -11 7 -27 7 -36 0 -10 5 -18 13 -18 7 0 12 -8 11 -17
-3 -20 11 -33 34 -33 11 1 10 5 -5 18 -11 9 -19 24 -17 33 2 9 -4 24 -13 32
-9 9 -15 20 -15 24 1 4 -4 9 -11 12 -8 2 -10 -2 -4 -15z"/>
<path d="M358 611 c11 -6 10 -11 -3 -24 -15 -15 -14 -18 4 -34 11 -9 18 -20
15 -25 -3 -4 -1 -8 5 -8 20 0 21 20 3 31 -19 12 -19 49 -1 49 5 0 9 5 9 10 0
6 -10 10 -22 10 -17 0 -19 -3 -10 -9z"/>
<path d="M638 607 c12 -7 19 -16 16 -20 -4 -4 -2 -7 4 -7 19 0 14 18 -7 30
-11 5 -23 10 -28 10 -4 -1 2 -6 15 -13z"/>
<path d="M123 586 c3 -8 -1 -20 -9 -26 -19 -17 -18 -40 2 -40 14 0 15 2 3 17
-12 15 -12 16 5 10 14 -5 17 -3 13 8 -4 8 -2 17 3 20 16 10 12 25 -6 25 -10 0
-14 -6 -11 -14z"/>
<path d="M409 589 c-10 -6 -6 -11 15 -19 35 -13 38 -10 16 11 -11 10 -23 13
-31 8z"/>
<path d="M1492 586 c7 -8 16 -12 21 -9 11 7 -2 23 -19 23 -12 0 -12 -2 -2 -14z"/>
<path d="M564 578 c-7 -10 26 -9 51 2 16 7 14 9 -13 7 -19 -1 -36 -5 -38 -9z"/>
<path d="M1372 570 c-18 -29 -16 -31 23 -28 32 2 34 3 22 22 -19 28 -30 29
-45 6z"/>
<path d="M1507 542 c2 -10 13 -18 24 -19 23 -2 24 1 3 21 -21 21 -33 20 -27
-2z"/>
<path d="M228 530 c12 -11 24 -20 28 -20 4 0 -1 9 -11 20 -10 11 -23 20 -28
20 -6 0 -1 -9 11 -20z"/>
<path d="M615 536 c31 -14 45 -12 45 5 0 5 -17 9 -37 9 l-38 -1 30 -13z"/>
<path d="M452 533 c-16 -6 -5 -23 16 -23 15 0 15 2 2 11 -11 8 -6 9 20 4 26
-5 31 -4 20 4 -16 11 -37 13 -58 4z"/>
<path d="M1590 530 c-16 -10 -13 -12 20 -12 33 0 36 2 20 12 -8 5 -17 10 -20
10 -3 0 -12 -5 -20 -10z"/>
<path d="M1675 530 c-15 -5 -16 -8 -5 -15 8 -5 15 -4 18 3 2 6 10 8 18 5 8 -3
14 -1 14 4 0 11 -18 12 -45 3z"/>
<path d="M1424 518 c17 -10 16 -12 -14 -24 -17 -8 -36 -11 -42 -8 -14 9 -60
-5 -53 -16 3 -6 1 -10 -6 -10 -7 0 -10 -2 -7 -5 9 -10 38 7 31 18 -4 6 3 8 19
4 28 -7 100 10 110 27 7 11 -14 24 -42 25 -11 0 -10 -3 4 -11z"/>
<path d="M326 511 c5 -5 25 -12 44 -15 l35 -7 -34 16 c-37 17 -60 20 -45 6z"/>
<path d="M1169 518 c0 -2 -2 -11 -4 -21 -3 -15 -1 -16 11 -6 7 6 11 15 8 20
-5 9 -13 12 -15 7z"/>
<path d="M85 500 c3 -5 13 -10 21 -10 8 0 12 5 9 10 -3 6 -13 10 -21 10 -8 0
-12 -4 -9 -10z"/>
<path d="M624 483 c4 -7 -6 -19 -23 -29 -17 -10 -28 -21 -25 -26 3 -4 15 -1
27 7 28 20 45 19 49 -2 3 -15 5 -15 9 -3 4 9 -5 26 -19 40 -13 14 -22 20 -18
13z"/>
<path d="M1465 473 c-4 -11 0 -11 18 -2 31 16 32 18 8 16 -11 -1 -23 -7 -26
-14z"/>
<path d="M1650 476 c0 -2 8 -10 17 -17 9 -8 14 -9 10 -2 -4 6 -1 14 5 16 7 3
3 6 -9 6 -13 1 -23 -1 -23 -3z"/>
<path d="M73 453 c4 -3 3 -11 -2 -17 -4 -6 -11 -20 -15 -30 -5 -16 -4 -17 8
-7 8 7 21 9 28 5 10 -5 11 -4 1 7 -19 20 -16 33 5 18 14 -11 13 -10 -2 9 -11
12 -21 22 -24 22 -3 0 -2 -3 1 -7z"/>
<path d="M687 450 c15 -17 -1 -50 -25 -50 -20 0 -45 -47 -30 -56 6 -4 14 -1
18 6 5 9 9 9 14 1 4 -6 12 -9 17 -6 5 3 6 -1 3 -9 -3 -9 -16 -16 -28 -16 -11
0 -37 -10 -56 -22 -19 -12 -47 -21 -62 -20 -33 3 -35 -3 -7 -19 40 -21 181 59
203 116 3 8 0 14 -7 12 -7 -1 -13 10 -15 25 -2 14 -11 32 -20 39 -14 11 -15
11 -5 -1z m21 -72 c-2 -6 -10 -14 -16 -16 -7 -2 -10 2 -6 12 7 18 28 22 22 4z"/>
<path d="M998 454 c6 -3 9 -10 6 -16 -4 -6 -1 -9 5 -7 19 7 14 24 -6 26 -10 2
-12 0 -5 -3z"/>
<path d="M1375 450 c19 -8 19 -8 -4 -17 -15 -6 -20 -12 -14 -16 6 -4 18 0 26
8 9 8 20 15 26 15 5 0 12 4 15 8 3 5 -11 9 -32 10 -28 0 -32 -2 -17 -8z"/>
<path d="M1703 453 c-7 -3 -13 -9 -13 -14 0 -12 46 -7 57 6 4 6 4 7 -1 3 -5
-4 -14 -4 -20 1 -6 4 -17 6 -23 4z"/>
<path d="M213 434 c9 -10 87 -34 87 -28 0 5 -28 16 -70 29 -14 4 -21 4 -17 -1z"/>
<path d="M1424 417 c-11 -13 -19 -28 -16 -35 2 -7 -5 -12 -17 -12 -12 0 -21
-4 -21 -10 0 -5 -8 -10 -17 -10 -15 0 -16 -2 -3 -10 32 -20 76 10 91 62 11 40
7 44 -17 15z"/>
<path d="M425 411 c6 -5 24 -13 40 -17 39 -9 30 0 -15 15 -19 6 -30 7 -25 2z"/>
<path d="M569 405 c-14 -8 -38 -32 -52 -54 -30 -45 -35 -60 -12 -37 8 8 15 19
15 25 0 6 6 8 14 5 9 -3 13 1 13 13 -2 14 7 19 36 23 34 4 37 7 25 22 -11 15
-16 15 -39 3z"/>
<path d="M2045 400 c-17 -7 -14 -9 13 -9 20 -1 31 3 27 9 -7 12 -13 12 -40 0z"/>
<path d="M913 393 c9 -2 15 -9 12 -14 -3 -5 1 -6 10 -2 13 5 14 7 3 14 -7 5
-20 8 -28 8 -11 -1 -10 -3 3 -6z"/>
<path d="M1004 392 c5 -8 -1 -12 -18 -12 -14 0 -27 -4 -30 -9 -3 -4 8 -8 24
-7 31 1 47 20 28 32 -7 4 -8 3 -4 -4z"/>
<path d="M1068 394 c6 -3 9 -10 6 -16 -4 -6 -1 -9 5 -7 19 7 14 24 -6 26 -10
2 -12 0 -5 -3z"/>
<path d="M205 382 c6 -5 21 -13 35 -17 17 -5 22 -4 15 3 -5 5 -21 13 -35 17
-17 5 -22 4 -15 -3z"/>
<path d="M329 365 c35 -14 69 -25 75 -24 16 1 -106 48 -124 48 -8 0 14 -11 49
-24z"/>
<path d="M351 386 c4 -4 21 -11 39 -16 19 -5 29 -6 24 -1 -10 10 -72 26 -63
17z"/>
<path d="M454 375 c11 -8 26 -15 33 -15 22 0 14 8 -19 19 -30 10 -31 9 -14 -4z"/>
<path d="M1980 374 c0 -8 -4 -13 -8 -10 -4 2 -14 1 -22 -4 -11 -7 -9 -9 8 -7
23 1 54 37 32 37 -5 0 -10 -7 -10 -16z"/>
<path d="M2176 381 c-11 -4 -15 -10 -10 -13 5 -4 20 0 34 8 26 14 9 18 -24 5z"/>
<path d="M35 350 c-19 -37 -20 -55 -1 -38 8 7 12 16 9 20 -2 4 1 17 7 28 6 11
8 20 6 20 -3 0 -12 -13 -21 -30z"/>
<path d="M1158 363 c6 -2 10 -9 7 -13 -3 -5 0 -12 6 -16 8 -4 9 -3 5 4 -4 7
-1 12 6 12 9 0 9 3 -2 10 -8 5 -19 9 -25 9 -5 0 -4 -3 3 -6z"/>
<path d="M1820 350 c0 -15 21 -23 32 -12 6 6 2 11 -11 15 -12 3 -21 1 -21 -3z"/>
<path d="M2023 346 c19 -19 40 -21 35 -3 -3 6 -15 14 -28 15 -21 4 -22 2 -7
-12z"/>
<path d="M270 341 c-22 -6 -23 -8 -7 -14 26 -10 39 -9 32 3 -9 14 16 12 66 -5
24 -9 39 -12 34 -7 -12 11 -74 32 -89 31 -6 -1 -22 -4 -36 -8z"/>
<path d="M1036 325 c10 -8 28 -14 39 -14 14 0 10 4 -14 14 -42 19 -50 19 -25
0z"/>
<path d="M1119 324 c19 -8 36 -12 39 -9 5 5 -43 25 -61 25 -7 -1 3 -7 22 -16z"/>
<path d="M1987 312 c-22 -24 -22 -27 8 -28 26 -2 28 0 16 29 -6 18 -7 18 -24
-1z"/>
<path d="M2438 314 c-37 -19 -36 -25 2 -11 17 6 30 15 30 19 0 10 0 10 -32 -8z"/>
<path d="M255 310 c11 -5 27 -9 35 -9 9 0 8 4 -5 9 -11 5 -27 9 -35 9 -9 0 -8
-4 5 -9z"/>
<path d="M2186 310 c-11 -3 -15 -9 -10 -13 10 -6 42 9 34 16 -3 3 -14 1 -24
-3z"/>
<path d="M1820 299 c0 -9 -14 -28 -30 -43 -17 -15 -28 -31 -25 -36 3 -5 -4
-11 -14 -15 -12 -4 -18 -12 -14 -21 7 -18 23 -19 23 -1 0 7 13 26 30 42 16 15
27 32 24 36 -9 15 13 18 32 4 21 -16 129 -21 138 -6 9 13 -13 19 -54 15 l-35
-4 30 15 30 16 -30 -4 c-16 -2 -39 -8 -49 -12 -14 -6 -17 -5 -12 3 4 7 2 12
-3 12 -6 0 -11 -6 -11 -12 0 -8 -7 -5 -15 6 -12 15 -15 16 -15 5z"/>
<path d="M160 292 c0 -8 61 -34 67 -29 1 2 -13 11 -32 20 -19 9 -35 13 -35 9z"/>
<path d="M107 279 c12 -12 125 -50 131 -44 5 5 6 5 -81 33 -32 11 -55 16 -50
11z"/>
<path d="M321 286 c3 -4 26 -13 50 -21 44 -15 27 -15 -47 0 -21 4 -18 1 10
-10 38 -15 94 -17 101 -4 4 5 -15 12 -100 36 -11 3 -17 3 -14 -1z"/>
<path d="M391 286 c2 -2 18 -6 34 -10 22 -5 26 -4 15 4 -14 9 -59 15 -49 6z"/>
<path d="M800 265 c-7 -8 -18 -15 -24 -15 -16 0 -116 -44 -116 -51 0 -4 43
-12 95 -20 52 -7 95 -16 95 -20 0 -14 -176 9 -189 25 -6 6 -26 11 -45 11 -26
-1 -36 3 -40 17 -2 11 -10 18 -18 17 -22 -5 -88 11 -88 21 0 19 -16 10 -17 -9
-2 -21 40 -41 83 -41 13 0 24 -5 24 -11 0 -15 -107 -4 -120 12 -3 4 -21 10
-40 13 -26 5 -31 4 -20 -3 13 -9 12 -11 -5 -11 -16 0 -17 -2 -5 -10 9 -6 17
-5 21 2 5 8 22 5 56 -9 33 -14 80 -23 153 -27 58 -3 146 -8 195 -11 63 -4 107
-1 145 9 49 12 52 15 30 22 l-25 8 25 7 25 7 -26 1 c-15 1 -32 -5 -38 -13 -14
-17 -51 -28 -51 -15 0 6 -6 9 -12 8 -30 -4 -58 2 -58 12 0 5 4 8 9 4 5 -3 13
0 17 6 4 7 3 9 -4 5 -6 -3 -13 -2 -16 2 -3 5 -26 7 -52 4 -33 -3 -45 -1 -40 7
4 6 15 11 25 11 9 0 26 6 36 14 15 11 22 11 44 0 14 -8 31 -14 36 -14 6 1 -2
8 -17 16 -30 16 -38 30 -12 20 8 -3 12 -2 9 4 -9 15 -31 12 -45 -5z"/>
<path d="M245 261 c6 -5 24 -13 40 -17 39 -9 30 0 -15 15 -19 6 -30 7 -25 2z"/>
<path d="M2035 256 c-18 -13 -18 -14 8 -9 15 3 27 9 27 14 0 13 -13 11 -35 -5z"/>
<path d="M95 250 c11 -5 29 -8 40 -8 16 0 15 2 -5 8 -34 11 -60 11 -35 0z"/>
<path d="M1927 234 c-3 -3 -22 -12 -43 -19 -36 -12 -36 -13 -16 -24 24 -13 66
3 91 33 11 14 11 16 -6 16 -11 0 -22 -3 -26 -6z"/>
<path d="M1983 213 c-81 -71 -94 -85 -89 -91 4 -3 11 0 16 8 5 8 12 11 16 7 4
-4 3 -12 -3 -18 -14 -14 -81 -3 -129 22 -21 10 -40 16 -43 13 -9 -8 50 -53 68
-52 9 0 48 -3 86 -7 39 -4 88 -9 110 -10 22 -1 55 -2 73 -3 19 -1 31 -6 27
-12 -3 -6 5 -10 19 -10 14 0 28 5 31 10 3 6 30 10 59 10 58 0 71 6 55 27 -13
15 -43 18 -34 3 7 -11 3 -12 -44 -14 -16 0 -27 2 -24 7 2 4 -1 7 -6 7 -6 0
-11 -4 -11 -10 0 -14 -33 -12 -49 3 -9 7 -12 8 -7 0 4 -7 -1 -9 -15 -6 -16 4
-17 8 -7 14 10 7 8 9 -7 9 -17 1 -16 3 8 16 51 27 27 23 -35 -6 -66 -31 -93
-37 -103 -20 -3 6 1 7 9 4 22 -8 20 13 -1 25 -28 15 -7 26 75 38 18 3 35 10
38 15 4 6 -1 8 -12 5 -11 -3 -35 -8 -54 -12 -31 -5 -33 -4 -15 7 11 7 21 19
23 26 3 16 -1 15 -25 -5z"/>
<path d="M1800 211 c0 -5 -3 -16 -6 -25 -4 -10 5 -22 28 -36 65 -40 81 -14 22
38 -39 34 -44 37 -44 23z"/>
<path d="M2180 201 c0 -6 6 -11 13 -12 6 0 3 -4 -8 -9 -19 -8 -19 -9 3 -9 25
-1 29 11 7 29 -10 9 -15 9 -15 1z"/>
<path d="M2508 160 c-20 -11 -40 -25 -44 -32 -4 -6 3 -4 17 5 13 9 30 17 37
17 7 0 20 7 28 15 21 20 7 18 -38 -5z"/>
<path d="M85 160 c-3 -5 1 -10 9 -10 8 0 18 5 21 10 3 6 -1 10 -9 10 -8 0 -18
-4 -21 -10z"/>
<path d="M188 154 c12 -8 30 -13 40 -11 12 3 11 5 -5 6 -13 0 -23 6 -23 11 0
6 -8 10 -17 10 -14 0 -13 -3 5 -16z"/>
<path d="M2420 155 c-17 -10 -20 -14 -9 -15 9 0 22 7 29 15 15 18 12 18 -20 0z"/>
<path d="M2274 135 c6 -13 14 -21 18 -19 13 8 9 18 -11 31 -17 11 -18 10 -7
-12z"/>
<path d="M1210 140 c0 -5 7 -10 15 -10 8 0 15 5 15 10 0 6 -7 10 -15 10 -8 0
-15 -4 -15 -10z"/>
<path d="M1690 114 l-25 -15 25 7 c28 7 35 12 29 18 -2 2 -15 -2 -29 -10z"/>
<path d="M95 83 c11 -3 24 -9 30 -14 16 -16 27 -10 11 6 -8 8 -25 14 -38 14
-20 -1 -21 -2 -3 -6z"/>
<path d="M1804 74 c3 -9 6 -30 6 -47 0 -18 4 -27 9 -22 11 13 2 85 -11 85 -6
0 -7 -7 -4 -16z"/>
<path d="M750 70 c8 -5 24 -10 34 -10 26 0 18 6 -19 14 -22 5 -26 4 -15 -4z"/>
<path d="M2350 41 l-25 -7 28 -6 c19 -4 27 -1 27 8 0 8 -1 14 -2 13 -2 -1 -14
-4 -28 -8z"/>
<path d="M2690 46 c0 -9 39 -13 51 -5 10 6 4 9 -18 9 -18 0 -33 -2 -33 -4z"/>
<path d="M1567 23 c21 -16 28 -16 41 0 8 9 2 12 -24 12 -30 0 -32 -2 -17 -12z"/>
<path d="M1683 33 c-30 -6 -29 -19 1 -25 17 -3 23 -1 19 8 -2 7 4 14 14 17 23
6 -4 6 -34 0z"/>
<path d="M2070 36 c0 -2 11 -6 25 -8 14 -3 25 -1 25 3 0 5 -11 9 -25 9 -14 0
-25 -2 -25 -4z"/>
<path d="M2164 33 c10 -10 46 -11 40 -1 -3 4 -15 8 -26 8 -12 0 -18 -3 -14 -7z"/>
<path d="M2260 30 c0 -5 -10 -11 -22 -11 -17 -1 -18 -3 -6 -6 10 -2 28 3 40
11 18 13 19 16 5 16 -9 0 -17 -4 -17 -10z"/>
<path d="M1283 23 c-7 -2 -13 -9 -13 -15 0 -7 4 -7 13 0 6 5 21 12 32 15 20 5
20 5 0 5 -11 0 -26 -2 -32 -5z"/>
<path d="M1920 10 c-20 -6 -21 -8 -5 -8 11 0 31 4 45 8 20 6 21 8 5 8 -11 0
-31 -4 -45 -8z"/>
</g>
</svg>
