<?xml version="1.0" standalone="no"?><svg xmlns="http://www.w3.org/2000/svg" viewBox="0 0 1440 320"><path fill="#212529" fill-opacity="1" d="M0,128L30,149.3C60,171,120,213,180,240C240,267,300,277,360,272C420,267,480,245,540,213.3C600,181,660,139,720,149.3C780,160,840,224,900,245.3C960,267,1020,245,1080,213.3C1140,181,1200,139,1260,138.7C1320,139,1380,181,1410,202.7L1440,224L1440,320L1410,320C1380,320,1320,320,1260,320C1200,320,1140,320,1080,320C1020,320,960,320,900,320C840,320,780,320,720,320C660,320,600,320,540,320C480,320,420,320,360,320C300,320,240,320,180,320C120,320,60,320,30,320L0,320Z"></path></svg>