<?xml version="1.0" standalone="no"?><svg xmlns="http://www.w3.org/2000/svg" viewBox="0 0 1440 320"><path fill="#212529" fill-opacity="1" d="M0,128L30,149.3C60,171,120,213,180,240C240,267,300,277,360,272C420,267,480,245,540,213.3C600,181,660,139,720,149.3C780,160,840,224,900,245.3C960,267,1020,245,1080,213.3C1140,181,1200,139,1260,138.7C1320,139,1380,181,1410,202.7L1440,224L1440,0L1410,0C1380,0,1320,0,1260,0C1200,0,1140,0,1080,0C1020,0,960,0,900,0C840,0,780,0,720,0C660,0,600,0,540,0C480,0,420,0,360,0C300,0,240,0,180,0C120,0,60,0,30,0L0,0Z"></path></svg>